<svg xmlns="http://www.w3.org/2000/svg" width="759" height="759" viewBox="0 0 759 759" version="1.1"><path d="" stroke="none" fill="#08ecac" fill-rule="evenodd"/><path d="M 345.061 1.085 C 298.519 5.568, 254.490 17.992, 212.500 38.492 C 196.775 46.169, 175.120 58.448, 172.297 61.289 C 171.358 62.234, 181.533 77.314, 218.657 130 C 244.817 167.125, 267.816 199.872, 269.765 202.770 L 273.310 208.041 270.981 210.520 C 267.770 213.939, 268.720 213.655, 276.648 208.828 C 325.385 179.152, 388.142 172.469, 442.876 191.126 C 473.473 201.556, 498.870 217.763, 522.033 241.642 C 538.529 258.647, 548.167 272.255, 558.052 292.500 C 581.275 340.058, 584.791 394.249, 567.874 443.876 C 557.444 474.473, 541.237 499.870, 517.358 523.033 C 500.353 539.529, 486.745 549.167, 466.500 559.052 C 425.825 578.914, 380.837 584.359, 336.124 574.834 C 309.651 569.194, 280.153 555.429, 257.500 538.144 C 249.058 531.703, 230.913 513.898, 223.723 505 C 181.039 452.179, 168.196 379.885, 190.169 316.124 C 192.373 309.731, 195.716 301.163, 197.599 297.085 C 200.268 291.304, 200.587 290.063, 199.048 291.456 C 197.963 292.439, 196.495 293.013, 195.787 292.732 C 195.079 292.451, 159.850 273.259, 117.500 250.085 L 40.500 207.949 35.387 218.724 C 20.370 250.373, 8.776 289.116, 3.583 325 C -1.378 359.279, -1.378 399.721, 3.583 434 C 7.462 460.808, 14.955 489.613, 24.583 514.741 C 76.955 651.414, 199.786 744.220, 346.500 757.968 C 360.666 759.295, 398.334 759.295, 412.500 757.968 C 458.937 753.616, 502.407 741.705, 543.500 722.072 C 631.739 679.915, 699.194 606.661, 734.417 514.741 C 746.444 483.353, 755.602 443.835, 757.712 414.216 C 758.036 409.659, 758.684 405.695, 759.151 405.407 C 759.618 405.118, 760 392.957, 760 378.382 C 760 363.807, 759.616 352.119, 759.146 352.410 C 758.677 352.700, 758.029 349.239, 757.707 344.719 C 755.602 315.166, 746.433 275.617, 734.417 244.259 C 699.194 152.339, 631.739 79.085, 543.500 36.928 C 502.407 17.295, 458.937 5.384, 412.500 1.032 C 399.865 -0.152, 357.558 -0.118, 345.061 1.085 M 0.438 379.500 C 0.437 394.350, 0.576 400.564, 0.747 393.310 C 0.918 386.055, 0.918 373.905, 0.748 366.310 C 0.578 358.714, 0.438 364.650, 0.438 379.500" stroke="none" fill="#04ecac" fill-rule="evenodd"/></svg>