<?xml version="1.0" encoding="UTF-8"?>
<svg version="1.1" xmlns="http://www.w3.org/2000/svg" width="1500" height="1001">
<path d="M0 0 C1.2371497 -0.00551503 1.2371497 -0.00551503 2.49929231 -0.01114148 C5.26112615 -0.02214851 8.02292232 -0.02601711 10.78477478 -0.02983093 C12.76601785 -0.0360979 14.74725975 -0.04274491 16.72850037 -0.04974365 C23.234148 -0.07076106 29.73979581 -0.08114481 36.24546814 -0.09111023 C38.48793996 -0.09515884 40.73041166 -0.0992758 42.97288322 -0.10346031 C53.51064898 -0.12250795 64.04840776 -0.13673912 74.58618742 -0.14507228 C86.73555847 -0.15483935 98.88474708 -0.18114694 111.03405386 -0.22157317 C120.43384136 -0.25177314 129.83357667 -0.2665449 139.23341173 -0.26985329 C144.84305862 -0.27219959 150.4525105 -0.28110527 156.06210518 -0.30631447 C161.34399601 -0.32966763 166.62556443 -0.33379927 171.90749359 -0.32355309 C173.8391496 -0.32305936 175.77082188 -0.32933141 177.70242882 -0.34310913 C191.56291514 -0.43638923 204.09472453 0.20473477 214.77281189 10.14717102 C215.46246033 10.7839679 216.15210876 11.42076477 216.86265564 12.07685852 C224.63547424 19.97994782 228.20515548 29.26744646 228.33531189 40.27217102 C228.17861885 49.67263434 225.50921616 57.67246242 219.77281189 65.14717102 C219.07156189 66.13717102 218.37031189 67.12717102 217.64781189 68.14717102 C212.2538309 74.47057642 204.3322657 77.31237584 196.77281189 80.14717102 C188.85281189 80.14717102 180.93281189 80.14717102 172.77281189 80.14717102 C173.10281189 101.26717102 173.43281189 122.38717102 173.77281189 144.14717102 C180.79562439 145.91060852 180.79562439 145.91060852 187.96031189 147.70967102 C200.77165453 150.99231877 213.33739857 154.6208537 225.77281189 159.14717102 C226.74395935 159.49441223 227.71510681 159.84165344 228.71568298 160.19941711 C241.87648713 164.93597995 254.63215572 170.29782861 267.21031189 176.39717102 C267.81278748 176.68931488 268.41526306 176.98145874 269.03599548 177.28245544 C292.45198529 188.68811426 315.22209245 201.69758062 335.83628845 217.65742493 C337.57663997 218.99625813 339.33360813 220.30424703 341.10874939 221.59638977 C351.82619777 229.43053511 361.74590758 238.21865102 371.55406189 247.15107727 C373.55061594 248.94727291 375.58987222 250.67238142 377.64781189 252.39717102 C381.79969704 256.00605309 385.44183244 260.03491397 389.13291931 264.10273743 C392.47463585 267.77678807 395.90876439 271.30021002 399.46031189 274.77217102 C404.66113699 279.92076402 409.2286214 285.42035698 413.77281189 291.14717102 C415.33303432 293.04487917 416.8955223 294.94072703 418.46031189 296.83467102 C428.77281189 309.46296049 428.77281189 309.46296049 428.77281189 312.14717102 C414.22982224 312.38144008 399.68712779 312.55677061 385.14263439 312.66529274 C378.38826368 312.71671859 371.63506955 312.78674227 364.88145447 312.90156555 C358.35869128 313.01241047 351.83668892 313.07008376 345.31302834 313.09594345 C342.8294843 313.11436173 340.34600393 313.15033027 337.8629818 313.20447159 C316.33792124 313.65497269 316.33792124 313.65497269 310.26670551 308.64565086 C308.23288003 306.62696251 306.49822919 304.43109905 304.77281189 302.14717102 C302.99872185 300.50803389 302.99872185 300.50803389 301.23374939 299.18623352 C300.21539001 298.3895929 299.19703064 297.59295227 298.14781189 296.77217102 C290.22991201 290.60713955 282.0575969 284.80689386 273.77281189 279.14717102 C273.19627869 278.75320129 272.61974548 278.35923157 272.02574158 277.95332336 C229.85632148 249.41658445 181.38767339 231.26587675 131.02281189 224.27217102 C130.27698853 224.16835114 129.53116516 224.06453125 128.76274109 223.95756531 C47.23537986 212.80822579 -37.18124923 232.9377565 -105.22718811 279.14717102 C-106.06878479 279.71854797 -106.06878479 279.71854797 -106.92738342 280.3014679 C-119.66280676 289.02396297 -131.69865471 298.73219878 -143.06703186 309.17060852 C-145.10834227 311.038426 -147.18907434 312.84664493 -149.28968811 314.64717102 C-155.72018939 320.26089492 -161.69409672 326.33488707 -167.23890686 332.82295227 C-168.76500068 334.60689298 -170.31360519 336.37159677 -171.87171936 338.12763977 C-196.02854515 365.50510626 -215.15132072 397.53010696 -229.22718811 431.14717102 C-229.694151 432.25487854 -229.694151 432.25487854 -230.17054749 433.38496399 C-241.239448 459.91846377 -248.39449611 488.28257041 -251.93470764 516.7960968 C-252.12612912 518.3348187 -252.32725365 519.87237217 -252.53919983 521.40840149 C-256.02941351 546.99778808 -255.80432945 574.58561774 -252.22718811 600.14717102 C-252.04180481 601.58648987 -252.04180481 601.58648987 -251.85267639 603.05488586 C-246.14225832 647.05625274 -232.40848684 689.64881391 -210.22718811 728.14717102 C-209.81823303 728.85808899 -209.40927795 729.56900696 -208.9879303 730.3014679 C-202.12160106 742.11506216 -194.40798894 753.21166935 -186.22718811 764.14717102 C-185.54656311 765.06369446 -184.86593811 765.9802179 -184.16468811 766.92451477 C-180.53989131 771.69884204 -176.59203419 776.1201359 -172.54750061 780.54170227 C-170.18134592 783.19864701 -167.95047566 785.93249824 -165.72718811 788.70967102 C-159.82654709 795.98541795 -153.27020275 802.34912447 -146.15687561 808.42451477 C-144.25381781 810.12339835 -142.53571415 811.9136233 -140.78968811 813.77217102 C-134.91884814 819.72359115 -128.0795908 824.55324819 -121.38929749 829.53193665 C-119.41217486 831.00897406 -117.45056266 832.50398905 -115.49281311 834.00654602 C-106.30794275 840.9864475 -96.60687497 846.92255691 -86.64442444 852.72480774 C-84.17205256 854.17961418 -81.72824489 855.67648281 -79.28187561 857.17451477 C-41.68269233 879.74861928 1.67456857 891.35204 44.77281189 897.14717102 C45.6253656 897.26721497 46.47791931 897.38725891 47.35630798 897.51094055 C122.71044374 907.81092529 205.0785192 887.68719975 267.89781189 845.40498352 C269.58095622 844.2758742 271.28505981 843.17815779 272.99156189 842.08467102 C287.71538954 832.66983838 287.71538954 832.66983838 300.68717957 821.08052063 C305.35356838 818.15672413 309.68065394 818.6209004 315.08067322 818.69306946 C316.22257111 818.69248535 317.36446899 818.69190125 318.54096985 818.69129944 C322.31257094 818.69408451 326.08338023 818.7251983 329.85484314 818.75654602 C332.47086149 818.76400686 335.08688544 818.76970053 337.70291138 818.7736969 C343.8829674 818.78611705 350.06273955 818.81892529 356.24267071 818.85909486 C363.28009748 818.90384277 370.31753799 818.92580714 377.35507166 818.9458766 C391.82779801 818.98765902 406.30030097 819.05799217 420.77281189 819.14717102 C418.87361292 823.20818914 416.20373128 826.35495468 413.27281189 829.70967102 C412.47194153 830.63513733 412.47194153 830.63513733 411.65489197 831.57929993 C407.50526882 836.35571154 403.27191479 841.05004634 398.99156189 845.70967102 C397.1047802 847.78247344 395.27527889 849.88691573 393.46031189 852.02217102 C386.43168832 860.10009148 378.68142051 867.69220778 370.51890564 874.61592102 C368.73918089 876.17666397 367.10449169 877.81996134 365.46031189 879.52217102 C360.89058977 884.13242283 355.87303043 888.14390111 350.77281189 892.14717102 C350.01597107 892.7427179 349.25913025 893.33826477 348.47935486 893.95185852 C338.48971702 901.77807373 328.48021216 909.29731182 317.58921814 915.82295227 C315.07826642 917.32800113 312.6425472 918.89601863 310.23765564 920.56513977 C260.59082758 954.76307403 199.38361834 974.03264743 140.08531189 982.08467102 C139.33338562 982.18689972 138.58145935 982.28912842 137.80674744 982.39445496 C120.12012182 984.75291532 102.54123965 985.35584161 84.71031189 985.33467102 C83.7633847 985.33406677 82.81645752 985.33346252 81.84083557 985.33283997 C68.39219012 985.30960501 55.05436592 985.09003177 41.68492126 983.49336243 C39.62805837 983.24884268 37.56918766 983.02093814 35.50914001 982.80488586 C-25.12163728 976.43302449 -85.66275416 955.75870771 -137.22718811 923.14717102 C-137.90442932 922.7208136 -138.58167053 922.29445618 -139.2794342 921.85517883 C-158.91826592 909.44747483 -178.21436986 896.0134059 -195.22718811 880.14717102 C-196.67986303 878.84914387 -198.13791029 877.55709489 -199.60218811 876.27217102 C-200.20804749 875.73849915 -200.81390686 875.20482727 -201.43812561 874.65498352 C-207.10776311 869.87664274 -210.80596317 869.08750038 -218.22902966 868.5611887 C-219.29158107 868.48437991 -219.29158107 868.48437991 -220.37559816 868.40601942 C-222.76097379 868.23445762 -225.14667777 868.06798739 -227.53240967 867.90145874 C-229.25521299 867.77858567 -230.97799369 867.65539519 -232.70075351 867.5319137 C-237.44402101 867.19282567 -242.18759093 866.85814489 -246.93121827 866.5241338 C-252.04319339 866.16339273 -257.15487431 865.79852935 -262.2665863 865.43408203 C-271.12632697 864.80289998 -279.98623397 864.17409819 -288.8462429 863.5466938 C-302.83945855 862.5556041 -316.83216572 861.55744566 -330.82479858 860.5581665 C-335.6088142 860.21660842 -340.39283347 859.8751016 -345.17685413 859.53361416 C-346.37241644 859.44827274 -347.56797874 859.36293133 -348.7997702 859.27500381 C-362.4116351 858.30347425 -376.02361336 857.33353755 -389.63563538 856.36421204 C-390.88019742 856.27558372 -392.12475946 856.18695539 -393.40703551 856.09564137 C-413.59758669 854.65798852 -433.7884695 853.22503485 -453.97943249 851.79317886 C-474.68980037 850.32430743 -495.39963843 848.84811813 -516.10903865 847.36566633 C-528.89472303 846.45070373 -541.68081435 845.54187144 -554.46748445 844.64078724 C-563.22030093 844.02347255 -571.97260935 843.39928072 -580.72454246 842.76956684 C-585.78145386 842.40593964 -590.83854362 842.04552867 -595.89626884 841.69338608 C-600.51851453 841.37150295 -605.14005138 841.04094205 -609.76116572 840.70321553 C-611.44049035 840.5820779 -613.12005703 840.46424529 -614.79985806 840.34990335 C-617.06826631 840.19503395 -619.33552264 840.02859064 -621.60286999 839.85899448 C-622.867069 839.76916312 -624.13126801 839.67933175 -625.43377608 839.58677822 C-626.35560205 839.44170785 -627.27742802 839.29663747 -628.22718811 839.14717102 C-628.55718811 838.48717102 -628.88718811 837.82717102 -629.22718811 837.14717102 C-583.11119675 835.36026469 -536.99508834 833.57640691 -490.87882167 831.79661924 C-485.43040846 831.58634335 -479.98199623 831.3760423 -474.53358459 831.16572571 C-472.90661091 831.1029228 -472.90661091 831.1029228 -471.24676908 831.03885114 C-453.70022073 830.36147573 -436.1537518 829.68206394 -418.60731154 829.00189531 C-400.59379385 828.30366648 -382.58019219 827.60763597 -364.56651121 826.91363239 C-353.45733257 826.48556596 -342.34822241 826.05579915 -331.23919464 825.62383485 C-323.61417384 825.32750769 -315.98907225 825.03332207 -308.36390477 824.74079394 C-303.96918486 824.57213459 -299.57450566 824.4025566 -295.1799202 824.23042679 C-291.14715708 824.07249005 -287.11429818 823.91727611 -283.08135075 823.76412022 C-281.63152566 823.70859925 -280.18173661 823.65212594 -278.73199212 823.59453857 C-269.2222375 823.21749698 -259.74261629 823.08209123 -250.22718811 823.14717102 C-250.60497406 822.63038284 -250.98276001 822.11359467 -251.37199402 821.58114624 C-277.0627763 786.41873911 -298.03899994 749.63783873 -314.22718811 709.14717102 C-315.13116726 709.09362237 -315.13116726 709.09362237 -316.05340862 709.03899193 C-335.84051038 707.86686342 -355.62760274 706.69457618 -375.41468811 705.52217102 C-376.17387621 705.47718853 -376.93306432 705.43220604 -377.71525812 705.38586044 C-421.19858766 702.80942905 -464.68179699 700.230993 -508.16468811 697.64717102 C-509.2568652 697.58227226 -510.34904228 697.5173735 -511.47431564 697.45050812 C-524.39195042 696.68290767 -537.30957538 695.91514224 -550.22718811 695.14717102 C-546.40939489 692.60197554 -543.11867961 692.68680361 -538.67536926 692.48905945 C-537.79161409 692.44243152 -536.90785891 692.3958036 -535.99732327 692.3477627 C-533.02451817 692.19318115 -530.05122996 692.05182212 -527.07777405 691.91035461 C-524.95074527 691.80247326 -522.82375725 691.69378596 -520.69680786 691.58435059 C-514.90990526 691.28895418 -509.12249021 691.00501542 -503.33491421 690.72316313 C-497.2826734 690.42658595 -491.23094627 690.11987372 -485.17915344 689.8143158 C-475.01072742 689.30233819 -464.8419846 688.7971145 -454.67298889 688.29658508 C-440.33699461 687.59093346 -426.00164945 686.87272453 -411.66639662 686.15218997 C-401.73744457 685.65358768 -391.80834538 685.15792576 -381.87921619 684.66286516 C-379.47172852 684.54282535 -377.06424447 684.42271269 -374.65676403 684.3025279 C-367.78900892 683.95980912 -360.92116699 683.61893948 -354.05317497 683.28100014 C-351.97265928 683.178389 -349.89217208 683.07519837 -347.81171608 682.97138405 C-344.97020244 682.82972371 -342.12859048 682.69023102 -339.28694153 682.55131531 C-338.465042 682.50987912 -337.64314247 682.46844292 -336.79633689 682.42575109 C-332.2666984 682.20702663 -327.76214232 682.10812615 -323.22718811 682.14717102 C-323.44334778 681.34948303 -323.65950745 680.55179504 -323.88221741 679.72993469 C-331.22457927 652.4530116 -336.76886003 625.34788797 -339.22718811 597.14717102 C-339.3243512 596.05372375 -339.42151428 594.96027649 -339.5216217 593.83369446 C-340.3518984 583.20909178 -340.37991141 572.60598808 -340.3575592 561.95429993 C-340.35212454 558.86099004 -340.35757511 555.76782069 -340.36390686 552.67451477 C-340.36324727 550.7018582 -340.36196858 548.72920172 -340.36000061 546.75654602 C-340.36202484 545.83476563 -340.36404907 544.91298523 -340.36613464 543.96327209 C-340.36298248 543.11098022 -340.35983032 542.25868835 -340.35658264 541.38056946 C-340.35578705 540.6330542 -340.35499146 539.88553894 -340.35417175 539.1153717 C-340.22718811 537.14717102 -340.22718811 537.14717102 -339.22718811 534.14717102 C-339.90767344 534.16030616 -340.58815876 534.17344129 -341.28926486 534.18697447 C-349.98268455 534.27860446 -358.58111116 533.70445627 -367.23922729 533.01498413 C-368.83261278 532.89155878 -370.42602982 532.76854034 -372.01947516 532.64589018 C-376.36878633 532.30993811 -380.71762909 531.96823734 -385.06641328 531.62554038 C-389.76755028 531.25610206 -394.46910497 530.89205165 -399.17060852 530.52731323 C-408.3678718 529.81294495 -417.564742 529.09363297 -426.76148698 528.37262613 C-437.4741486 527.53295784 -448.1871895 526.69817843 -458.90024754 525.86358588 C-478.01302628 524.37444898 -497.12545274 522.880838 -516.23768616 521.38471985 C-534.78104628 519.93313705 -553.32465472 518.48478107 -571.86854553 517.03999329 C-573.01142833 516.95094882 -574.15431112 516.86190436 -575.33182672 516.77016158 C-576.47274122 516.68127075 -577.61365572 516.59237992 -578.78914338 516.50079542 C-599.91006085 514.85520009 -621.03074553 513.20663416 -642.15132073 511.55665212 C-649.61863841 510.97335649 -657.08602385 510.39093332 -664.55343056 509.80877876 C-673.64983482 509.09956746 -682.74610329 508.3886417 -691.84220646 507.67557866 C-696.48295615 507.31181175 -701.12375827 506.94875311 -705.76471519 506.58763885 C-710.01271116 506.25707537 -714.26053834 505.92442493 -718.50824019 505.59010392 C-720.04494674 505.46951908 -721.58171297 505.349692 -723.1185436 505.23069895 C-725.20809355 505.06879288 -727.29740707 504.90410933 -729.38668537 504.73873997 C-730.54706107 504.64798681 -731.70743678 504.55723365 -732.90297538 504.46373039 C-736.36493073 504.13405402 -739.78881625 503.66534029 -743.22718811 503.14717102 C-743.22718811 502.15717102 -743.22718811 501.16717102 -743.22718811 500.14717102 C-695.45566039 498.61282085 -647.68397238 497.08354995 -599.91206755 495.56098378 C-594.25766648 495.38076476 -588.60326673 495.20050419 -582.9488678 495.0202179 C-581.82329411 494.98433052 -580.69772043 494.94844314 -579.53803845 494.91146827 C-561.37111397 494.33214178 -543.20429871 493.74945696 -525.03752236 493.16550612 C-506.36290522 492.56530708 -487.68817348 491.96877478 -469.01333296 491.37556648 C-457.51262427 491.01013196 -446.01201167 490.64192031 -434.51151003 490.27002573 C-426.5990696 490.01443492 -418.6865194 489.76244192 -410.77387856 489.51313353 C-406.22538181 489.36971941 -401.67694501 489.22485877 -397.1286335 489.07567596 C-376.15220447 488.38879422 -355.21610134 487.97633969 -334.22718811 488.14717102 C-334.09745102 487.27711929 -333.96771393 486.40706757 -333.83404541 485.51065063 C-333.65980545 484.35727707 -333.48556549 483.2039035 -333.30604553 482.01557922 C-333.13505844 480.8774025 -332.96407135 479.73922577 -332.78790283 478.56655884 C-331.94532342 473.428285 -330.77763801 468.39007851 -329.53968811 463.33467102 C-329.27841125 462.26281555 -329.0171344 461.19096008 -328.74794006 460.08662415 C-324.82470026 444.24049497 -320.25746276 428.65611941 -314.78968811 413.27217102 C-314.28731628 411.84904602 -314.28731628 411.84904602 -313.77479553 410.39717102 C-311.46720688 404.05791461 -308.82690753 397.9017534 -306.07069397 391.74824524 C-305.70042839 390.91852707 -305.33016281 390.0888089 -304.94867706 389.23394775 C-304.04278644 387.20444957 -303.13559558 385.17554359 -302.22718811 383.14717102 C-329.91013537 381.20450547 -357.60575459 379.50370086 -385.30921936 377.88545227 C-386.14982076 377.83635004 -386.99042216 377.7872478 -387.85649633 377.73665762 C-398.25659532 377.12946856 -408.65687963 376.52548733 -419.05723178 375.92265213 C-428.04238554 375.40176756 -437.02740836 374.87864032 -446.01242411 374.35538161 C-464.41720719 373.28359315 -482.82214256 372.21444233 -501.22718811 371.14717102 C-498.37285588 368.29283879 -495.43563408 368.69601727 -491.59527588 368.52702332 C-490.79827957 368.48447894 -490.00128326 368.44193457 -489.18013555 368.39810097 C-486.49462348 368.25708807 -483.80863544 368.12968181 -481.12245178 368.00215149 C-479.20234628 367.90413968 -477.28228266 367.80530422 -475.36225891 367.70570374 C-470.13274033 367.43687102 -464.90269894 367.17987384 -459.67247939 366.92509222 C-454.19692955 366.6565482 -448.72189805 366.37781706 -443.24679565 366.10032654 C-434.03915235 365.63514956 -424.83117602 365.17711766 -415.62294006 364.72383118 C-403.83086304 364.14331363 -392.03940579 363.55107624 -380.24810314 362.95506096 C-370.09310113 362.44186252 -359.93782164 361.93423555 -349.78249955 361.42741632 C-346.52968655 361.26483483 -343.27691332 361.1014751 -340.02414513 360.93799973 C-334.89028029 360.68033197 -329.75625308 360.42616091 -324.62208557 360.17459869 C-322.74563499 360.08217941 -320.86923668 359.98869129 -318.99289894 359.89400864 C-309.06020159 359.39360723 -299.17542767 359.0034892 -289.22718811 359.14717102 C-288.77826958 357.74824615 -288.77826958 357.74824615 -288.32028198 356.32106018 C-287.196683 353.05859689 -285.78727818 350.44600314 -283.98890686 347.50654602 C-283.33986389 346.44443909 -282.69082092 345.38233215 -282.02210999 344.28804016 C-281.32666077 343.16905334 -280.63121155 342.05006653 -279.91468811 340.89717102 C-279.38137878 340.0342897 -279.38137878 340.0342897 -278.83729553 339.15397644 C-272.82670384 329.44203165 -266.42184371 320.08662411 -259.56703186 310.9499054 C-257.73728122 308.48801058 -255.98909516 305.97038857 -254.22718811 303.45967102 C-249.95944674 297.58588744 -245.15408125 292.19616992 -240.36000061 286.75263977 C-237.8544128 283.89727963 -235.49313713 280.96214475 -233.16468811 277.95967102 C-226.98652293 270.28376883 -219.76024471 263.52350989 -212.754776 256.61323547 C-211.48229759 255.35794792 -211.48229759 255.35794792 -210.18411255 254.07730103 C-209.53832748 253.44035812 -208.89254242 252.80341522 -208.22718811 252.14717102 C-227.48749555 250.64249681 -246.756524 249.42051716 -266.04367208 248.32338202 C-270.04350266 248.09533733 -274.04317992 247.86463077 -278.0428772 247.63426208 C-284.94059612 247.23730647 -291.83840233 246.84189973 -298.7362709 246.44755363 C-308.71870251 245.87682027 -318.70096162 245.30311285 -328.68317847 244.72863687 C-344.8999084 243.79539927 -361.11673076 242.86377905 -377.33363342 241.93354797 C-378.29991635 241.87811961 -379.26619927 241.82269124 -380.2617635 241.76558322 C-389.09478937 241.25891515 -397.9278217 240.75235969 -406.76085663 240.24584961 C-412.66304682 239.90740149 -418.5652355 239.56892705 -424.46742249 239.23042297 C-425.43796187 239.17476091 -426.40850125 239.11909884 -427.40845092 239.06175005 C-443.59461505 238.13338902 -459.78067077 237.20315098 -475.96664846 236.27154499 C-485.92662213 235.69837418 -495.88668922 235.12687879 -505.84688424 234.55756713 C-512.65881171 234.168097 -519.47064015 233.77692621 -526.28239335 233.38441997 C-530.20859339 233.15824565 -534.13483469 232.93286201 -538.0612011 232.70959282 C-541.65793787 232.50505511 -545.25453944 232.2982877 -548.8510484 232.08978356 C-550.76073266 231.97964876 -552.67055317 231.87188406 -554.58037817 231.76421732 C-560.82641275 231.39977819 -567.01648177 230.90716162 -573.22718811 230.14717102 C-573.22718811 229.81717102 -573.22718811 229.48717102 -573.22718811 229.14717102 C-551.47406147 227.51625959 -529.71455388 226.37437477 -507.92565978 225.35611141 C-503.16432177 225.13281384 -498.40316471 224.90572446 -493.64199829 224.67880249 C-491.64508045 224.58366208 -489.64816237 224.48852681 -487.65124404 224.3933965 C-486.64673021 224.34553876 -485.64221637 224.29768102 -484.60726272 224.24837305 C-481.50811895 224.10087587 -478.40895601 223.95378762 -475.30978787 223.80680358 C-460.20464619 223.0900099 -445.10019983 222.35958581 -429.99609375 221.62130737 C-428.34869353 221.54080958 -428.34869353 221.54080958 -426.66801251 221.45868557 C-416.49501887 220.96150454 -406.32206857 220.46343995 -396.14914715 219.96478355 C-389.20879437 219.62462555 -382.26841789 219.28495439 -375.32801819 218.945755 C-374.17576909 218.88943451 -373.02351999 218.83311401 -371.83635425 218.77508683 C-353.1151253 217.86085414 -334.39267748 216.9742887 -315.66967756 216.09716701 C-296.38687696 215.19313914 -277.10578739 214.2575762 -257.82590574 213.29328591 C-245.96283785 212.70097855 -234.09912279 212.13334729 -222.23335456 211.59780342 C-214.11132216 211.22890824 -205.99114732 210.82949299 -197.87176652 210.4062612 C-193.19414848 210.16334338 -188.51689794 209.93373114 -183.83693695 209.74061203 C-179.54509591 209.5632164 -175.25696 209.34701879 -170.96851914 209.10104252 C-169.4254312 209.01919723 -167.88153386 208.95107526 -166.3371594 208.8988586 C-154.58007416 208.48961874 -147.45890184 204.97050863 -138.22718811 198.14717102 C-121.58928173 187.6024626 -104.20512592 179.11262167 -86.22718811 171.14717102 C-84.96972626 170.57840042 -83.71248993 170.00913101 -82.45545959 169.43940735 C-72.5746794 164.99434709 -62.54200783 161.20595768 -52.28968811 157.70967102 C-51.47946198 157.431586 -50.66923584 157.15350098 -49.8344574 156.86698914 C-29.65070804 149.97636473 -9.21067502 144.96235046 11.77281189 141.14717102 C12.10281189 121.01717102 12.43281189 100.88717102 12.77281189 80.14717102 C4.85281189 80.14717102 -3.06718811 80.14717102 -11.22718811 80.14717102 C-22.13327214 77.07363825 -31.53892415 70.53309715 -37.19984436 60.44013977 C-42.87597264 47.77136677 -43.7507635 37.25525881 -39.22718811 24.14717102 C-34.36394661 13.34516346 -26.55658238 6.6942051 -15.80531311 2.05732727 C-10.54682354 0.2009211 -5.53605091 -0.0013305 0 0 Z " fill="#00ECAE" transform="translate(743.2271881103516,5.8528289794921875)"/>
<path d="M0 0 C1.19044922 -0.00128906 2.38089844 -0.00257813 3.60742188 -0.00390625 C4.85201172 -0.00003906 6.09660156 0.00382812 7.37890625 0.0078125 C9.23999023 0.00201172 9.23999023 0.00201172 11.13867188 -0.00390625 C12.33041016 -0.00261719 13.52214844 -0.00132812 14.75 0 C15.84111084 0.00112793 16.93222168 0.00225586 18.05639648 0.00341797 C20.53277855 0.11448529 22.58232858 0.41369907 24.94140625 1.1328125 C24.94140625 2.1228125 24.94140625 3.1128125 24.94140625 4.1328125 C25.93140625 4.1328125 26.92140625 4.1328125 27.94140625 4.1328125 C27.94140625 5.1228125 27.94140625 6.1128125 27.94140625 7.1328125 C28.93140625 7.1328125 29.92140625 7.1328125 30.94140625 7.1328125 C30.94140625 8.4528125 30.94140625 9.7728125 30.94140625 11.1328125 C31.93140625 11.1328125 32.92140625 11.1328125 33.94140625 11.1328125 C33.94140625 20.0428125 33.94140625 28.9528125 33.94140625 38.1328125 C32.95140625 38.1328125 31.96140625 38.1328125 30.94140625 38.1328125 C30.94140625 40.4428125 30.94140625 42.7528125 30.94140625 45.1328125 C29.95140625 45.1328125 28.96140625 45.1328125 27.94140625 45.1328125 C27.94140625 48.1028125 27.94140625 51.0728125 27.94140625 54.1328125 C27.28140625 54.1328125 26.62140625 54.1328125 25.94140625 54.1328125 C25.61140625 56.4428125 25.28140625 58.7528125 24.94140625 61.1328125 C23.95140625 61.1328125 22.96140625 61.1328125 21.94140625 61.1328125 C21.94140625 63.7728125 21.94140625 66.4128125 21.94140625 69.1328125 C20.95140625 69.1328125 19.96140625 69.1328125 18.94140625 69.1328125 C18.94140625 72.1028125 18.94140625 75.0728125 18.94140625 78.1328125 C18.28140625 78.1328125 17.62140625 78.1328125 16.94140625 78.1328125 C16.61140625 80.1128125 16.28140625 82.0928125 15.94140625 84.1328125 C14.95140625 84.1328125 13.96140625 84.1328125 12.94140625 84.1328125 C12.94140625 87.1028125 12.94140625 90.0728125 12.94140625 93.1328125 C11.95140625 93.1328125 10.96140625 93.1328125 9.94140625 93.1328125 C9.94140625 95.7728125 9.94140625 98.4128125 9.94140625 101.1328125 C8.95140625 101.1328125 7.96140625 101.1328125 6.94140625 101.1328125 C6.94140625 103.4428125 6.94140625 105.7528125 6.94140625 108.1328125 C5.95140625 108.1328125 4.96140625 108.1328125 3.94140625 108.1328125 C3.94140625 111.1028125 3.94140625 114.0728125 3.94140625 117.1328125 C2.95140625 117.1328125 1.96140625 117.1328125 0.94140625 117.1328125 C0.94140625 119.7728125 0.94140625 122.4128125 0.94140625 125.1328125 C-0.04859375 125.1328125 -1.03859375 125.1328125 -2.05859375 125.1328125 C-2.05859375 127.4428125 -2.05859375 129.7528125 -2.05859375 132.1328125 C-2.71859375 132.4628125 -3.37859375 132.7928125 -4.05859375 133.1328125 C-4.44854477 134.99773652 -4.44854477 134.99773652 -4.55859375 137.1328125 C-4.71484375 139.3203125 -4.71484375 139.3203125 -5.05859375 141.1328125 C-5.71859375 141.4628125 -6.37859375 141.7928125 -7.05859375 142.1328125 C-7.73798549 144.12852573 -8.40420934 146.12876023 -9.05859375 148.1328125 C-9.71859375 148.7928125 -10.37859375 149.4528125 -11.05859375 150.1328125 C-11.03796875 151.1021875 -11.01734375 152.0715625 -10.99609375 153.0703125 C-11.07037663 156.71017358 -11.59111221 156.76403022 -14.05859375 159.1328125 C-14.78551635 162.24120271 -14.78551635 162.24120271 -15.05859375 165.1328125 C-15.71859375 165.1328125 -16.37859375 165.1328125 -17.05859375 165.1328125 C-17.18234375 166.2465625 -17.30609375 167.3603125 -17.43359375 168.5078125 C-18.05859375 172.1328125 -18.05859375 172.1328125 -20.05859375 174.1328125 C-20.22359375 175.3084375 -20.38859375 176.4840625 -20.55859375 177.6953125 C-20.72359375 178.8296875 -20.88859375 179.9640625 -21.05859375 181.1328125 C-21.71859375 181.4628125 -22.37859375 181.7928125 -23.05859375 182.1328125 C-23.22359375 182.9578125 -23.38859375 183.7828125 -23.55859375 184.6328125 C-23.72359375 185.4578125 -23.88859375 186.2828125 -24.05859375 187.1328125 C-24.71859375 187.4628125 -25.37859375 187.7928125 -26.05859375 188.1328125 C-26.44854477 189.99773652 -26.44854477 189.99773652 -26.55859375 192.1328125 C-26.71484375 194.3203125 -26.71484375 194.3203125 -27.05859375 196.1328125 C-27.71859375 196.4628125 -28.37859375 196.7928125 -29.05859375 197.1328125 C-29.52382438 199.02814592 -29.52382438 199.02814592 -29.68359375 201.1953125 C-29.86921875 203.144375 -29.86921875 203.144375 -30.05859375 205.1328125 C-31.04859375 205.1328125 -32.03859375 205.1328125 -33.05859375 205.1328125 C-33.05859375 207.4428125 -33.05859375 209.7528125 -33.05859375 212.1328125 C-33.71859375 212.1328125 -34.37859375 212.1328125 -35.05859375 212.1328125 C-35.38859375 215.1028125 -35.71859375 218.0728125 -36.05859375 221.1328125 C-36.71859375 221.1328125 -37.37859375 221.1328125 -38.05859375 221.1328125 C-38.38859375 223.1128125 -38.71859375 225.0928125 -39.05859375 227.1328125 C-40.04859375 227.1328125 -41.03859375 227.1328125 -42.05859375 227.1328125 C-42.05859375 230.1028125 -42.05859375 233.0728125 -42.05859375 236.1328125 C-43.04859375 236.1328125 -44.03859375 236.1328125 -45.05859375 236.1328125 C-45.05859375 239.1028125 -45.05859375 242.0728125 -45.05859375 245.1328125 C-46.04859375 245.1328125 -47.03859375 245.1328125 -48.05859375 245.1328125 C-48.05859375 247.1128125 -48.05859375 249.0928125 -48.05859375 251.1328125 C-49.04859375 251.1328125 -50.03859375 251.1328125 -51.05859375 251.1328125 C-51.05859375 254.1028125 -51.05859375 257.0728125 -51.05859375 260.1328125 C-52.04859375 260.1328125 -53.03859375 260.1328125 -54.05859375 260.1328125 C-54.05859375 262.4428125 -54.05859375 264.7528125 -54.05859375 267.1328125 C-55.04859375 267.1328125 -56.03859375 267.1328125 -57.05859375 267.1328125 C-57.05859375 269.7728125 -57.05859375 272.4128125 -57.05859375 275.1328125 C-58.04859375 275.1328125 -59.03859375 275.1328125 -60.05859375 275.1328125 C-60.05859375 278.1028125 -60.05859375 281.0728125 -60.05859375 284.1328125 C-61.04859375 284.1328125 -62.03859375 284.1328125 -63.05859375 284.1328125 C-63.05859375 286.7728125 -63.05859375 289.4128125 -63.05859375 292.1328125 C-64.04859375 292.1328125 -65.03859375 292.1328125 -66.05859375 292.1328125 C-66.05859375 294.7728125 -66.05859375 297.4128125 -66.05859375 300.1328125 C-67.04859375 300.1328125 -68.03859375 300.1328125 -69.05859375 300.1328125 C-69.05859375 302.7728125 -69.05859375 305.4128125 -69.05859375 308.1328125 C-70.04859375 308.1328125 -71.03859375 308.1328125 -72.05859375 308.1328125 C-72.05859375 310.4428125 -72.05859375 312.7528125 -72.05859375 315.1328125 C-73.04859375 315.1328125 -74.03859375 315.1328125 -75.05859375 315.1328125 C-75.05859375 317.7728125 -75.05859375 320.4128125 -75.05859375 323.1328125 C-76.04859375 323.4628125 -77.03859375 323.7928125 -78.05859375 324.1328125 C-78.05859375 326.7728125 -78.05859375 329.4128125 -78.05859375 332.1328125 C-79.04859375 332.1328125 -80.03859375 332.1328125 -81.05859375 332.1328125 C-81.05859375 334.4428125 -81.05859375 336.7528125 -81.05859375 339.1328125 C-82.04859375 339.1328125 -83.03859375 339.1328125 -84.05859375 339.1328125 C-84.05859375 341.7728125 -84.05859375 344.4128125 -84.05859375 347.1328125 C-85.04859375 347.4628125 -86.03859375 347.7928125 -87.05859375 348.1328125 C-87.05859375 350.1128125 -87.05859375 352.0928125 -87.05859375 354.1328125 C-88.04859375 354.1328125 -89.03859375 354.1328125 -90.05859375 354.1328125 C-90.05859375 356.7728125 -90.05859375 359.4128125 -90.05859375 362.1328125 C-91.04859375 362.4628125 -92.03859375 362.7928125 -93.05859375 363.1328125 C-93.05859375 365.1128125 -93.05859375 367.0928125 -93.05859375 369.1328125 C-94.04859375 369.4628125 -95.03859375 369.7928125 -96.05859375 370.1328125 C-96.01734375 371.2465625 -95.97609375 372.3603125 -95.93359375 373.5078125 C-96.05859375 377.1328125 -96.05859375 377.1328125 -98.05859375 379.1328125 C-99.50057243 382.01676987 -99.64692956 384.95711729 -100.05859375 388.1328125 C-100.71859375 388.1328125 -101.37859375 388.1328125 -102.05859375 388.1328125 C-102.24421875 390.081875 -102.24421875 390.081875 -102.43359375 392.0703125 C-102.64453125 394.28515625 -102.64453125 394.28515625 -103.05859375 396.1328125 C-103.71859375 396.4628125 -104.37859375 396.7928125 -105.05859375 397.1328125 C-105.71631803 400.16215741 -105.71631803 400.16215741 -106.05859375 403.1328125 C-107.04859375 403.1328125 -108.03859375 403.1328125 -109.05859375 403.1328125 C-109.05859375 406.1028125 -109.05859375 409.0728125 -109.05859375 412.1328125 C-109.71859375 412.1328125 -110.37859375 412.1328125 -111.05859375 412.1328125 C-111.38859375 414.4428125 -111.71859375 416.7528125 -112.05859375 419.1328125 C-112.71859375 419.1328125 -113.37859375 419.1328125 -114.05859375 419.1328125 C-114.38859375 421.7728125 -114.71859375 424.4128125 -115.05859375 427.1328125 C-116.04859375 427.1328125 -117.03859375 427.1328125 -118.05859375 427.1328125 C-118.05859375 429.1128125 -118.05859375 431.0928125 -118.05859375 433.1328125 C-118.71859375 433.4628125 -119.37859375 433.7928125 -120.05859375 434.1328125 C-120.52510582 436.25858032 -120.52510582 436.25858032 -120.68359375 438.6953125 C-120.75835938 439.52160156 -120.833125 440.34789062 -120.91015625 441.19921875 C-120.95914063 441.83730469 -121.008125 442.47539063 -121.05859375 443.1328125 C-121.71859375 443.1328125 -122.37859375 443.1328125 -123.05859375 443.1328125 C-123.38859375 445.7728125 -123.71859375 448.4128125 -124.05859375 451.1328125 C-125.04859375 451.1328125 -126.03859375 451.1328125 -127.05859375 451.1328125 C-127.05859375 452.4528125 -127.05859375 453.7728125 -127.05859375 455.1328125 C-128.04859375 455.1328125 -129.03859375 455.1328125 -130.05859375 455.1328125 C-130.05859375 456.1228125 -130.05859375 457.1128125 -130.05859375 458.1328125 C-131.04859375 458.1328125 -132.03859375 458.1328125 -133.05859375 458.1328125 C-133.05859375 459.1228125 -133.05859375 460.1128125 -133.05859375 461.1328125 C-136.37855639 462.23946671 -138.87547974 462.26216106 -142.37109375 462.265625 C-143.61117187 462.26691406 -144.85125 462.26820313 -146.12890625 462.26953125 C-147.42570313 462.26566406 -148.7225 462.26179688 -150.05859375 462.2578125 C-151.35539063 462.26167969 -152.6521875 462.26554687 -153.98828125 462.26953125 C-155.22835937 462.26824219 -156.4684375 462.26695312 -157.74609375 462.265625 C-159.45345703 462.26393311 -159.45345703 462.26393311 -161.1953125 462.26220703 C-164.05859375 462.1328125 -164.05859375 462.1328125 -167.05859375 461.1328125 C-167.05859375 460.1428125 -167.05859375 459.1528125 -167.05859375 458.1328125 C-168.04859375 458.1328125 -169.03859375 458.1328125 -170.05859375 458.1328125 C-172.24609375 456.3203125 -172.24609375 456.3203125 -174.05859375 454.1328125 C-174.05859375 453.1428125 -174.05859375 452.1528125 -174.05859375 451.1328125 C-175.04859375 451.1328125 -176.03859375 451.1328125 -177.05859375 451.1328125 C-177.05859375 442.5528125 -177.05859375 433.9728125 -177.05859375 425.1328125 C-176.39859375 424.8028125 -175.73859375 424.4728125 -175.05859375 424.1328125 C-174.40086947 421.10346759 -174.40086947 421.10346759 -174.05859375 418.1328125 C-173.06859375 418.1328125 -172.07859375 418.1328125 -171.05859375 418.1328125 C-171.05859375 415.1628125 -171.05859375 412.1928125 -171.05859375 409.1328125 C-170.06859375 409.1328125 -169.07859375 409.1328125 -168.05859375 409.1328125 C-168.05859375 406.8228125 -168.05859375 404.5128125 -168.05859375 402.1328125 C-167.06859375 402.1328125 -166.07859375 402.1328125 -165.05859375 402.1328125 C-165.05859375 399.4928125 -165.05859375 396.8528125 -165.05859375 394.1328125 C-164.06859375 393.8028125 -163.07859375 393.4728125 -162.05859375 393.1328125 C-162.05859375 390.8228125 -162.05859375 388.5128125 -162.05859375 386.1328125 C-161.06859375 385.8028125 -160.07859375 385.4728125 -159.05859375 385.1328125 C-159.05859375 383.1528125 -159.05859375 381.1728125 -159.05859375 379.1328125 C-158.06859375 378.8028125 -157.07859375 378.4728125 -156.05859375 378.1328125 C-156.12046875 376.8746875 -156.18234375 375.6165625 -156.24609375 374.3203125 C-156.25997002 370.35169975 -156.25997002 370.35169975 -154.62109375 368.5703125 C-154.10546875 368.0959375 -153.58984375 367.6215625 -153.05859375 367.1328125 C-152.6971742 364.80366427 -152.3615985 362.47027772 -152.05859375 360.1328125 C-151.39859375 359.8028125 -150.73859375 359.4728125 -150.05859375 359.1328125 C-149.81109375 357.8953125 -149.81109375 357.8953125 -149.55859375 356.6328125 C-149.31109375 355.3953125 -149.31109375 355.3953125 -149.05859375 354.1328125 C-148.39859375 353.8028125 -147.73859375 353.4728125 -147.05859375 353.1328125 C-146.66864273 351.26788848 -146.66864273 351.26788848 -146.55859375 349.1328125 C-146.40234375 346.9453125 -146.40234375 346.9453125 -146.05859375 345.1328125 C-145.39859375 344.8028125 -144.73859375 344.4728125 -144.05859375 344.1328125 C-143.89359375 343.1428125 -143.72859375 342.1528125 -143.55859375 341.1328125 C-143.39359375 340.1428125 -143.22859375 339.1528125 -143.05859375 338.1328125 C-142.39859375 337.8028125 -141.73859375 337.4728125 -141.05859375 337.1328125 C-140.59336312 335.23747908 -140.59336312 335.23747908 -140.43359375 333.0703125 C-140.24796875 331.12125 -140.24796875 331.12125 -140.05859375 329.1328125 C-139.39859375 329.1328125 -138.73859375 329.1328125 -138.05859375 329.1328125 C-137.87296875 327.18375 -137.87296875 327.18375 -137.68359375 325.1953125 C-137.47265625 322.98046875 -137.47265625 322.98046875 -137.05859375 321.1328125 C-136.39859375 320.8028125 -135.73859375 320.4728125 -135.05859375 320.1328125 C-134.40086947 317.10346759 -134.40086947 317.10346759 -134.05859375 314.1328125 C-133.06859375 314.1328125 -132.07859375 314.1328125 -131.05859375 314.1328125 C-131.05859375 311.1628125 -131.05859375 308.1928125 -131.05859375 305.1328125 C-130.06859375 305.1328125 -129.07859375 305.1328125 -128.05859375 305.1328125 C-128.05859375 302.8228125 -128.05859375 300.5128125 -128.05859375 298.1328125 C-127.39859375 298.1328125 -126.73859375 298.1328125 -126.05859375 298.1328125 C-125.72859375 295.4928125 -125.39859375 292.8528125 -125.05859375 290.1328125 C-124.06859375 290.1328125 -123.07859375 290.1328125 -122.05859375 290.1328125 C-122.05859375 287.1628125 -122.05859375 284.1928125 -122.05859375 281.1328125 C-121.06859375 281.1328125 -120.07859375 281.1328125 -119.05859375 281.1328125 C-119.05859375 278.4928125 -119.05859375 275.8528125 -119.05859375 273.1328125 C-118.39859375 273.1328125 -117.73859375 273.1328125 -117.05859375 273.1328125 C-116.72859375 270.8228125 -116.39859375 268.5128125 -116.05859375 266.1328125 C-115.06859375 266.1328125 -114.07859375 266.1328125 -113.05859375 266.1328125 C-113.05859375 263.1628125 -113.05859375 260.1928125 -113.05859375 257.1328125 C-112.39859375 257.1328125 -111.73859375 257.1328125 -111.05859375 257.1328125 C-110.93484375 255.9984375 -110.81109375 254.8640625 -110.68359375 253.6953125 C-110.47734375 252.5196875 -110.27109375 251.3440625 -110.05859375 250.1328125 C-109.39859375 249.8028125 -108.73859375 249.4728125 -108.05859375 249.1328125 C-107.65130147 246.81124653 -107.31420698 244.4759338 -107.05859375 242.1328125 C-106.06859375 242.1328125 -105.07859375 242.1328125 -104.05859375 242.1328125 C-104.05859375 239.8228125 -104.05859375 237.5128125 -104.05859375 235.1328125 C-103.06859375 235.1328125 -102.07859375 235.1328125 -101.05859375 235.1328125 C-101.05859375 232.1628125 -101.05859375 229.1928125 -101.05859375 226.1328125 C-100.06859375 226.1328125 -99.07859375 226.1328125 -98.05859375 226.1328125 C-98.05859375 223.4928125 -98.05859375 220.8528125 -98.05859375 218.1328125 C-97.06859375 218.1328125 -96.07859375 218.1328125 -95.05859375 218.1328125 C-95.05859375 215.8228125 -95.05859375 213.5128125 -95.05859375 211.1328125 C-94.06859375 211.1328125 -93.07859375 211.1328125 -92.05859375 211.1328125 C-92.05859375 208.1628125 -92.05859375 205.1928125 -92.05859375 202.1328125 C-91.06859375 202.1328125 -90.07859375 202.1328125 -89.05859375 202.1328125 C-89.05859375 199.4928125 -89.05859375 196.8528125 -89.05859375 194.1328125 C-88.06859375 193.8028125 -87.07859375 193.4728125 -86.05859375 193.1328125 C-86.12046875 192.1840625 -86.18234375 191.2353125 -86.24609375 190.2578125 C-86.15328125 188.7109375 -86.15328125 188.7109375 -86.05859375 187.1328125 C-85.06859375 186.4728125 -84.07859375 185.8128125 -83.05859375 185.1328125 C-82.80837805 182.04915379 -82.80837805 182.04915379 -83.05859375 179.1328125 C-82.06859375 178.8028125 -81.07859375 178.4728125 -80.05859375 178.1328125 C-80.05859375 176.1528125 -80.05859375 174.1728125 -80.05859375 172.1328125 C-79.06859375 171.8028125 -78.07859375 171.4728125 -77.05859375 171.1328125 C-77.05859375 168.4928125 -77.05859375 165.8528125 -77.05859375 163.1328125 C-76.06859375 162.8028125 -75.07859375 162.4728125 -74.05859375 162.1328125 C-73.56359375 158.1728125 -73.56359375 158.1728125 -73.05859375 154.1328125 C-72.72859375 154.1328125 -72.39859375 154.1328125 -72.05859375 154.1328125 C-71.39859375 151.8228125 -70.73859375 149.5128125 -70.05859375 147.1328125 C-69.06859375 147.1328125 -68.07859375 147.1328125 -67.05859375 147.1328125 C-67.05859375 144.1628125 -67.05859375 141.1928125 -67.05859375 138.1328125 C-66.06859375 138.1328125 -65.07859375 138.1328125 -64.05859375 138.1328125 C-64.05859375 136.1528125 -64.05859375 134.1728125 -64.05859375 132.1328125 C-63.06859375 132.1328125 -62.07859375 132.1328125 -61.05859375 132.1328125 C-61.05859375 129.1628125 -61.05859375 126.1928125 -61.05859375 123.1328125 C-60.06859375 123.1328125 -59.07859375 123.1328125 -58.05859375 123.1328125 C-58.05859375 120.1628125 -58.05859375 117.1928125 -58.05859375 114.1328125 C-57.06859375 114.1328125 -56.07859375 114.1328125 -55.05859375 114.1328125 C-55.05859375 112.1528125 -55.05859375 110.1728125 -55.05859375 108.1328125 C-54.39859375 107.8028125 -53.73859375 107.4728125 -53.05859375 107.1328125 C-52.59336312 105.23747908 -52.59336312 105.23747908 -52.43359375 103.0703125 C-52.24796875 101.12125 -52.24796875 101.12125 -52.05859375 99.1328125 C-51.06859375 99.1328125 -50.07859375 99.1328125 -49.05859375 99.1328125 C-49.05859375 96.1628125 -49.05859375 93.1928125 -49.05859375 90.1328125 C-48.39859375 90.1328125 -47.73859375 90.1328125 -47.05859375 90.1328125 C-46.72859375 87.8228125 -46.39859375 85.5128125 -46.05859375 83.1328125 C-45.06859375 83.1328125 -44.07859375 83.1328125 -43.05859375 83.1328125 C-43.05859375 80.1628125 -43.05859375 77.1928125 -43.05859375 74.1328125 C-42.39859375 74.1328125 -41.73859375 74.1328125 -41.05859375 74.1328125 C-40.72859375 71.4928125 -40.39859375 68.8528125 -40.05859375 66.1328125 C-39.06859375 66.1328125 -38.07859375 66.1328125 -37.05859375 66.1328125 C-37.05859375 63.8228125 -37.05859375 61.5128125 -37.05859375 59.1328125 C-36.06859375 59.1328125 -35.07859375 59.1328125 -34.05859375 59.1328125 C-34.05859375 56.4928125 -34.05859375 53.8528125 -34.05859375 51.1328125 C-33.06859375 51.1328125 -32.07859375 51.1328125 -31.05859375 51.1328125 C-31.05859375 48.8228125 -31.05859375 46.5128125 -31.05859375 44.1328125 C-30.06859375 44.1328125 -29.07859375 44.1328125 -28.05859375 44.1328125 C-28.05859375 41.1628125 -28.05859375 38.1928125 -28.05859375 35.1328125 C-27.06859375 35.1328125 -26.07859375 35.1328125 -25.05859375 35.1328125 C-25.05859375 32.8228125 -25.05859375 30.5128125 -25.05859375 28.1328125 C-24.06859375 28.1328125 -23.07859375 28.1328125 -22.05859375 28.1328125 C-22.05859375 25.4928125 -22.05859375 22.8528125 -22.05859375 20.1328125 C-21.06859375 20.1328125 -20.07859375 20.1328125 -19.05859375 20.1328125 C-19.05859375 17.1628125 -19.05859375 14.1928125 -19.05859375 11.1328125 C-18.06859375 11.1328125 -17.07859375 11.1328125 -16.05859375 11.1328125 C-15.90390625 10.235625 -15.90390625 10.235625 -15.74609375 9.3203125 C-14.95355521 6.79859898 -14.14267966 5.73595551 -12.05859375 4.1328125 C-11.06859375 4.1328125 -10.07859375 4.1328125 -9.05859375 4.1328125 C-9.05859375 3.1428125 -9.05859375 2.1528125 -9.05859375 1.1328125 C-5.80861753 0.04948709 -3.41811867 0.00353712 0 0 Z " fill="#00ECAE" transform="translate(1133.05859375,358.8671875)"/>
<path d="M0 0 C1.06992188 0.01289063 2.13984375 0.02578125 3.2421875 0.0390625 C4.35335938 0.07257813 5.46453125 0.10609375 6.609375 0.140625 C7.73601562 0.15867187 8.86265625 0.17671875 10.0234375 0.1953125 C12.80294396 0.24242278 15.5807284 0.30819139 18.359375 0.390625 C18.359375 1.380625 18.359375 2.370625 18.359375 3.390625 C19.308125 3.32875 20.256875 3.266875 21.234375 3.203125 C22.265625 3.265 23.296875 3.326875 24.359375 3.390625 C25.019375 4.380625 25.679375 5.370625 26.359375 6.390625 C27.68531605 6.75224529 29.01875957 7.08790539 30.359375 7.390625 C30.854375 8.380625 30.854375 8.380625 31.359375 9.390625 C32.49375 9.514375 33.628125 9.638125 34.796875 9.765625 C35.9725 9.971875 37.148125 10.178125 38.359375 10.390625 C39.609375 12.390625 39.609375 12.390625 40.359375 14.390625 C41.349375 14.720625 42.339375 15.050625 43.359375 15.390625 C44.359375 16.390625 45.359375 17.390625 46.359375 18.390625 C47.844375 18.885625 47.844375 18.885625 49.359375 19.390625 C49.359375 20.050625 49.359375 20.710625 49.359375 21.390625 C51.339375 21.720625 53.319375 22.050625 55.359375 22.390625 C55.359375 23.050625 55.359375 23.710625 55.359375 24.390625 C57.339375 24.720625 59.319375 25.050625 61.359375 25.390625 C61.359375 26.050625 61.359375 26.710625 61.359375 27.390625 C62.844375 27.885625 62.844375 27.885625 64.359375 28.390625 C64.359375 29.380625 64.359375 30.370625 64.359375 31.390625 C66.339375 31.390625 68.319375 31.390625 70.359375 31.390625 C70.359375 32.380625 70.359375 33.370625 70.359375 34.390625 C71.349375 34.390625 72.339375 34.390625 73.359375 34.390625 C73.359375 35.380625 73.359375 36.370625 73.359375 37.390625 C75.339375 37.390625 77.319375 37.390625 79.359375 37.390625 C79.359375 38.380625 79.359375 39.370625 79.359375 40.390625 C81.339375 40.390625 83.319375 40.390625 85.359375 40.390625 C85.359375 41.050625 85.359375 41.710625 85.359375 42.390625 C86.844375 42.885625 86.844375 42.885625 88.359375 43.390625 C88.359375 44.380625 88.359375 45.370625 88.359375 46.390625 C90.339375 46.390625 92.319375 46.390625 94.359375 46.390625 C94.359375 47.380625 94.359375 48.370625 94.359375 49.390625 C96.339375 49.885625 96.339375 49.885625 98.359375 50.390625 C98.359375 50.720625 98.359375 51.050625 98.359375 51.390625 C100.009375 51.720625 101.659375 52.050625 103.359375 52.390625 C103.359375 53.380625 103.359375 54.370625 103.359375 55.390625 C105.339375 55.390625 107.319375 55.390625 109.359375 55.390625 C109.359375 56.380625 109.359375 57.370625 109.359375 58.390625 C110.349375 58.390625 111.339375 58.390625 112.359375 58.390625 C112.359375 59.380625 112.359375 60.370625 112.359375 61.390625 C114.339375 61.390625 116.319375 61.390625 118.359375 61.390625 C118.689375 62.050625 119.019375 62.710625 119.359375 63.390625 C121.88670735 64.04617619 121.88670735 64.04617619 124.359375 64.390625 C124.359375 65.380625 124.359375 66.370625 124.359375 67.390625 C125.679375 67.390625 126.999375 67.390625 128.359375 67.390625 C128.689375 68.050625 129.019375 68.710625 129.359375 69.390625 C131.00300634 70.11221924 132.66987886 70.78413921 134.359375 71.390625 C134.359375 72.050625 134.359375 72.710625 134.359375 73.390625 C135.679375 73.720625 136.999375 74.050625 138.359375 74.390625 C138.359375 75.050625 138.359375 75.710625 138.359375 76.390625 C140.009375 76.720625 141.659375 77.050625 143.359375 77.390625 C143.359375 78.050625 143.359375 78.710625 143.359375 79.390625 C144.08125 79.266875 144.803125 79.143125 145.546875 79.015625 C148.359375 79.390625 148.359375 79.390625 150.859375 82.140625 C151.26542969 82.68847656 151.67148438 83.23632812 152.08984375 83.80078125 C153.46226734 85.64649061 153.46226734 85.64649061 156.171875 87.578125 C156.89375 88.17625 157.615625 88.774375 158.359375 89.390625 C158.359375 90.380625 158.359375 91.370625 158.359375 92.390625 C159.349375 92.390625 160.339375 92.390625 161.359375 92.390625 C161.359375 94.370625 161.359375 96.350625 161.359375 98.390625 C162.349375 98.390625 163.339375 98.390625 164.359375 98.390625 C164.689375 100.370625 165.019375 102.350625 165.359375 104.390625 C166.019375 104.390625 166.679375 104.390625 167.359375 104.390625 C168.1006941 117.81169457 168.64021108 130.99110911 167.359375 144.390625 C166.369375 144.390625 165.379375 144.390625 164.359375 144.390625 C164.359375 146.370625 164.359375 148.350625 164.359375 150.390625 C163.699375 150.720625 163.039375 151.050625 162.359375 151.390625 C161.70382381 153.91795735 161.70382381 153.91795735 161.359375 156.390625 C160.369375 156.390625 159.379375 156.390625 158.359375 156.390625 C158.359375 157.380625 158.359375 158.370625 158.359375 159.390625 C156.71586043 160.75239422 155.04414844 162.08024566 153.359375 163.390625 C152.50652202 164.45865934 151.67322205 165.5425774 150.859375 166.640625 C148.359375 169.390625 148.359375 169.390625 145.546875 169.765625 C144.825 169.641875 144.103125 169.518125 143.359375 169.390625 C143.029375 170.380625 142.699375 171.370625 142.359375 172.390625 C141.039375 172.390625 139.719375 172.390625 138.359375 172.390625 C138.359375 173.380625 138.359375 174.370625 138.359375 175.390625 C137.039375 175.390625 135.719375 175.390625 134.359375 175.390625 C134.029375 176.380625 133.699375 177.370625 133.359375 178.390625 C132.039375 178.390625 130.719375 178.390625 129.359375 178.390625 C129.029375 179.380625 128.699375 180.370625 128.359375 181.390625 C127.039375 181.390625 125.719375 181.390625 124.359375 181.390625 C124.359375 182.380625 124.359375 183.370625 124.359375 184.390625 C122.379375 184.390625 120.399375 184.390625 118.359375 184.390625 C118.359375 185.380625 118.359375 186.370625 118.359375 187.390625 C116.379375 187.390625 114.399375 187.390625 112.359375 187.390625 C112.359375 188.380625 112.359375 189.370625 112.359375 190.390625 C111.369375 190.390625 110.379375 190.390625 109.359375 190.390625 C109.359375 191.380625 109.359375 192.370625 109.359375 193.390625 C107.379375 193.390625 105.399375 193.390625 103.359375 193.390625 C103.359375 194.380625 103.359375 195.370625 103.359375 196.390625 C102.369375 197.050625 101.379375 197.710625 100.359375 198.390625 C100.359375 198.720625 100.359375 199.050625 100.359375 199.390625 C98.379375 199.390625 96.399375 199.390625 94.359375 199.390625 C94.359375 200.380625 94.359375 201.370625 94.359375 202.390625 C92.379375 202.390625 90.399375 202.390625 88.359375 202.390625 C88.359375 203.380625 88.359375 204.370625 88.359375 205.390625 C87.369375 206.050625 86.379375 206.710625 85.359375 207.390625 C85.359375 207.720625 85.359375 208.050625 85.359375 208.390625 C83.379375 208.390625 81.399375 208.390625 79.359375 208.390625 C79.359375 209.380625 79.359375 210.370625 79.359375 211.390625 C77.379375 211.390625 75.399375 211.390625 73.359375 211.390625 C73.359375 212.380625 73.359375 213.370625 73.359375 214.390625 C72.369375 214.390625 71.379375 214.390625 70.359375 214.390625 C70.359375 215.380625 70.359375 216.370625 70.359375 217.390625 C68.379375 217.390625 66.399375 217.390625 64.359375 217.390625 C64.359375 218.380625 64.359375 219.370625 64.359375 220.390625 C63.369375 220.720625 62.379375 221.050625 61.359375 221.390625 C61.029375 222.050625 60.699375 222.710625 60.359375 223.390625 C57.796875 224.015625 57.796875 224.015625 55.359375 224.390625 C55.359375 225.050625 55.359375 225.710625 55.359375 226.390625 C53.379375 226.390625 51.399375 226.390625 49.359375 226.390625 C49.359375 227.380625 49.359375 228.370625 49.359375 229.390625 C48.369375 229.720625 47.379375 230.050625 46.359375 230.390625 C45.616875 231.133125 45.616875 231.133125 44.859375 231.890625 C43.359375 233.390625 43.359375 233.390625 40.359375 234.390625 C39.699375 235.050625 39.039375 235.710625 38.359375 236.390625 C37.369375 236.390625 36.379375 236.390625 35.359375 236.390625 C35.359375 237.050625 35.359375 237.710625 35.359375 238.390625 C34.740625 238.49375 34.121875 238.596875 33.484375 238.703125 C30.99411016 239.26587873 30.99411016 239.26587873 29.359375 242.390625 C28.039375 242.390625 26.719375 242.390625 25.359375 242.390625 C25.029375 243.380625 24.699375 244.370625 24.359375 245.390625 C23.039375 245.390625 21.719375 245.390625 20.359375 245.390625 C20.029375 246.380625 19.699375 247.370625 19.359375 248.390625 C15.2762808 248.50677429 11.19361123 248.57785957 7.109375 248.640625 C5.95050781 248.67414063 4.79164062 248.70765625 3.59765625 248.7421875 C2.48261719 248.75507812 1.36757812 248.76796875 0.21875 248.78125 C-0.80766602 248.80219727 -1.83408203 248.82314453 -2.89160156 248.84472656 C-6.36489831 248.27098483 -7.54190751 247.16926172 -9.640625 244.390625 C-9.640625 243.400625 -9.640625 242.410625 -9.640625 241.390625 C-10.630625 241.390625 -11.620625 241.390625 -12.640625 241.390625 C-14.7791735 239.2520765 -15.06717563 238.25787186 -15.640625 235.390625 C-16.630625 235.390625 -17.620625 235.390625 -18.640625 235.390625 C-18.970625 232.420625 -19.300625 229.450625 -19.640625 226.390625 C-20.300625 226.390625 -20.960625 226.390625 -21.640625 226.390625 C-21.640625 223.090625 -21.640625 219.790625 -21.640625 216.390625 C-20.980625 216.390625 -20.320625 216.390625 -19.640625 216.390625 C-19.310625 213.420625 -18.980625 210.450625 -18.640625 207.390625 C-17.650625 207.390625 -16.660625 207.390625 -15.640625 207.390625 C-15.640625 206.400625 -15.640625 205.410625 -15.640625 204.390625 C-14.650625 204.390625 -13.660625 204.390625 -12.640625 204.390625 C-12.516875 203.771875 -12.393125 203.153125 -12.265625 202.515625 C-11.640625 200.390625 -11.640625 200.390625 -9.640625 198.390625 C-8.650625 198.390625 -7.660625 198.390625 -6.640625 198.390625 C-6.640625 197.400625 -6.640625 196.410625 -6.640625 195.390625 C-4.660625 195.390625 -2.680625 195.390625 -0.640625 195.390625 C-0.640625 194.400625 -0.640625 193.410625 -0.640625 192.390625 C0.473125 191.9884375 0.473125 191.9884375 1.609375 191.578125 C4.23578861 190.44399185 6.18956188 189.23898433 8.359375 187.390625 C8.359375 187.060625 8.359375 186.730625 8.359375 186.390625 C10.339375 186.060625 12.319375 185.730625 14.359375 185.390625 C14.359375 184.730625 14.359375 184.070625 14.359375 183.390625 C15.349375 183.060625 16.339375 182.730625 17.359375 182.390625 C17.854375 181.875 18.349375 181.359375 18.859375 180.828125 C20.359375 179.390625 20.359375 179.390625 23.359375 179.390625 C24.96348746 178.03656639 24.96348746 178.03656639 26.359375 176.390625 C28.359375 174.390625 28.359375 174.390625 30.359375 173.953125 C32.74578238 173.51603792 32.74578238 173.51603792 34.359375 170.390625 C35.679375 170.390625 36.999375 170.390625 38.359375 170.390625 C39.184375 169.400625 40.009375 168.410625 40.859375 167.390625 C41.684375 166.400625 42.509375 165.410625 43.359375 164.390625 C44.679375 164.390625 45.999375 164.390625 47.359375 164.390625 C47.689375 163.400625 48.019375 162.410625 48.359375 161.390625 C49.679375 161.390625 50.999375 161.390625 52.359375 161.390625 C52.689375 160.400625 53.019375 159.410625 53.359375 158.390625 C54.679375 158.390625 55.999375 158.390625 57.359375 158.390625 C57.689375 157.400625 58.019375 156.410625 58.359375 155.390625 C60.009375 155.390625 61.659375 155.390625 63.359375 155.390625 C63.359375 154.400625 63.359375 153.410625 63.359375 152.390625 C64.679375 152.390625 65.999375 152.390625 67.359375 152.390625 C67.359375 151.400625 67.359375 150.410625 67.359375 149.390625 C69.009375 149.390625 70.659375 149.390625 72.359375 149.390625 C72.359375 148.400625 72.359375 147.410625 72.359375 146.390625 C74.339375 146.390625 76.319375 146.390625 78.359375 146.390625 C78.359375 145.400625 78.359375 144.410625 78.359375 143.390625 C79.679375 143.390625 80.999375 143.390625 82.359375 143.390625 C82.359375 142.400625 82.359375 141.410625 82.359375 140.390625 C84.009375 140.390625 85.659375 140.390625 87.359375 140.390625 C87.359375 139.400625 87.359375 138.410625 87.359375 137.390625 C89.009375 137.390625 90.659375 137.390625 92.359375 137.390625 C92.359375 136.400625 92.359375 135.410625 92.359375 134.390625 C94.009375 134.390625 95.659375 134.390625 97.359375 134.390625 C97.359375 133.400625 97.359375 132.410625 97.359375 131.390625 C98.16375 131.266875 98.968125 131.143125 99.796875 131.015625 C100.6425 130.809375 101.488125 130.603125 102.359375 130.390625 C102.689375 129.730625 103.019375 129.070625 103.359375 128.390625 C104.349375 127.730625 105.339375 127.070625 106.359375 126.390625 C106.359375 126.060625 106.359375 125.730625 106.359375 125.390625 C108.339375 125.390625 110.319375 125.390625 112.359375 125.390625 C112.359375 124.730625 112.359375 124.070625 112.359375 123.390625 C110.379375 123.390625 108.399375 123.390625 106.359375 123.390625 C106.359375 122.730625 106.359375 122.070625 106.359375 121.390625 C104.874375 120.895625 104.874375 120.895625 103.359375 120.390625 C103.029375 119.730625 102.699375 119.070625 102.359375 118.390625 C99.83204265 117.73507381 99.83204265 117.73507381 97.359375 117.390625 C97.359375 116.400625 97.359375 115.410625 97.359375 114.390625 C96.039375 114.390625 94.719375 114.390625 93.359375 114.390625 C93.359375 113.400625 93.359375 112.410625 93.359375 111.390625 C91.379375 111.390625 89.399375 111.390625 87.359375 111.390625 C87.359375 110.400625 87.359375 109.410625 87.359375 108.390625 C85.709375 108.390625 84.059375 108.390625 82.359375 108.390625 C82.359375 107.400625 82.359375 106.410625 82.359375 105.390625 C81.039375 105.390625 79.719375 105.390625 78.359375 105.390625 C78.359375 104.400625 78.359375 103.410625 78.359375 102.390625 C76.379375 102.390625 74.399375 102.390625 72.359375 102.390625 C72.359375 101.400625 72.359375 100.410625 72.359375 99.390625 C71.039375 99.390625 69.719375 99.390625 68.359375 99.390625 C68.359375 98.400625 68.359375 97.410625 68.359375 96.390625 C66.709375 96.390625 65.059375 96.390625 63.359375 96.390625 C63.359375 95.400625 63.359375 94.410625 63.359375 93.390625 C61.709375 93.390625 60.059375 93.390625 58.359375 93.390625 C58.029375 92.400625 57.699375 91.410625 57.359375 90.390625 C56.616875 90.266875 55.874375 90.143125 55.109375 90.015625 C50.72269889 89.01865316 48.89276859 88.19071538 46.359375 84.390625 C45.76125 84.266875 45.163125 84.143125 44.546875 84.015625 C41.31506838 83.09225168 39.70462379 80.73587379 37.359375 78.390625 C35.21203573 77.68547654 35.21203573 77.68547654 33.359375 77.390625 C33.029375 76.730625 32.699375 76.070625 32.359375 75.390625 C30.33474245 74.73849208 30.33474245 74.73849208 28.359375 74.390625 C28.359375 73.730625 28.359375 73.070625 28.359375 72.390625 C27.4003125 72.205 27.4003125 72.205 26.421875 72.015625 C25.74125 71.809375 25.060625 71.603125 24.359375 71.390625 C24.029375 70.730625 23.699375 70.070625 23.359375 69.390625 C22.534375 69.225625 21.709375 69.060625 20.859375 68.890625 C20.034375 68.725625 19.209375 68.560625 18.359375 68.390625 C18.029375 67.730625 17.699375 67.070625 17.359375 66.390625 C16.369375 65.730625 15.379375 65.070625 14.359375 64.390625 C14.359375 64.060625 14.359375 63.730625 14.359375 63.390625 C11.389375 62.895625 11.389375 62.895625 8.359375 62.390625 C8.359375 61.730625 8.359375 61.070625 8.359375 60.390625 C7.1528125 60.205 7.1528125 60.205 5.921875 60.015625 C5.07625 59.809375 4.230625 59.603125 3.359375 59.390625 C3.029375 58.730625 2.699375 58.070625 2.359375 57.390625 C0.874375 56.895625 0.874375 56.895625 -0.640625 56.390625 C-0.640625 55.400625 -0.640625 54.410625 -0.640625 53.390625 C-2.620625 53.390625 -4.600625 53.390625 -6.640625 53.390625 C-6.640625 52.400625 -6.640625 51.410625 -6.640625 50.390625 C-7.630625 50.390625 -8.620625 50.390625 -9.640625 50.390625 C-9.640625 49.400625 -9.640625 48.410625 -9.640625 47.390625 C-10.630625 47.390625 -11.620625 47.390625 -12.640625 47.390625 C-12.640625 46.400625 -12.640625 45.410625 -12.640625 44.390625 C-13.630625 44.390625 -14.620625 44.390625 -15.640625 44.390625 C-15.640625 43.400625 -15.640625 42.410625 -15.640625 41.390625 C-16.630625 41.390625 -17.620625 41.390625 -18.640625 41.390625 C-18.71410156 40.43349609 -18.71410156 40.43349609 -18.7890625 39.45703125 C-18.90121094 38.21759766 -18.90121094 38.21759766 -19.015625 36.953125 C-19.08523438 36.12941406 -19.15484375 35.30570312 -19.2265625 34.45703125 C-19.36320312 33.77511719 -19.49984375 33.09320313 -19.640625 32.390625 C-20.300625 32.060625 -20.960625 31.730625 -21.640625 31.390625 C-21.640625 28.750625 -21.640625 26.110625 -21.640625 23.390625 C-20.980625 23.060625 -20.320625 22.730625 -19.640625 22.390625 C-19.17411293 20.26485718 -19.17411293 20.26485718 -19.015625 17.828125 C-18.94085937 17.00183594 -18.86609375 16.17554688 -18.7890625 15.32421875 C-18.74007813 14.68613281 -18.69109375 14.04804688 -18.640625 13.390625 C-17.650625 13.390625 -16.660625 13.390625 -15.640625 13.390625 C-15.455 12.4625 -15.455 12.4625 -15.265625 11.515625 C-14.640625 9.390625 -14.640625 9.390625 -12.640625 7.390625 C-11.650625 7.390625 -10.660625 7.390625 -9.640625 7.390625 C-9.640625 6.400625 -9.640625 5.410625 -9.640625 4.390625 C-6.72214867 0.55871921 -4.73675758 -0.10078208 0 0 Z " fill="#00ECAE" transform="translate(1181.640625,465.609375)"/>
<path d="M0 0 C3.89526499 -0.1746354 7.7895219 -0.28096492 11.6875 -0.375 C12.79029297 -0.42527344 13.89308594 -0.47554688 15.02929688 -0.52734375 C23.08939068 -0.67344817 23.08939068 -0.67344817 25.78857422 1.32275391 C27.09765625 2.953125 27.09765625 2.953125 29 6 C30.66140763 6.67966676 32.32700041 7.34938905 34 8 C34.625 10 34.625 10 35 12 C35.99 12.66 36.98 13.32 38 14 C38.29296875 16.1640625 38.29296875 16.1640625 38.1875 18.625 C38.14689453 19.85089844 38.14689453 19.85089844 38.10546875 21.1015625 C38.07066406 21.72804688 38.03585937 22.35453125 38 23 C38.99 23.33 39.98 23.66 41 24 C41 25.98 41 27.96 41 30 C40.01 30.33 39.02 30.66 38 31 C38 33.97 38 36.94 38 40 C36.68 40.33 35.36 40.66 34 41 C34.0309375 42.2065625 34.0309375 42.2065625 34.0625 43.4375 C34 46 34 46 33 47 C31.33382885 47.04063832 29.66611905 47.042721 28 47 C28 47.99 28 48.98 28 50 C27.01 50 26.02 50 25 50 C25 50.99 25 51.98 25 53 C23.02 53 21.04 53 19 53 C19 53.99 19 54.98 19 56 C18.01 56 17.02 56 16 56 C16 56.99 16 57.98 16 59 C14.02 59 12.04 59 10 59 C10 59.99 10 60.98 10 62 C8.68 62.66 7.36 63.32 6 64 C6 64.33 6 64.66 6 65 C4.35 65 2.7 65 1 65 C1 65.99 1 66.98 1 68 C-2.75 69.125 -2.75 69.125 -5 68 C-5 68.99 -5 69.98 -5 71 C-6.98 71.99 -6.98 71.99 -9 73 C-9 73.33 -9 73.66 -9 74 C-11.475 74.495 -11.475 74.495 -14 75 C-14.33 75.99 -14.66 76.98 -15 78 C-16.65 78 -18.3 78 -20 78 C-20 78.66 -20 79.32 -20 80 C-20.639375 80.103125 -21.27875 80.20625 -21.9375 80.3125 C-22.618125 80.539375 -23.29875 80.76625 -24 81 C-24.495 82.485 -24.495 82.485 -25 84 C-26.32 84 -27.64 84 -29 84 C-29.495 85.485 -29.495 85.485 -30 87 C-31.65 87 -33.3 87 -35 87 C-35 87.99 -35 88.98 -35 90 C-36.0625 91.6875 -36.0625 91.6875 -38 93 C-41.6875 93.1875 -41.6875 93.1875 -45 93 C-45 93.99 -45 94.98 -45 96 C-46.32 96 -47.64 96 -49 96 C-49 96.99 -49 97.98 -49 99 C-50.65 99 -52.3 99 -54 99 C-54 99.99 -54 100.98 -54 102 C-55.98 102 -57.96 102 -60 102 C-60 102.99 -60 103.98 -60 105 C-61.485 105.495 -61.485 105.495 -63 106 C-63.33 106.66 -63.66 107.32 -64 108 C-65.65 108 -67.3 108 -69 108 C-69 108.99 -69 109.98 -69 111 C-70.65 111 -72.3 111 -74 111 C-74 111.99 -74 112.98 -74 114 C-75.98 114.99 -75.98 114.99 -78 116 C-78 116.33 -78 116.66 -78 117 C-79.98 117 -81.96 117 -84 117 C-84 117.99 -84 118.98 -84 120 C-85.32 120 -86.64 120 -88 120 C-88 120.99 -88 121.98 -88 123 C-89.65 123 -91.3 123 -93 123 C-93 123.66 -93 124.32 -93 125 C-91.35 125 -89.7 125 -88 125 C-88 125.99 -88 126.98 -88 128 C-86.68 128 -85.36 128 -84 128 C-84 128.99 -84 129.98 -84 131 C-82.02 131 -80.04 131 -78 131 C-78 131.99 -78 132.98 -78 134 C-77.01 134 -76.02 134 -75 134 C-75 134.99 -75 135.98 -75 137 C-73.02 137 -71.04 137 -69 137 C-69 137.99 -69 138.98 -69 140 C-67.02 140 -65.04 140 -63 140 C-63 140.99 -63 141.98 -63 143 C-62.01 143 -61.02 143 -60 143 C-60 143.99 -60 144.98 -60 146 C-58.02 146 -56.04 146 -54 146 C-54 146.99 -54 147.98 -54 149 C-52.35 149 -50.7 149 -49 149 C-48.67 149.66 -48.34 150.32 -48 151 C-47.01 151.33 -46.02 151.66 -45 152 C-45 152.99 -45 153.98 -45 155 C-43.02 155 -41.04 155 -39 155 C-39 155.99 -39 156.98 -39 158 C-38.01 158 -37.02 158 -36 158 C-36 158.99 -36 159.98 -36 161 C-35.05125 160.938125 -34.1025 160.87625 -33.125 160.8125 C-32.09375 160.874375 -31.0625 160.93625 -30 161 C-29.34 161.99 -28.68 162.98 -28 164 C-25.94074861 164.72382467 -25.94074861 164.72382467 -24 165 C-24 165.66 -24 166.32 -24 167 C-23.360625 167.309375 -22.72125 167.61875 -22.0625 167.9375 C-20 169 -20 169 -19 170 C-17.33985384 170.36442233 -15.67293936 170.69972883 -14 171 C-14 171.99 -14 172.98 -14 174 C-12.68 174 -11.36 174 -10 174 C-10 174.66 -10 175.32 -10 176 C-8.35 176.33 -6.7 176.66 -5 177 C-5 177.99 -5 178.98 -5 180 C-3.02 180 -1.04 180 1 180 C1 180.66 1 181.32 1 182 C2.2065625 182.185625 2.2065625 182.185625 3.4375 182.375 C4.283125 182.58125 5.12875 182.7875 6 183 C6.33 183.66 6.66 184.32 7 185 C7.99 185.33 8.98 185.66 10 186 C10 186.99 10 187.98 10 189 C11.98 189 13.96 189 16 189 C16 189.66 16 190.32 16 191 C16.99 191.33 17.98 191.66 19 192 C19 192.99 19 193.98 19 195 C20.98 195 22.96 195 25 195 C25 195.99 25 196.98 25 198 C25.99 198 26.98 198 28 198 C28 198.99 28 199.98 28 201 C28.99 201 29.98 201 31 201 C31 201.99 31 202.98 31 204 C31.99 204 32.98 204 34 204 C34 204.99 34 205.98 34 207 C35.32 207.33 36.64 207.66 38 208 C38.17449702 212.22864445 38.28092495 216.45636251 38.375 220.6875 C38.42527344 221.88568359 38.47554687 223.08386719 38.52734375 224.31835938 C38.67352783 233.06504028 38.67352783 233.06504028 36.67285156 235.84228516 C35.0390625 237.14453125 35.0390625 237.14453125 32 239 C31.67 239.99 31.34 240.98 31 242 C29.6875 243.6875 29.6875 243.6875 28 245 C26.68 245 25.36 245 24 245 C24 245.99 24 246.98 24 248 C16.08 248 8.16 248 0 248 C0 247.01 0 246.02 0 245 C-0.763125 245.061875 -1.52625 245.12375 -2.3125 245.1875 C-5.53016907 244.96301146 -5.89962531 244.28301597 -8 242 C-9.32594105 241.63837971 -10.65938457 241.30271961 -12 241 C-12.66 240.34 -13.32 239.68 -14 239 C-15.17228009 238.30691986 -16.36143463 237.6419055 -17.5625 237 C-21 235 -21 235 -22 233 C-23.1446875 232.8453125 -23.1446875 232.8453125 -24.3125 232.6875 C-27.89892079 231.77004352 -28.7320566 229.83492925 -31 227 C-33.60611077 226.27802838 -33.60611077 226.27802838 -36 226 C-36.33 225.34 -36.66 224.68 -37 224 C-39.52733235 223.34444881 -39.52733235 223.34444881 -42 223 C-42 222.34 -42 221.68 -42 221 C-43.98 220.01 -43.98 220.01 -46 219 C-46 218.67 -46 218.34 -46 218 C-46.804375 217.87625 -47.60875 217.7525 -48.4375 217.625 C-49.283125 217.41875 -50.12875 217.2125 -51 217 C-51.33 216.34 -51.66 215.68 -52 215 C-54.86926731 213.36041868 -57.92415918 212.19616032 -61 211 C-61 210.01 -61 209.02 -61 208 C-62.65 208 -64.3 208 -66 208 C-66 207.34 -66 206.68 -66 206 C-67.32 205.67 -68.64 205.34 -70 205 C-70 204.01 -70 203.02 -70 202 C-71.98 202 -73.96 202 -76 202 C-76 201.01 -76 200.02 -76 199 C-76.99 199 -77.98 199 -79 199 C-79 198.01 -79 197.02 -79 196 C-80.98 196 -82.96 196 -85 196 C-85 195.01 -85 194.02 -85 193 C-86.98 193 -88.96 193 -91 193 C-91 192.01 -91 191.02 -91 190 C-91.99 190 -92.98 190 -94 190 C-94 189.01 -94 188.02 -94 187 C-95.98 187 -97.96 187 -100 187 C-100 186.01 -100 185.02 -100 184 C-101.98 184 -103.96 184 -106 184 C-106 183.01 -106 182.02 -106 181 C-106.99 181 -107.98 181 -109 181 C-109 180.01 -109 179.02 -109 178 C-110.98 178 -112.96 178 -115 178 C-115 177.01 -115 176.02 -115 175 C-116.32 174.67 -117.64 174.34 -119 174 C-119 173.34 -119 172.68 -119 172 C-119.78375 172.061875 -120.5675 172.12375 -121.375 172.1875 C-122.24125 172.125625 -123.1075 172.06375 -124 172 C-124.66 171.01 -125.32 170.02 -126 169 C-128.05925139 168.27617533 -128.05925139 168.27617533 -130 168 C-130 167.34 -130 166.68 -130 166 C-131.32 165.67 -132.64 165.34 -134 165 C-134 164.01 -134 163.02 -134 162 C-134.99 162 -135.98 162 -137 162 C-137 161.01 -137 160.02 -137 159 C-137.99 159 -138.98 159 -140 159 C-140 158.01 -140 157.02 -140 156 C-140.99 156 -141.98 156 -143 156 C-143 154.02 -143 152.04 -143 150 C-143.99 150 -144.98 150 -146 150 C-147.02998073 144.91044277 -147.14548542 140.04100989 -147.1328125 134.875 C-147.13376923 134.00987793 -147.13472595 133.14475586 -147.13571167 132.25341797 C-147.13638966 130.43131436 -147.13456205 128.60920829 -147.13037109 126.78710938 C-147.12501746 124.00905903 -147.13032905 121.23117035 -147.13671875 118.453125 C-147.1360579 116.67708298 -147.1347766 114.90104106 -147.1328125 113.125 C-147.13483673 112.29983887 -147.13686096 111.47467773 -147.13894653 110.62451172 C-147.12150886 106.30398108 -146.86109552 102.25502611 -146 98 C-145.01 98 -144.02 98 -143 98 C-143 96.02 -143 94.04 -143 92 C-142.01 92 -141.02 92 -140 92 C-140 91.01 -140 90.02 -140 89 C-139.01 89 -138.02 89 -137 89 C-137 88.01 -137 87.02 -137 86 C-136.01 86 -135.02 86 -134 86 C-134 85.01 -134 84.02 -134 83 C-132.02 82.505 -132.02 82.505 -130 82 C-130 81.01 -130 80.02 -130 79 C-128.02 79 -126.04 79 -124 79 C-124 78.01 -124 77.02 -124 76 C-122.35 76 -120.7 76 -119 76 C-118.505 74.515 -118.505 74.515 -118 73 C-117.01 73 -116.02 73 -115 73 C-115 72.01 -115 71.02 -115 70 C-113.02 70 -111.04 70 -109 70 C-109 69.01 -109 68.02 -109 67 C-107.68 67 -106.36 67 -105 67 C-105 66.01 -105 65.02 -105 64 C-103.35 64 -101.7 64 -100 64 C-100 63.01 -100 62.02 -100 61 C-98.02 61 -96.04 61 -94 61 C-94 60.01 -94 59.02 -94 58 C-93.01 57.34 -92.02 56.68 -91 56 C-91 55.67 -91 55.34 -91 55 C-89.02 55 -87.04 55 -85 55 C-85 54.01 -85 53.02 -85 52 C-83.35 52 -81.7 52 -80 52 C-80 51.01 -80 50.02 -80 49 C-78.68 49 -77.36 49 -76 49 C-76 48.01 -76 47.02 -76 46 C-74.02 46 -72.04 46 -70 46 C-70 45.01 -70 44.02 -70 43 C-69.360625 42.87625 -68.72125 42.7525 -68.0625 42.625 C-67.381875 42.41875 -66.70125 42.2125 -66 42 C-65.505 41.01 -65.505 41.01 -65 40 C-63.68 40 -62.36 40 -61 40 C-61 39.01 -61 38.02 -61 37 C-59.02 36.67 -57.04 36.34 -55 36 C-55 35.34 -55 34.68 -55 34 C-54.01 33.34 -53.02 32.68 -52 32 C-52 31.67 -52 31.34 -52 31 C-50.02 30.67 -48.04 30.34 -46 30 C-46 29.34 -46 28.68 -46 28 C-45.360625 27.87625 -44.72125 27.7525 -44.0625 27.625 C-43.381875 27.41875 -42.70125 27.2125 -42 27 C-41.67 26.34 -41.34 25.68 -41 25 C-39.66666667 24.66666667 -38.33333333 24.33333333 -37 24 C-36.67 23.34 -36.34 22.68 -36 22 C-35.236875 21.896875 -34.47375 21.79375 -33.6875 21.6875 C-30.77187478 21.22878497 -30.77187478 21.22878497 -29 18.5 C-26.63453929 15.54317411 -25.59685761 15.56792489 -22 15 C-21.34 14.01 -20.68 13.02 -20 12 C-18.68 12 -17.36 12 -16 12 C-16 11.34 -16 10.68 -16 10 C-15.01 9.67 -14.02 9.34 -13 9 C-12.34 8.01 -11.68 7.02 -11 6 C-9.68 6 -8.36 6 -7 6 C-6.34 5.01 -5.68 4.02 -5 3 C-2.375 2.8125 -2.375 2.8125 0 3 C0 2.01 0 1.02 0 0 Z " fill="#00ECAE" transform="translate(923,466)"/>
<path d="M0 0 C5.51237348 3.1499277 9.71762278 6.31377305 11.625 12.60546875 C13.01409778 19.41452842 12.54851855 25.6775806 9.0625 31.75 C3.95331436 38.76170521 -2.84814499 44.42532029 -9.25 50.21972656 C-11.38291904 52.15391877 -13.50151667 54.10337822 -15.62011719 56.05322266 C-20.47870333 60.52242828 -25.37028822 64.95345869 -30.296875 69.34765625 C-32.29430532 71.16484507 -34.25537462 73.00195466 -36.203125 74.87109375 C-37.0540271 75.67945679 -37.0540271 75.67945679 -37.92211914 76.50415039 C-39.02518549 77.55407978 -40.12123884 78.61144717 -41.20874023 79.67749023 C-46.38643831 84.58169254 -51.66846531 87.18299762 -58.9375 87.125 C-65.57603109 86.93438051 -69.56992589 85.7947231 -74.6875 81.375 C-79.12038512 76.20330069 -80.59388662 72.25485644 -81.25 65.5625 C-80.51069827 56.54301884 -76.68425585 50.52098538 -69.9375 44.75 C-69.37546875 44.25757813 -68.8134375 43.76515625 -68.234375 43.2578125 C-66.97289819 42.15539146 -65.70685969 41.05817895 -64.4375 39.96484375 C-61.0431861 36.95769378 -57.74410214 33.85297569 -54.4375 30.75 C-50.07669645 26.65989259 -45.70555318 22.61134361 -41.15625 18.73046875 C-39.19502178 16.97986539 -37.29875879 15.18728517 -35.40625 13.36328125 C-34.42978516 12.42935547 -34.42978516 12.42935547 -33.43359375 11.4765625 C-32.13690634 10.23316361 -30.84738089 8.98223674 -29.56640625 7.72265625 C-21.24478497 -0.22950616 -11.44788639 -4.52416471 0 0 Z " fill="#00ECAE" transform="translate(701.9375,729.25)"/>
<path d="M0 0 C5.4017878 5.02048513 10.27697706 10.56894299 15.1875 16.0625 C16.66641839 17.70855643 18.14557061 19.35440282 19.625 21 C20.34558594 21.80308594 21.06617188 22.60617187 21.80859375 23.43359375 C24.58027426 26.49655103 27.38178205 29.53075609 30.1875 32.5625 C32.18839475 34.72834192 34.18809194 36.8952857 36.1875 39.0625 C37.46947266 40.45082031 37.46947266 40.45082031 38.77734375 41.8671875 C40.94504493 44.24047764 43.07800523 46.63744556 45.1875 49.0625 C45.97640625 49.94615234 45.97640625 49.94615234 46.78125 50.84765625 C50.69372405 55.65863452 51.98433597 60.90832282 52.1875 67.0625 C51.30969948 73.91532908 48.58107458 79.65958198 43.1875 84.0625 C37.62613535 87.41127871 31.53351252 87.80234711 25.1875 87.0625 C13.77063486 83.71617746 5.87899577 72.60420573 -1.8125 64.0625 C-2.97458984 62.77279297 -2.97458984 62.77279297 -4.16015625 61.45703125 C-5.59757646 59.85786866 -7.03377092 58.25760346 -8.46875 56.65625 C-11.22718901 53.6035775 -14.01785852 50.58199265 -16.8125 47.5625 C-18.33255077 45.91698243 -19.85205488 44.27096344 -21.37109375 42.62451172 C-22.72576603 41.15649119 -24.08159367 39.68953705 -25.4375 38.22265625 C-32.87178197 30.09141035 -37.10106428 24.79059666 -36.96875 13.52734375 C-36.77086112 10.40564667 -36.07551128 7.92089395 -34.8125 5.0625 C-34.44125 4.216875 -34.07 3.37125 -33.6875 2.5 C-30.51572832 -1.62330318 -26.18895666 -4.18398935 -21.25 -5.75 C-12.75548609 -6.40342415 -6.63149063 -5.54879829 0 0 Z " fill="#00ECAE" transform="translate(638.8125,337.9375)"/>
<path d="M0 0 C1.1227684 -0.0098568 1.1227684 -0.0098568 2.26821899 -0.01991272 C4.74033722 -0.0395897 7.21239484 -0.05129613 9.68457031 -0.0612793 C10.53145668 -0.06535482 11.37834305 -0.06943035 12.25089264 -0.07362938 C16.73399103 -0.09446682 21.21705902 -0.10877826 25.70019531 -0.11816406 C30.31804186 -0.12922028 34.93540547 -0.16361758 39.55308151 -0.20333576 C43.11514144 -0.22954619 46.67708706 -0.23785984 50.23923492 -0.24144554 C51.94080108 -0.2463005 53.64236251 -0.25788327 55.34383392 -0.27648354 C73.14040366 -0.45893312 73.14040366 -0.45893312 80.53613281 5.9230957 C81.20515625 6.7603418 81.20515625 6.7603418 81.88769531 7.61450195 C82.57992187 8.44788086 82.57992187 8.44788086 83.28613281 9.2980957 C86.99845618 14.98480761 87.24581789 20.56961869 86.51269531 27.17700195 C84.74645843 33.3535429 80.83932522 37.69974251 75.51269531 41.17700195 C71.31502714 43.25388127 67.49376854 43.46792352 62.89599609 43.45166016 C62.14573151 43.45677109 61.39546692 43.46188202 60.62246704 43.46714783 C58.15089868 43.48100786 55.67961034 43.48008963 53.20800781 43.4777832 C51.48314308 43.48167243 49.7582793 43.48600756 48.03341675 43.49076843 C44.42052098 43.49822316 40.80772293 43.49794503 37.19482422 43.49267578 C32.57584869 43.48688555 27.95727473 43.50380486 23.33836555 43.52702045 C19.77633341 43.5417877 16.21439727 43.54262537 12.65233994 43.53951073 C10.94997234 43.54002255 9.24759917 43.54523408 7.54526138 43.55532265 C5.15930728 43.56772649 2.77412629 43.56087204 0.38818359 43.54931641 C-0.65631958 43.56078201 -0.65631958 43.56078201 -1.72192383 43.57247925 C-8.74606185 43.49768126 -14.42575824 41.10174984 -19.48730469 36.17700195 C-23.6139365 30.23020594 -24.96704757 25.37314515 -24.48730469 18.17700195 C-22.79349894 11.62595915 -19.95737288 7.02955309 -14.48730469 2.92700195 C-9.6653541 0.11419744 -5.50103975 0.02105865 0 0 Z " fill="#00ECAE" transform="translate(536.4873046875,549.822998046875)"/>
</svg>
