<svg xmlns="http://www.w3.org/2000/svg" width="780" height="1000" viewBox="0 0 780 1000" version="1.1"><path d="M 66.639 5.716 C 52.756 10.618, 50.543 11.702, 48.893 14.408 C 47.086 17.372, 47.007 20.957, 47.004 100.964 L 47 184.428 30.083 201.464 C 16.108 215.536, 13.071 219.109, 12.621 222 C 12.321 223.925, 9.307 286.700, 5.922 361.500 C 0.974 470.861, -0.123 501.613, 0.324 518.500 C 1.065 546.477, 4.949 572.792, 11.844 596.533 C 13.436 602.015, 28.782 649.925, 45.947 703 C 80.902 811.083, 77.124 801.770, 95.171 824.346 C 114.229 848.186, 136.677 869.753, 162.500 889.032 C 182.768 904.163, 191.574 909.466, 207.617 916.198 C 220.938 921.787, 224.374 923.785, 240.348 935.222 L 258.196 948 272.981 948 L 287.765 948 292.133 954.714 C 305.014 974.517, 327.480 989.660, 354.367 996.664 C 366.579 999.845, 391.118 1001.031, 403.845 999.055 C 436.383 994.003, 462.346 978.246, 478.493 953.750 L 482.283 948 497.044 948 L 511.804 948 529.652 935.222 C 545.626 923.785, 549.062 921.787, 562.383 916.198 C 578.025 909.634, 587.054 904.253, 606 890.202 C 631.328 871.419, 655.738 848.202, 673.501 826 C 693.129 801.467, 688.857 811.883, 724.389 701.904 C 741.731 648.226, 757.069 600.343, 758.473 595.497 C 765.103 572.617, 768.962 545.915, 769.674 518 C 770.116 500.627, 769.041 470.487, 764.075 361 C 760.695 286.475, 757.683 223.925, 757.382 222 C 756.930 219.111, 753.885 215.530, 739.934 201.481 L 723.034 184.462 722.767 99.758 C 722.505 16.567, 722.464 15.020, 720.500 13.067 C 717.696 10.278, 687.892 0, 682.611 0 C 679.189 0, 677.810 0.589, 675.437 3.065 L 672.500 6.131 672 137.315 C 671.592 244.425, 671.269 267.871, 670.240 265.071 C 669.546 263.185, 666.059 256.779, 662.490 250.835 L 656 240.027 656 212.190 C 656 181.089, 654.936 171.661, 649.769 157 C 646.054 146.459, 643.066 140.500, 636.950 131.431 C 629.544 120.448, 622.460 113.177, 618.429 112.421 C 616.543 112.067, 614.987 111.715, 614.970 111.639 C 614.954 111.562, 614.321 105.137, 613.564 97.360 C 612.807 89.583, 611.677 82.265, 611.052 81.098 C 609.477 78.155, 596.866 68.339, 582 58.485 C 534.907 27.270, 482.546 8.784, 421.500 1.820 C 407.140 0.182, 362.720 0.211, 348 1.867 C 280.760 9.435, 221.051 32.596, 170.934 70.550 C 165.468 74.689, 160.326 79.099, 159.507 80.349 C 158.658 81.645, 157.586 87.116, 157.015 93.062 C 155.159 112.389, 155.351 111.712, 151.525 112.429 C 147.224 113.236, 139.820 121.142, 131.824 133.466 C 125.012 143.964, 120.787 153.652, 117.230 166.926 C 114.803 175.982, 114.633 178.260, 114.082 209 L 113.500 241.500 108.277 249.871 C 105.404 254.475, 102.029 260.509, 100.777 263.280 L 98.500 268.319 98 137.225 L 97.500 6.131 94.563 3.065 C 90.223 -1.464, 85.778 -1.042, 66.639 5.716 M 362.500 21.610 C 295.704 26.841, 234.440 49.293, 184.500 86.842 C 181.200 89.323, 178.431 91.386, 178.348 91.427 C 177.880 91.652, 170.815 172.148, 171.226 172.560 C 171.499 172.832, 177.667 170.086, 184.934 166.458 C 214.403 151.745, 244.093 140.762, 274.621 133.281 L 290.051 129.500 309.617 102.713 C 320.379 87.980, 330.155 75.308, 331.342 74.552 C 335.782 71.725, 351.771 70.507, 384.500 70.504 C 422.777 70.499, 435.641 71.744, 440.054 75.878 C 441.593 77.320, 451.184 89.933, 461.367 103.907 L 479.881 129.314 496.691 133.585 C 529.275 141.866, 566.927 156.201, 591.798 169.794 C 595.262 171.688, 598.370 172.963, 598.705 172.629 C 599.039 172.294, 597.639 153.926, 595.594 131.811 C 592.474 98.074, 591.604 91.400, 590.188 90.349 C 589.260 89.660, 584.513 86.217, 579.640 82.699 C 535.470 50.804, 483.817 30.914, 425.795 23.457 C 414.077 21.951, 373.329 20.762, 362.500 21.610 M 71.250 26.247 L 68 27.289 68 163.717 L 68 300.145 70.635 298.073 C 72.084 296.933, 74.109 296, 75.135 296 C 76.946 296, 77 292.068, 77 160.500 C 77 52.712, 76.744 25.021, 75.750 25.102 C 75.063 25.158, 73.037 25.673, 71.250 26.247 M 693 160.500 C 693 292.068, 693.054 296, 694.865 296 C 695.891 296, 697.916 296.933, 699.365 298.073 L 702 300.145 702 163.731 L 702 27.317 698.134 26.158 C 696.008 25.521, 693.983 25, 693.634 25 C 693.285 25, 693 85.975, 693 160.500 M 351.526 92.127 C 346.590 92.666, 342.315 93.474, 342.026 93.924 C 340.583 96.164, 306.681 142.886, 304.724 145.331 C 302.788 147.752, 300.649 148.592, 290.008 151.118 C 283.160 152.743, 275.182 154.763, 272.278 155.607 L 267 157.142 267.061 314.321 L 267.121 471.500 275.076 475.315 C 282.657 478.950, 284.767 480.844, 319.933 515.581 C 343.312 538.675, 358.136 552.577, 360.385 553.517 C 365.483 555.647, 404.486 555.660, 409.576 553.533 C 411.767 552.617, 427.033 538.326, 450.184 515.520 C 485.256 480.969, 487.707 478.770, 495.080 475.237 L 502.879 471.500 502.939 314.321 L 503 157.142 497.485 155.539 C 494.452 154.657, 486.915 152.760, 480.735 151.324 C 474.556 149.887, 468.669 148.142, 467.654 147.445 C 466.134 146.401, 438.913 109.725, 430.039 96.764 C 428.099 93.931, 426.723 93.045, 423.539 92.581 C 416.049 91.489, 360.578 91.139, 351.526 92.127 M 149.881 144.042 C 146.001 150.004, 140.814 161.590, 138.389 169.712 C 136.292 176.735, 135.664 181.312, 135.264 192.500 C 134.988 200.200, 134.994 206.275, 135.277 206 C 135.559 205.725, 138.559 201.756, 141.942 197.181 L 148.094 188.862 150.083 167.681 C 151.177 156.031, 151.943 145.387, 151.786 144.027 L 151.500 141.554 149.881 144.042 M 618.040 144 C 618.027 145.375, 618.915 156.051, 620.012 167.724 L 622.007 188.948 628.254 197.458 L 634.500 205.968 634.818 196.734 C 635.191 185.933, 633.739 175.519, 630.557 166.177 C 628.171 159.169, 622.252 146.904, 619.614 143.500 C 618.093 141.538, 618.063 141.548, 618.040 144 M 235.500 167.440 C 216.039 174.654, 195.758 184.051, 177.750 194.197 L 169 199.127 169 326.045 L 169 452.962 171.250 453.443 C 180.330 455.387, 194.603 458, 196.139 458 C 197.824 458, 198 457.095, 198 448.450 C 198 437.508, 199.292 433.950, 203.969 432.013 C 208.259 430.236, 214.006 431.364, 216.750 434.522 C 218.830 436.916, 219 438.074, 219 449.831 L 219 462.550 231.750 464.808 C 238.762 466.049, 244.838 467.050, 245.250 467.032 C 245.662 467.015, 246 398.825, 246 315.500 C 246 232.175, 245.662 164.024, 245.250 164.052 C 244.838 164.081, 240.450 165.606, 235.500 167.440 M 524 315.500 C 524 427.621, 524.294 467, 525.132 467 C 525.755 467, 531.796 466.025, 538.558 464.833 L 550.851 462.666 551.176 449.244 C 551.497 435.949, 551.527 435.799, 554.306 433.411 C 556.262 431.730, 558.326 431, 561.122 431 C 569.723 431, 572 434.723, 572 448.788 L 572 458.676 584.250 456.337 C 590.987 455.051, 597.513 453.765, 598.750 453.480 L 601 452.962 601 326.001 L 601 199.040 595.750 196.004 C 586.164 190.459, 565.650 180.266, 554.500 175.508 C 542.791 170.512, 525.996 164.019, 524.750 164.007 C 524.337 164.003, 524 232.175, 524 315.500 M 39.820 221.723 L 33.141 228.500 26.970 363 C 20.165 511.327, 19.957 524.506, 23.994 551.500 L 26.237 566.500 36.918 590 L 47.598 613.500 72.799 613.767 C 89.050 613.939, 98 613.680, 98 613.038 C 98 612.490, 96.668 607.420, 95.040 601.771 C 88.942 580.614, 83.120 551.084, 80.859 529.845 C 80.194 523.605, 79.224 517.938, 78.703 517.250 C 78.182 516.563, 76.595 516, 75.177 516 C 69.740 516, 56.509 499.512, 48.472 482.720 C 38.216 461.294, 36.617 449.362, 37.293 399.283 C 37.830 359.504, 38.091 357.211, 44.039 339.886 L 47.016 331.215 46.758 273.080 L 46.500 214.946 39.820 221.723 M 723 273.067 L 723 331.617 725.890 339.559 C 732.135 356.716, 732.500 360.384, 732.500 406 C 732.500 450.339, 732.195 453.845, 726.922 470.061 C 720.514 489.770, 702.096 516, 694.665 516 C 693.334 516, 691.818 516.563, 691.297 517.250 C 690.776 517.938, 689.809 523.573, 689.149 529.774 C 686.818 551.680, 681.199 580.204, 674.968 601.771 C 673.335 607.420, 672 612.490, 672 613.038 C 672 613.681, 680.959 613.939, 697.229 613.767 L 722.458 613.500 733.075 590.162 C 744.572 564.889, 744.850 563.863, 748.033 535 C 749.859 518.439, 749.256 497.608, 743.006 361.500 L 736.899 228.500 729.950 221.509 L 723 214.517 723 273.067 M 139.272 239.250 C 134.784 246.537, 127.936 258.620, 124.056 266.101 L 117 279.702 117 380.956 C 117 493.089, 117.306 487.479, 110.417 501.542 C 108.520 505.415, 105.530 510.328, 103.773 512.459 C 101.298 515.462, 100.635 517.141, 100.830 519.917 C 101.408 528.171, 105.349 553.481, 108.083 566.500 C 110.575 578.364, 117.693 605.776, 118.556 606.829 C 118.704 607.010, 119.344 604.535, 119.978 601.329 C 122.132 590.439, 122.837 589.128, 128.595 585.306 C 131.568 583.332, 134 581.337, 134 580.872 C 134 580.408, 131.243 573.159, 127.873 564.764 C 120.046 545.262, 118.964 541.257, 118.892 531.500 C 118.859 527.100, 121.136 506.175, 123.951 485 C 129.745 441.424, 129.661 441.700, 137.298 441.197 C 140.084 441.014, 143.098 441.517, 144.948 442.473 L 148 444.051 148 335.026 C 148 275.062, 147.872 226, 147.716 226 C 147.561 226, 143.761 231.963, 139.272 239.250 M 622.007 334.776 L 622 444.051 625.052 442.473 C 626.902 441.517, 629.916 441.014, 632.702 441.197 C 640.435 441.706, 640.258 441.104, 646.425 488 C 653.107 538.816, 653.192 536.984, 642.962 562.596 C 639.133 572.182, 636 580.426, 636 580.917 C 636 581.408, 638.028 582.999, 640.507 584.451 C 646.304 587.849, 647.592 589.928, 649.493 598.966 C 650.351 603.048, 651.195 606.529, 651.368 606.701 C 652.042 607.376, 659.356 578.961, 662.574 563.162 C 664.441 553.998, 666.825 539.762, 667.871 531.526 L 669.773 516.553 666.478 512.703 C 664.666 510.586, 661.569 505.544, 659.597 501.499 C 652.766 487.492, 653.031 492.373, 653.015 380.105 L 653 278.710 647.331 268.105 C 641.771 257.704, 628.088 234.421, 624.056 228.500 L 622.013 225.500 622.007 334.776 M 88 406.500 C 88 456.063, 88.385 496, 88.863 496 C 89.338 496, 91.026 493.188, 92.613 489.750 L 95.500 483.500 95.772 400.250 L 96.045 317 92.022 317 L 88 317 88 406.500 M 674.228 400.250 L 674.500 483.500 677.387 489.750 C 678.974 493.188, 680.662 496, 681.137 496 C 681.615 496, 682 456.063, 682 406.500 L 682 317 677.978 317 L 673.955 317 674.228 400.250 M 703.055 405.750 C 703.025 442.188, 703.204 472, 703.453 472 C 704.577 472, 709.992 452.503, 711.026 444.730 C 711.783 439.041, 712.032 423.917, 711.758 400.302 C 711.313 361.968, 710.920 358.654, 705.148 344.500 L 703.109 339.500 703.055 405.750 M 64.011 346.700 C 58.683 360.941, 58.516 362.727, 58.508 405.500 C 58.499 448.782, 58.833 452.180, 64.489 466.500 L 66.859 472.500 66.930 406.750 C 66.968 370.587, 66.807 341, 66.572 341 C 66.336 341, 65.184 343.565, 64.011 346.700 M 143.575 497.508 C 141.464 513.737, 139.789 529.600, 139.851 532.758 C 139.950 537.735, 140.929 540.469, 147.192 553.277 C 152.842 564.833, 154.753 567.907, 155.959 567.379 C 160.715 565.295, 167.061 564.695, 172.197 565.845 C 178.697 567.300, 179.673 568.086, 212.345 598.202 C 231.069 615.461, 237.764 621.053, 240.271 621.523 C 242.084 621.863, 259.302 620.830, 278.534 619.228 C 308.615 616.722, 314.059 616.020, 317.500 614.209 C 319.700 613.050, 326.450 607.531, 332.500 601.943 C 339.989 595.026, 345.574 590.781, 350 588.642 L 356.500 585.500 385 585.500 L 413.500 585.500 420 588.619 C 424.471 590.764, 429.934 594.912, 437.500 601.907 C 443.550 607.500, 450.286 613.018, 452.468 614.170 C 455.869 615.964, 461.437 616.684, 491.423 619.205 C 510.666 620.822, 527.929 621.861, 529.785 621.512 C 532.390 621.024, 538.654 615.813, 557.222 598.690 C 590.786 567.737, 591.335 567.292, 597.755 565.855 C 602.929 564.698, 609.277 565.288, 614.010 567.366 C 616.029 568.253, 628.830 542.789, 629.999 535.559 C 630.623 531.704, 629.854 523.125, 626.769 499.500 C 624.542 482.450, 622.627 468.382, 622.514 468.237 C 622.069 467.670, 615 471.076, 615 471.857 C 615 472.313, 616.383 481.645, 618.074 492.593 C 620.188 506.284, 620.961 514.217, 620.551 518 C 619.330 529.247, 617.797 531.097, 581.940 564.611 C 545.634 598.545, 541.292 601.752, 530.439 602.644 C 527.173 602.912, 508.445 601.770, 488.822 600.105 C 458.593 597.541, 452.453 596.753, 448.618 594.950 C 441.760 591.727, 436.845 585.703, 432.919 575.709 C 429.524 567.068, 428.291 565.740, 426.108 568.370 C 425.483 569.123, 422.165 571.036, 418.735 572.620 L 412.500 575.500 385 575.500 L 357.500 575.500 351.503 572.692 C 348.205 571.148, 344.520 568.958, 343.315 567.826 L 341.124 565.768 339.681 569.221 C 338.887 571.120, 337.901 573.760, 337.490 575.087 C 334.726 583.995, 327.479 592.648, 320.256 595.666 C 317.075 596.996, 253.957 602.928, 242.432 602.981 C 236.860 603.007, 229.144 600.574, 224.285 597.261 C 218.443 593.276, 160.188 538.871, 155.810 533.311 C 153.509 530.389, 151.468 526.213, 150.386 522.217 C 148.662 515.848, 148.671 515.676, 151.834 494.154 C 153.584 482.245, 155.013 472.169, 155.008 471.763 C 155.002 471.213, 148.665 468, 147.584 468 C 147.490 468, 145.686 481.279, 143.575 497.508 M 175.573 478.179 C 175.298 479.455, 173.880 488.471, 172.423 498.214 C 169.818 515.632, 169.805 515.978, 171.637 518.922 C 174.179 523.008, 233.304 578.024, 237.724 580.417 C 241.239 582.320, 241.530 582.312, 276.300 579.476 C 307.989 576.890, 311.550 576.421, 313.601 574.559 C 315.606 572.738, 324 553.145, 324 550.285 C 324 548.411, 269.739 495.930, 265.612 493.813 C 263.132 492.541, 247.208 489.138, 221.612 484.412 C 199.551 480.339, 180.279 476.748, 178.787 476.432 C 176.532 475.954, 175.989 476.249, 175.573 478.179 M 549.833 484.041 C 525.619 488.589, 506.662 492.639, 504.574 493.710 C 500.781 495.656, 446 548.445, 446 550.154 C 446 552.910, 454.490 572.773, 456.432 574.560 C 458.462 576.429, 461.937 576.883, 493.775 579.439 C 528.372 582.217, 528.930 582.231, 532.341 580.379 C 537.260 577.709, 597.740 521.040, 599.053 517.872 C 599.898 515.833, 599.561 511.355, 597.547 497.872 C 594.343 476.419, 594.245 475.975, 592.731 476.107 C 592.054 476.166, 572.750 479.736, 549.833 484.041 M 153.500 594.123 C 146.900 598.499, 141.404 602.399, 141.286 602.790 C 140.568 605.172, 124.857 685.819, 124.696 687.945 C 124.570 689.628, 126.969 694.701, 131.475 702.275 C 138.291 713.732, 138.532 714, 142.003 714 C 146.992 714, 149.210 715.902, 156.004 726.007 C 159.281 730.880, 166.963 741.534, 173.074 749.683 L 184.186 764.500 183.543 769.366 L 182.900 774.231 203.927 795.116 C 215.492 806.602, 225.321 816, 225.770 816 C 226.218 816, 227.140 813.862, 227.818 811.250 C 239.564 766.010, 285.886 734.399, 354.500 724.800 C 366.313 723.148, 403.836 723.184, 416 724.860 C 448.544 729.343, 477.030 739.253, 498.914 753.703 C 510.125 761.106, 526.153 777.275, 531.796 786.873 C 536.523 794.913, 541.465 806.630, 542.535 812.333 C 542.913 814.350, 543.626 816, 544.119 816 C 544.611 816, 554.486 806.617, 566.062 795.150 L 587.109 774.299 586.455 769.372 L 585.801 764.444 596.725 749.972 C 602.733 742.012, 610.417 731.370, 613.801 726.323 C 620.787 715.903, 622.979 714, 627.997 714 C 631.468 714, 631.709 713.731, 638.525 702.278 C 642.361 695.830, 645.481 689.643, 645.459 688.528 C 645.436 687.412, 641.648 667.505, 637.041 644.289 L 628.663 602.077 616.181 593.989 C 609.316 589.541, 603.204 586.110, 602.599 586.365 C 601.995 586.620, 590.438 596.880, 576.918 609.165 C 563.398 621.449, 550.631 632.996, 548.549 634.824 C 545.789 637.247, 539.210 648.096, 524.294 674.824 C 513.037 694.996, 502.748 713.166, 501.431 715.201 C 497.655 721.036, 489.565 721.656, 484.414 716.505 C 479.674 711.765, 480.437 709.720, 500.010 674.712 L 518.020 642.500 504.260 641.338 C 496.692 640.698, 490.236 640.473, 489.914 640.838 C 489.592 641.202, 486.489 652.075, 483.018 665 C 473.949 698.771, 473.360 700.534, 470.529 702.389 C 469.177 703.275, 466.091 704, 463.672 704 C 457.786 704, 454 700.436, 454 694.897 C 454 692.791, 457.150 679.562, 461 665.500 C 464.850 651.438, 468 639.498, 468 638.966 C 468 638.435, 466.283 638, 464.184 638 C 452.708 638, 441.213 633.695, 433.019 626.327 C 430.216 623.807, 427.646 622.020, 427.309 622.357 C 426.972 622.694, 427.639 637.026, 428.791 654.205 C 430.664 682.145, 430.728 685.771, 429.394 688.581 C 426.550 694.575, 417.843 695.996, 413.089 691.243 C 409.730 687.884, 409.842 688.774, 406.874 641.750 L 404.617 606 385.019 606 L 365.422 606 363.143 641.750 C 360.139 688.878, 360.263 687.891, 356.911 691.243 C 352.157 695.996, 343.450 694.575, 340.606 688.581 C 339.272 685.771, 339.336 682.145, 341.209 654.205 C 342.361 637.026, 343.028 622.694, 342.691 622.357 C 342.354 622.020, 339.784 623.807, 336.981 626.327 C 328.787 633.695, 317.292 638, 305.816 638 C 303.717 638, 302 638.456, 302 639.013 C 302 639.570, 305.150 651.426, 309 665.360 C 312.850 679.294, 316 692.313, 316 694.292 C 316 699.561, 312.601 703.065, 306.860 703.712 C 302.840 704.165, 301.913 703.881, 299.198 701.364 C 296.396 698.766, 295.392 695.851, 288.396 670 C 284.154 654.325, 280.417 641.202, 280.092 640.838 C 279.766 640.473, 273.314 640.698, 265.753 641.338 L 252.006 642.500 270.003 674.680 C 289.972 710.387, 290.443 711.711, 285.077 717.077 C 282.719 719.435, 281.291 720, 277.688 720 C 274.903 720, 272.429 719.341, 271.116 718.250 C 269.958 717.288, 259.385 699.175, 247.622 678 C 231.490 648.963, 225.186 638.517, 221.973 635.500 C 204.719 619.298, 167.383 586.016, 166.538 586.084 C 165.967 586.129, 160.100 589.747, 153.500 594.123 M 63.615 646.250 C 98.030 714.997, 135.854 770.704, 177.152 813.468 L 190.219 827 197.903 827 L 205.586 827 185.513 806.750 C 157.399 778.388, 135.653 750.671, 117.128 719.588 C 104.541 698.467, 103 695.371, 103 691.194 C 103 689.085, 104.776 678.543, 106.946 667.768 L 110.892 648.177 108.278 641.589 L 105.664 635 81.824 635 L 57.983 635 63.615 646.250 M 661.925 641.202 C 659.139 648.650, 659.120 648.302, 663.505 670.024 C 665.427 679.547, 667 689.121, 667 691.299 C 667 696.286, 657.706 713.116, 641.488 737.500 C 624.891 762.454, 607.584 783.499, 584.539 806.750 L 564.469 827 572.125 827 L 579.781 827 592.848 813.468 C 633.959 770.898, 671.669 715.513, 705.468 648.064 L 712.014 635 688.129 635 L 664.244 635 661.925 641.202 M 67 698.374 C 67 698.782, 73.561 719.452, 81.580 744.308 C 97.785 794.540, 96.809 792.430, 113.434 813.166 C 123.354 825.539, 141.643 844.389, 154.373 855.358 C 165.180 864.671, 181.869 877.464, 182.451 876.882 C 182.685 876.648, 181.284 868.817, 179.338 859.479 L 175.800 842.500 162.110 828.500 C 130.986 796.670, 102.447 758.298, 75.142 711.566 C 70.664 703.902, 67 697.966, 67 698.374 M 698.452 705.698 C 696.373 709.439, 690.637 719.025, 685.705 727 C 660.504 767.744, 636.576 798.994, 608.382 827.984 L 594.264 842.500 590.646 859.930 C 588.656 869.517, 587.133 877.464, 587.264 877.591 C 587.792 878.108, 610.642 859.729, 621.382 850.148 C 638.034 835.293, 656.219 815.024, 668.492 797.638 C 673.001 791.250, 674.355 787.630, 688.117 745.171 C 696.248 720.088, 702.749 699.416, 702.565 699.231 C 702.381 699.047, 700.530 701.957, 698.452 705.698 M 368 744.689 C 336.379 747.076, 305.917 756.433, 284.758 770.259 C 260.868 785.871, 248.650 804.778, 245.507 831 L 244.847 836.500 250.333 825.500 C 253.351 819.450, 258.210 811.350, 261.132 807.500 C 289.202 770.516, 341.987 749.997, 398.645 754.046 C 457.154 758.227, 504.232 787.309, 521.985 830.238 C 523.290 833.393, 524.533 835.801, 524.746 835.587 C 525.638 834.695, 522.806 819.244, 520.575 812.827 C 513.338 792.018, 495.430 773.915, 470.206 761.910 C 442.357 748.655, 403.095 742.040, 368 744.689 M 369.114 775.081 C 364.502 775.526, 356.142 776.857, 350.536 778.039 L 340.344 780.188 343.672 792.336 C 347.842 807.558, 347.892 810.261, 344.077 814.077 C 341.741 816.413, 340.279 817, 336.799 817 C 329.071 817, 327.919 815.406, 323.433 798.500 C 321.973 793, 320.635 788.343, 320.458 788.151 C 319.839 787.480, 307.451 794.260, 300.506 799.070 C 296.653 801.740, 290.252 807.203, 286.282 811.212 L 279.063 818.500 283.523 832.500 C 285.976 840.200, 287.986 847.535, 287.991 848.800 C 288.007 852.847, 285.249 856.763, 281.514 857.995 C 274.504 860.309, 268.981 856.941, 266.532 848.857 L 265.212 844.500 264.004 847.500 C 261.394 853.982, 258.836 869.436, 259.494 874.750 L 260.144 880 271.388 880 L 282.632 880 284.809 874.750 C 290.303 861.501, 303.002 846.786, 316.905 837.556 C 330.535 828.508, 351.546 821.079, 368.250 819.402 L 375 818.724 375 811.451 C 375 804.557, 375.160 804.043, 378.077 801.589 C 382.361 797.984, 387.909 798.048, 392.029 801.750 C 394.743 804.188, 395.157 805.308, 395.679 811.626 L 396.269 818.751 402.631 819.403 C 418.341 821.013, 439.595 828.637, 453.095 837.505 C 467.093 846.701, 482.026 864.458, 486.073 876.721 L 487.155 880 498.490 880 L 509.824 880 510.503 875.981 C 510.877 873.770, 510.883 869.607, 510.516 866.731 C 509.610 859.610, 505.969 846, 504.970 846 C 504.524 846, 503.860 847.361, 503.495 849.024 C 502.521 853.456, 498.410 857.833, 494.537 858.559 C 488.156 859.756, 481.969 854.885, 482.017 848.703 C 482.027 847.491, 484.043 840.202, 486.498 832.504 L 490.961 818.507 483.730 811.215 C 479.754 807.205, 473.347 801.740, 469.494 799.070 C 462.549 794.260, 450.161 787.480, 449.542 788.151 C 449.365 788.343, 448.027 793, 446.567 798.500 C 442.081 815.406, 440.929 817, 433.201 817 C 429.721 817, 428.259 816.413, 425.923 814.077 C 422.108 810.261, 422.158 807.558, 426.328 792.336 L 429.656 780.188 419.578 778.078 C 401.694 774.333, 386.335 773.421, 369.114 775.081 M 372 839.970 C 327.067 845.794, 298.758 872.944, 299.073 909.910 L 299.147 918.500 301.538 909.786 C 307.279 888.871, 319.049 874.970, 339.500 864.953 C 354.979 857.371, 363.891 855.524, 385 855.524 C 406.109 855.524, 415.021 857.371, 430.500 864.953 C 450.951 874.970, 462.721 888.871, 468.462 909.786 L 470.853 918.500 470.927 909.910 C 471.264 870.332, 438.026 841.658, 389.417 839.592 C 383.413 839.337, 375.575 839.507, 372 839.970 M 240.557 845.582 C 239.035 846.695, 234.278 847, 218.421 847 L 198.225 847 202.582 868.250 C 204.979 879.938, 207.161 890.407, 207.430 891.516 C 207.700 892.624, 209.213 894.020, 210.794 894.616 L 213.667 895.700 210.792 881.600 C 209.196 873.766, 208.165 866.127, 208.474 864.410 C 209.319 859.717, 213.329 856.500, 218.331 856.502 C 221.819 856.503, 223.806 857.447, 230.500 862.287 L 238.500 868.071 239.200 864.286 C 241.783 850.324, 242.796 844.478, 242.657 844.332 C 242.569 844.239, 241.624 844.802, 240.557 845.582 M 527.232 845.163 C 527.554 846.001, 528.370 850.244, 529.047 854.593 C 529.723 858.942, 530.554 863.747, 530.892 865.270 L 531.508 868.040 539.344 862.390 C 548.037 856.121, 552.480 855.119, 557.372 858.324 C 562.534 861.707, 562.709 863.620, 559.392 880.430 L 556.382 895.682 559.194 894.621 C 560.740 894.037, 562.224 892.868, 562.493 892.023 C 562.761 891.178, 564.946 880.702, 567.349 868.743 L 571.718 847 551.581 847 C 534.342 847, 531.100 846.758, 529.046 845.320 C 527.028 843.906, 526.741 843.881, 527.232 845.163 M 366.747 877.918 C 354.131 880.676, 342.350 886.685, 334.632 894.298 C 328.652 900.197, 323.953 907.886, 322.438 914.250 L 321.783 917 331.845 917 C 337.515 917, 343.050 917.521, 344.528 918.195 C 349.165 920.307, 351.202 926.710, 349.043 932.387 C 347.431 936.626, 343.255 938, 331.982 938 C 321.965 938, 321.872 938.022, 322.513 940.250 C 325.911 952.059, 337.603 965.283, 350 971.338 C 361.296 976.855, 371.352 979.080, 385 979.080 C 398.648 979.080, 408.704 976.855, 420 971.338 C 432.671 965.149, 443.861 952.486, 447.471 940.250 C 448.130 938.017, 448.056 938, 437.583 938 C 427.401 938, 426.920 937.900, 423.849 935.156 C 421.107 932.707, 420.667 931.647, 420.667 927.500 C 420.667 923.353, 421.107 922.293, 423.849 919.844 C 426.917 917.102, 427.408 917, 437.516 917 C 449.782 917, 449.626 917.209, 444.843 907.143 C 438.698 894.212, 424.001 883.240, 406.500 878.517 C 396.871 875.919, 377.247 875.623, 366.747 877.918 M 235.903 899.013 C 237.421 906.537, 237.721 907.093, 241.945 910.195 C 245.097 912.510, 246.194 912.947, 245.714 911.697 C 245.342 910.728, 244.506 907.048, 243.856 903.519 C 242.780 897.682, 242.297 896.834, 238.490 894.100 L 234.306 891.095 235.903 899.013 M 531.361 894.138 C 527.672 896.864, 527.094 897.866, 526.054 903.349 C 525.411 906.732, 524.639 910.342, 524.337 911.371 C 523.884 912.915, 524.556 912.713, 528.185 910.217 C 532.430 907.296, 532.635 906.913, 534.125 899.096 C 534.973 894.643, 535.630 891.018, 535.584 891.040 C 535.538 891.061, 533.637 892.456, 531.361 894.138 M 265.375 902.750 C 265.655 903.712, 266.873 909.563, 268.082 915.750 L 270.280 927 275.247 927 C 279.583 927, 280.123 926.778, 279.501 925.250 C 279.108 924.288, 278.547 918.438, 278.254 912.250 L 277.721 901 271.293 901 C 265.644 901, 264.927 901.212, 265.375 902.750 M 491.956 909.750 C 491.932 914.563, 491.543 920.413, 491.091 922.750 L 490.269 927 495.134 927 C 497.810 927, 500 926.837, 500 926.638 C 500 926.438, 501.125 920.751, 502.500 914 C 503.875 907.249, 505 901.562, 505 901.362 C 505 901.163, 502.075 901, 498.500 901 L 492 901 491.956 909.750" stroke="none" fill="#040404" fill-rule="evenodd"/><path d="M 362.500 21.610 C 295.704 26.841, 234.440 49.293, 184.500 86.842 C 181.200 89.323, 178.431 91.386, 178.348 91.427 C 177.880 91.652, 170.815 172.148, 171.226 172.560 C 171.499 172.832, 177.667 170.086, 184.934 166.458 C 214.403 151.745, 244.093 140.762, 274.621 133.281 L 290.051 129.500 309.617 102.713 C 320.379 87.980, 330.155 75.308, 331.342 74.552 C 335.782 71.725, 351.771 70.507, 384.500 70.504 C 422.777 70.499, 435.641 71.744, 440.054 75.878 C 441.593 77.320, 451.184 89.933, 461.367 103.907 L 479.881 129.314 496.691 133.585 C 529.275 141.866, 566.927 156.201, 591.798 169.794 C 595.262 171.688, 598.370 172.963, 598.705 172.629 C 599.039 172.294, 597.639 153.926, 595.594 131.811 C 592.474 98.074, 591.604 91.400, 590.188 90.349 C 589.260 89.660, 584.513 86.217, 579.640 82.699 C 535.470 50.804, 483.817 30.914, 425.795 23.457 C 414.077 21.951, 373.329 20.762, 362.500 21.610 M 71.250 26.247 L 68 27.289 68 163.717 L 68 300.145 70.635 298.073 C 72.084 296.933, 74.109 296, 75.135 296 C 76.946 296, 77 292.068, 77 160.500 C 77 52.712, 76.744 25.021, 75.750 25.102 C 75.063 25.158, 73.037 25.673, 71.250 26.247 M 693 160.500 C 693 292.068, 693.054 296, 694.865 296 C 695.891 296, 697.916 296.933, 699.365 298.073 L 702 300.145 702 163.731 L 702 27.317 698.134 26.158 C 696.008 25.521, 693.983 25, 693.634 25 C 693.285 25, 693 85.975, 693 160.500 M 175.573 478.179 C 175.298 479.455, 173.880 488.471, 172.423 498.214 C 169.818 515.632, 169.805 515.978, 171.637 518.922 C 174.179 523.008, 233.304 578.024, 237.724 580.417 C 241.239 582.320, 241.530 582.312, 276.300 579.476 C 307.989 576.890, 311.550 576.421, 313.601 574.559 C 315.606 572.738, 324 553.145, 324 550.285 C 324 548.411, 269.739 495.930, 265.612 493.813 C 263.132 492.541, 247.208 489.138, 221.612 484.412 C 199.551 480.339, 180.279 476.748, 178.787 476.432 C 176.532 475.954, 175.989 476.249, 175.573 478.179 M 549.833 484.041 C 525.619 488.589, 506.662 492.639, 504.574 493.710 C 500.781 495.656, 446 548.445, 446 550.154 C 446 552.910, 454.490 572.773, 456.432 574.560 C 458.462 576.429, 461.937 576.883, 493.775 579.439 C 528.372 582.217, 528.930 582.231, 532.341 580.379 C 537.260 577.709, 597.740 521.040, 599.053 517.872 C 599.898 515.833, 599.561 511.355, 597.547 497.872 C 594.343 476.419, 594.245 475.975, 592.731 476.107 C 592.054 476.166, 572.750 479.736, 549.833 484.041 M 369.114 775.081 C 364.502 775.526, 356.142 776.857, 350.536 778.039 L 340.344 780.188 343.672 792.336 C 347.842 807.558, 347.892 810.261, 344.077 814.077 C 341.741 816.413, 340.279 817, 336.799 817 C 329.071 817, 327.919 815.406, 323.433 798.500 C 321.973 793, 320.635 788.343, 320.458 788.151 C 319.839 787.480, 307.451 794.260, 300.506 799.070 C 296.653 801.740, 290.252 807.203, 286.282 811.212 L 279.063 818.500 283.523 832.500 C 285.976 840.200, 287.986 847.535, 287.991 848.800 C 288.007 852.847, 285.249 856.763, 281.514 857.995 C 274.504 860.309, 268.981 856.941, 266.532 848.857 L 265.212 844.500 264.004 847.500 C 261.394 853.982, 258.836 869.436, 259.494 874.750 L 260.144 880 271.388 880 L 282.632 880 284.809 874.750 C 290.303 861.501, 303.002 846.786, 316.905 837.556 C 330.535 828.508, 351.546 821.079, 368.250 819.402 L 375 818.724 375 811.451 C 375 804.557, 375.160 804.043, 378.077 801.589 C 382.361 797.984, 387.909 798.048, 392.029 801.750 C 394.743 804.188, 395.157 805.308, 395.679 811.626 L 396.269 818.751 402.631 819.403 C 418.341 821.013, 439.595 828.637, 453.095 837.505 C 467.093 846.701, 482.026 864.458, 486.073 876.721 L 487.155 880 498.490 880 L 509.824 880 510.503 875.981 C 510.877 873.770, 510.883 869.607, 510.516 866.731 C 509.610 859.610, 505.969 846, 504.970 846 C 504.524 846, 503.860 847.361, 503.495 849.024 C 502.521 853.456, 498.410 857.833, 494.537 858.559 C 488.156 859.756, 481.969 854.885, 482.017 848.703 C 482.027 847.491, 484.043 840.202, 486.498 832.504 L 490.961 818.507 483.730 811.215 C 479.754 807.205, 473.347 801.740, 469.494 799.070 C 462.549 794.260, 450.161 787.480, 449.542 788.151 C 449.365 788.343, 448.027 793, 446.567 798.500 C 442.081 815.406, 440.929 817, 433.201 817 C 429.721 817, 428.259 816.413, 425.923 814.077 C 422.108 810.261, 422.158 807.558, 426.328 792.336 L 429.656 780.188 419.578 778.078 C 401.694 774.333, 386.335 773.421, 369.114 775.081" stroke="none" fill="#fcfcfc" fill-rule="evenodd"/></svg>