<svg xmlns="http://www.w3.org/2000/svg" width="780" height="1000" viewBox="0 0 780 1000" version="1.1"><path d="M 359 19.072 C 312.005 24.204, 283.774 31.565, 244.703 48.875 C 223.746 58.159, 200.654 71.579, 184.164 84.056 C 173.951 91.784, 175.362 86.572, 171.533 130.692 C 168.557 164.993, 168.330 174.529, 170.472 175.351 C 172.392 176.088, 177.069 174.435, 184.500 170.393 C 205.606 158.911, 250.034 142.324, 276.755 135.948 L 291.010 132.547 306.755 111.167 C 328.705 81.361, 332.147 77.330, 336.722 76.066 C 352.805 71.626, 427.084 72.560, 436.921 77.327 C 438.740 78.208, 466.782 115, 477.279 130.277 C 478.107 131.482, 483.973 133.472, 495.500 136.459 C 514.875 141.479, 532.755 147.278, 548.018 153.490 C 562.552 159.406, 588.183 171.006, 590 172.491 C 590.825 173.165, 593.029 174.230, 594.898 174.858 C 598.590 176.098, 600.452 175.302, 601.488 172.039 C 601.798 171.060, 600.463 152.538, 598.519 130.880 L 594.986 91.500 591.243 88.172 C 586.467 83.926, 567.126 70.854, 555.640 64.109 C 516.073 40.874, 470.483 25.813, 424 20.620 C 407.025 18.724, 370.215 17.847, 359 19.072 M 70.368 24.202 L 66.237 26.279 65.490 88.890 C 64.492 172.619, 65.246 300.646, 66.746 302.146 C 67.930 303.330, 68.203 303.244, 74.500 299.724 L 78.500 297.488 79.258 279.494 C 79.675 269.597, 79.900 208.356, 79.758 143.403 C 79.490 20.576, 79.533 21.847, 75.628 22.062 C 75.007 22.096, 72.641 23.059, 70.368 24.202 M 691.309 24.250 C 690.258 25.874, 689.745 255.938, 690.740 279.500 L 691.500 297.500 694.738 299.118 C 696.519 300.007, 698.600 301.253, 699.361 301.885 C 700.123 302.517, 701.408 302.781, 702.216 302.470 C 704.539 301.579, 705 275.402, 705 144.353 L 705 26.027 701.378 24.513 C 696.979 22.676, 692.405 22.556, 691.309 24.250 M 175.566 474.374 C 173.184 476.191, 172.224 479.945, 169.531 497.984 L 166.984 515.044 169.242 519.436 C 170.837 522.539, 180.426 532.151, 201.889 552.165 C 218.604 567.749, 233.678 581.400, 235.389 582.500 C 239.357 585.052, 248.171 584.964, 281.500 582.037 C 311.336 579.417, 312.937 579.161, 315.472 576.589 C 316.604 575.440, 319.735 569.021, 322.428 562.324 L 327.325 550.147 321.913 543.893 C 316.431 537.560, 277.959 500.577, 270.378 494.352 C 265.314 490.195, 260.464 488.927, 221.500 481.569 C 174.786 472.747, 177.203 473.126, 175.566 474.374 M 579 475.618 C 572.125 476.956, 558.175 479.637, 548 481.576 C 518.349 487.226, 506.776 490.005, 502.432 492.517 C 497.851 495.168, 456.328 534.454, 448.245 543.786 L 442.990 549.853 445.561 556.980 C 449.760 568.621, 453.728 576.786, 455.674 577.793 C 458.516 579.262, 462.733 579.799, 489 582.034 C 523.217 584.946, 530.686 585.022, 534.635 582.500 C 540.424 578.802, 598.359 523.973, 600.797 519.885 L 603.208 515.841 600.541 498.170 C 597.867 480.451, 595.797 473.636, 593 473.342 C 592.175 473.256, 585.875 474.280, 579 475.618 M 63.876 646.750 C 97.524 713.863, 134.566 768.393, 176.638 812.750 L 190.154 827 197.677 827 L 205.200 827 186.953 808.250 C 152.076 772.412, 126.880 739.026, 107.895 703.495 C 101.860 692.199, 101.876 693.644, 107.470 665.303 L 110.864 648.107 108.264 641.553 L 105.664 635 81.824 635 L 57.985 635 63.876 646.750 M 661.854 642.021 L 659.593 649.042 661.887 661.271 C 663.149 667.997, 664.893 677.813, 665.763 683.085 L 667.343 692.670 664.107 699.585 C 659.972 708.423, 653.040 720.003, 641.711 737 C 624.400 762.971, 608.283 782.491, 581.806 809.554 L 564.738 827 572.292 827 L 579.846 827 593.362 812.750 C 635.434 768.393, 672.476 713.863, 706.124 646.750 L 712.015 635 688.065 635 L 664.115 635 661.854 642.021 M 372 772.075 C 366.225 772.508, 358.173 773.575, 354.108 774.447 C 347.111 775.948, 338 779.305, 338 780.383 C 338 780.656, 339.350 786.407, 341 793.164 C 342.650 799.921, 344 806.673, 344 808.168 C 344 813.463, 335.261 816.156, 331.514 812.015 C 330.526 810.923, 328.310 805.005, 326.589 798.862 C 324.786 792.424, 322.774 787.260, 321.838 786.670 C 317.801 784.123, 298.514 795.802, 284.358 809.364 L 275.866 817.500 279.965 830.500 C 285.401 847.741, 285.859 851.141, 283.120 853.880 C 278.678 858.322, 271.969 855.357, 269.452 847.840 C 268.015 843.548, 263.889 842.674, 261.662 846.190 C 259.311 849.903, 256.801 862.849, 256.767 871.434 C 256.725 882.445, 257.481 883, 272.525 883 L 283.829 883 287.906 874.576 C 290.149 869.942, 294.619 862.836, 297.839 858.784 C 303.336 851.866, 315.538 841, 317.808 841 C 318.372 841, 318.983 840.646, 319.167 840.214 C 319.877 838.540, 336.252 830.861, 346.127 827.572 C 351.832 825.671, 360.517 823.561, 365.426 822.882 C 376.638 821.332, 378 820.174, 378 812.191 C 378 804.624, 379.509 802.545, 385 802.545 C 389.838 802.545, 391.675 804.350, 392.510 809.924 C 393.630 817.399, 394.549 820.328, 396 821.052 C 396.825 821.464, 401.100 822.330, 405.500 822.976 C 409.900 823.623, 418.168 825.699, 423.873 827.590 C 433.729 830.855, 450.119 838.531, 450.833 840.214 C 451.017 840.646, 451.613 841, 452.159 841 C 454.306 841, 465.318 850.493, 470.996 857.239 C 474.292 861.154, 479.070 868.552, 481.614 873.679 L 486.241 883 498.049 883 C 507.450 883, 510.177 882.680, 511.429 881.429 C 513.771 879.087, 513.507 864.908, 510.917 853.874 L 508.833 845 505.463 845 C 502.441 845, 501.892 845.455, 500.141 849.414 C 497.170 856.130, 492.553 857.796, 487.635 853.927 C 486.094 852.716, 485 850.857, 485 849.452 C 485 848.130, 487.070 840.400, 489.599 832.274 L 494.199 817.500 485.407 809.186 C 470.820 795.389, 452.192 784.128, 448.162 786.670 C 447.226 787.260, 445.214 792.424, 443.411 798.862 C 441.690 805.005, 439.474 810.923, 438.486 812.015 C 434.764 816.128, 426 813.466, 426 808.223 C 426 806.758, 427.409 799.734, 429.131 792.613 C 432.008 780.719, 432.128 779.567, 430.613 778.459 C 428.446 776.875, 410.380 773.168, 401.500 772.486 C 387.051 771.377, 382.223 771.309, 372 772.075 M 374.404 876.993 C 352.430 879.395, 333.612 891.057, 325.481 907.312 C 323.566 911.138, 322 914.883, 322 915.634 C 322 916.684, 324.024 917.001, 330.750 917.006 C 335.563 917.009, 341.086 917.452, 343.026 917.991 C 351.764 920.418, 352.442 933.784, 343.974 936.694 C 342.063 937.350, 336.589 937.913, 331.809 937.944 C 327.029 937.975, 322.871 938.399, 322.570 938.887 C 321.492 940.631, 329.105 953.840, 334.311 959.259 C 342.466 967.746, 352.357 973.336, 366 977.168 C 368.683 977.921, 376.356 978.431, 385 978.431 C 393.644 978.431, 401.317 977.921, 404 977.168 C 417.647 973.335, 430.104 966.172, 436.997 958.192 C 441.411 953.083, 448.312 940.314, 447.430 938.887 C 447.129 938.399, 442.374 938, 436.864 938 C 427.125 938, 426.765 937.919, 423.923 935.077 C 421.530 932.684, 421 931.310, 421 927.500 C 421 923.690, 421.530 922.316, 423.923 919.923 C 426.733 917.113, 427.207 916.999, 436.173 916.985 C 449.147 916.963, 449.360 916.727, 444.681 907.578 C 437.628 893.790, 422.122 882.228, 405.811 878.593 C 397.534 876.749, 383.277 876.023, 374.404 876.993" stroke="none" fill="#05ecac" fill-rule="evenodd"/><path d="M 71 3.929 C 57.018 8.670, 50.710 11.440, 48.882 13.641 C 47.739 15.018, 47.414 29.870, 47 99.509 L 46.500 183.711 30.500 200.461 C 21.700 209.674, 13.965 218.209, 13.310 219.430 C 12.160 221.575, 10.220 257.399, 4.996 373 C -1.328 512.954, -1.407 528.803, 4.056 562.903 C 7.654 585.362, 7.675 585.434, 42.656 694 C 79.455 808.207, 77.354 803.008, 96.001 826 C 121.227 857.104, 168.391 897.608, 194.013 910.171 C 198.131 912.190, 207.125 916.534, 214 919.824 C 222.501 923.892, 231.459 929.357, 241.998 936.903 L 257.495 948 272.498 948.009 L 287.500 948.017 291.500 954.234 C 299.726 967.017, 312.704 978.616, 328 986.856 C 337.570 992.010, 354.270 997.564, 364.322 998.934 C 375.916 1000.514, 399.381 1000.265, 408.892 998.461 C 438.441 992.856, 464.393 976.271, 478.825 953.771 L 482.500 948.042 497.500 948.015 L 512.500 947.988 528 936.919 C 542.560 926.522, 547.265 923.897, 574.619 910.909 C 594.018 901.698, 630.565 872.831, 654.728 847.634 C 670.245 831.454, 685.846 811.708, 690.256 802.668 C 695.927 791.044, 705.335 762.927, 744.515 640.500 C 762.252 585.078, 764.161 577.724, 767.587 551.662 C 771.492 521.956, 770.755 492.459, 760.947 286.002 C 758.317 230.646, 757.643 221.127, 756.191 218.840 C 755.261 217.375, 747.430 208.770, 738.788 199.719 L 723.076 183.262 722.788 99.284 C 722.466 5.519, 723.142 13.301, 715.014 9.761 C 705.604 5.662, 686.771 -0, 682.548 -0 C 679.026 -0, 677.574 0.580, 675.236 2.918 L 672.317 5.836 671.598 132.994 C 671.203 202.931, 670.634 260.790, 670.334 261.571 C 670.009 262.419, 667.011 258.142, 662.895 250.957 L 656 238.923 656 212.185 C 656 182.389, 655.119 172.653, 651.341 160.672 C 644.789 139.898, 627.767 114.544, 618.824 112.239 L 615.500 111.382 614.401 101.441 C 612.186 81.397, 612.378 82.011, 606.590 76.500 C 603.703 73.750, 596.426 68.058, 590.420 63.852 C 542.833 30.524, 489.271 10.175, 428.500 2.336 C 411.146 0.098, 362.379 -0.224, 346 1.793 C 290.158 8.667, 240.997 25.234, 198.394 51.534 C 183.973 60.436, 166.309 73.075, 161.720 77.774 C 158.061 81.522, 158.017 81.668, 156.480 95.027 C 154.576 111.585, 154.454 112, 151.499 112 C 144.090 112, 125.185 139.979, 118.700 160.541 C 114.823 172.836, 114 181.766, 114 211.534 L 114 238.923 107.105 250.957 C 102.958 258.196, 99.992 262.422, 99.663 261.563 C 99.361 260.778, 98.792 202.843, 98.397 132.819 L 97.679 5.503 94.734 2.751 C 90.550 -1.157, 85.219 -0.892, 71 3.929 M 359 19.072 C 312.005 24.204, 283.774 31.565, 244.703 48.875 C 223.746 58.159, 200.654 71.579, 184.164 84.056 C 173.951 91.784, 175.362 86.572, 171.533 130.692 C 168.557 164.993, 168.330 174.529, 170.472 175.351 C 172.392 176.088, 177.069 174.435, 184.500 170.393 C 205.606 158.911, 250.034 142.324, 276.755 135.948 L 291.010 132.547 306.755 111.167 C 328.705 81.361, 332.147 77.330, 336.722 76.066 C 352.805 71.626, 427.084 72.560, 436.921 77.327 C 438.740 78.208, 466.782 115, 477.279 130.277 C 478.107 131.482, 483.973 133.472, 495.500 136.459 C 514.875 141.479, 532.755 147.278, 548.018 153.490 C 562.552 159.406, 588.183 171.006, 590 172.491 C 590.825 173.165, 593.029 174.230, 594.898 174.858 C 598.590 176.098, 600.452 175.302, 601.488 172.039 C 601.798 171.060, 600.463 152.538, 598.519 130.880 L 594.986 91.500 591.243 88.172 C 586.467 83.926, 567.126 70.854, 555.640 64.109 C 516.073 40.874, 470.483 25.813, 424 20.620 C 407.025 18.724, 370.215 17.847, 359 19.072 M 70.368 24.202 L 66.237 26.279 65.490 88.890 C 64.492 172.619, 65.246 300.646, 66.746 302.146 C 67.930 303.330, 68.203 303.244, 74.500 299.724 L 78.500 297.488 79.258 279.494 C 79.675 269.597, 79.900 208.356, 79.758 143.403 C 79.490 20.576, 79.533 21.847, 75.628 22.062 C 75.007 22.096, 72.641 23.059, 70.368 24.202 M 691.309 24.250 C 690.258 25.874, 689.745 255.938, 690.740 279.500 L 691.500 297.500 694.738 299.118 C 696.519 300.007, 698.600 301.253, 699.361 301.885 C 700.123 302.517, 701.408 302.781, 702.216 302.470 C 704.539 301.579, 705 275.402, 705 144.353 L 705 26.027 701.378 24.513 C 696.979 22.676, 692.405 22.556, 691.309 24.250 M 347.500 93.013 C 344.750 93.496, 342.050 94.606, 341.500 95.479 C 335.376 105.196, 303.846 146.784, 301.894 147.721 C 300.495 148.392, 292.696 150.715, 284.562 152.883 C 276.429 155.052, 269.375 157.225, 268.888 157.712 C 267.506 159.094, 266.622 312.094, 267.510 396 L 268.310 471.500 275.192 474.831 C 281.014 477.649, 285.265 481.271, 302.787 498.347 C 343.701 538.216, 357.413 551.163, 360.432 552.774 C 365.042 555.233, 405.029 555.195, 409.659 552.726 C 412.758 551.075, 426.577 538.012, 466.500 498.996 C 483.476 482.405, 487.647 478.860, 494.089 475.546 L 501.677 471.641 502.338 418.570 C 502.701 389.382, 502.998 318.686, 502.999 261.469 L 503 157.438 489.750 154.051 C 482.462 152.188, 474.429 150.067, 471.897 149.337 C 466.923 147.903, 469.540 151.077, 434.732 104.246 C 430.949 99.156, 426.874 94.443, 425.677 93.772 C 423.033 92.290, 355.348 91.632, 347.500 93.013 M 618.482 145.500 C 618.728 147.150, 619.675 157.500, 620.585 168.500 L 622.241 188.500 627.776 196 C 634.487 205.094, 633.930 204.421, 634.333 203.917 C 634.516 203.687, 634.354 197.425, 633.974 190 C 633.396 178.695, 632.777 175, 630.170 167.277 C 627.035 157.990, 622.492 148.201, 619.599 144.500 C 618.095 142.577, 618.052 142.615, 618.482 145.500 M 145.295 154 C 142.443 159.775, 139.377 167.393, 138.481 170.928 C 137.142 176.216, 134.609 203.942, 135.393 204.727 C 135.519 204.852, 138.356 201.253, 141.699 196.728 L 147.776 188.500 149.481 169.500 C 150.418 159.050, 151.027 148.925, 150.832 147 C 150.497 143.672, 150.225 144.016, 145.295 154 M 230.500 169.864 C 212.355 177.151, 198.989 183.345, 183.250 191.762 L 169 199.382 169 326.063 L 169 452.744 172.750 453.375 C 174.813 453.721, 181.113 454.847, 186.750 455.877 C 192.387 456.907, 197.028 457.693, 197.063 457.624 C 197.098 457.556, 197.468 452.595, 197.886 446.601 C 198.595 436.413, 198.823 435.549, 201.378 433.351 C 205.507 429.800, 212.215 430.061, 216.077 433.923 C 218.997 436.843, 219 436.858, 219 449.404 C 219 461.608, 219.063 461.976, 221.250 462.476 C 222.488 462.758, 228.265 463.822, 234.088 464.839 L 244.676 466.689 245.307 391.345 C 246.107 295.845, 245.112 164.991, 243.587 165.022 C 242.989 165.034, 237.100 167.213, 230.500 169.864 M 524.664 217.665 C 523.822 284.464, 523.821 347.476, 524.661 414.149 L 525.322 466.628 536.911 464.721 C 544.535 463.466, 548.928 462.267, 549.750 461.215 C 550.583 460.150, 551 455.822, 551 448.232 C 551 436.981, 551.035 436.812, 553.923 433.923 C 556.316 431.530, 557.690 431, 561.500 431 C 565.310 431, 566.684 431.530, 569.077 433.923 C 571.887 436.733, 572.001 437.207, 572.015 446.173 C 572.024 451.303, 572.387 456.061, 572.822 456.747 C 573.440 457.720, 576.476 457.420, 586.650 455.383 L 599.685 452.772 600.343 427.224 C 600.704 413.172, 601 356.138, 601 300.481 L 601 199.285 589.750 193.185 C 583.563 189.830, 573.315 184.642, 566.979 181.656 C 555.604 176.297, 527.961 165, 526.223 165 C 525.715 165, 525.040 187.799, 524.664 217.665 M 723 272.822 L 723 330.127 726.975 341.814 C 732.099 356.876, 732.983 366.612, 732.983 408 C 732.984 452.080, 731.466 462.804, 722.563 481.623 C 714.866 497.893, 702.362 513.735, 695.405 516.031 C 691.394 517.355, 691.017 518.533, 688.536 537.500 C 686.277 554.768, 681.845 577.065, 676.973 595.675 C 674.788 604.021, 673 611.341, 673 611.942 C 673 612.710, 680.343 612.955, 697.713 612.767 L 722.426 612.500 730.688 594.500 C 741.377 571.211, 744.436 561.672, 746.411 545.460 C 748.227 530.554, 748.487 495.866, 747.032 462.500 C 746.528 450.950, 744.001 393.800, 741.416 335.500 L 736.716 229.500 729.858 222.509 L 723 215.517 723 272.822 M 39.402 223.219 L 33.304 229.500 31.135 279 C 29.942 306.225, 27.571 358.425, 25.867 395 C 21.962 478.815, 21.481 531.260, 24.426 552.191 L 26.353 565.882 36.960 589.191 L 47.567 612.500 72.283 612.767 C 86.008 612.916, 97 612.644, 97 612.157 C 97 611.674, 94.770 602.457, 92.044 591.674 C 87.509 573.736, 82.922 549.098, 79.952 526.729 L 78.787 517.958 73.385 515.402 C 69.164 513.406, 66.682 511.179, 62.036 505.221 C 51.574 491.802, 44.447 477.413, 39.888 460.500 C 37.911 453.162, 37.692 449.382, 37.253 414.846 C 36.664 368.533, 37.464 358.270, 42.933 342 L 46.799 330.500 46.150 273.719 L 45.500 216.938 39.402 223.219 M 622 335.107 C 622 437.701, 622.089 443.174, 623.750 442.423 C 624.712 441.988, 627.892 441.447, 630.815 441.220 C 639.883 440.516, 640.352 441.525, 644.425 470.500 C 651.258 519.110, 652.453 534.891, 649.992 544.028 C 649.353 546.403, 646.168 555.228, 642.915 563.639 C 639.662 572.050, 637 579.562, 637 580.333 C 637 581.104, 638.818 582.937, 641.039 584.407 C 646.289 587.881, 648.529 591.714, 650.075 599.864 L 651.334 606.500 654.688 594.500 C 659.017 579.018, 665.421 547.138, 667.581 530.321 L 669.275 517.142 665.654 512.209 C 659.714 504.118, 655.119 493.353, 654.034 484.989 C 653.463 480.596, 653.049 436.615, 653.031 378.605 L 653 279.710 647.342 269.105 C 641.200 257.595, 623.088 227, 622.415 227 C 622.187 227, 622 275.648, 622 335.107 M 142.394 235 C 136.708 244.001, 126.071 262.871, 121.127 272.728 L 117 280.956 116.980 379.728 C 116.968 440.185, 116.572 481.215, 115.960 485.500 C 114.840 493.329, 109.973 504.545, 104.398 512.138 L 100.830 517 102.474 529.750 C 105.457 552.889, 112.900 588.830, 117.335 601.515 L 118.729 605.500 119.979 599.500 C 121.682 591.321, 123.219 588.685, 128.490 584.900 C 130.970 583.119, 133 581.096, 133 580.405 C 133 579.714, 130.334 572.195, 127.075 563.694 C 123.816 555.194, 120.364 544.588, 119.405 540.124 C 117.408 530.832, 117.483 529.976, 125.110 475 C 128.533 450.328, 129.534 445.140, 131.227 443.302 C 134.532 439.713, 138.822 439.484, 146.250 442.503 C 147.910 443.177, 147.993 438.449, 147.871 350.857 C 147.800 300.061, 147.462 251.750, 147.121 243.500 L 146.500 228.500 142.394 235 M 88 357.836 C 88 380.295, 88.299 420.407, 88.665 446.974 L 89.330 495.276 92.028 489.888 L 94.726 484.500 95.278 400.750 L 95.831 317 91.915 317 L 88 317 88 357.836 M 674.722 400.750 L 675.274 484.500 677.972 489.888 L 680.670 495.276 681.334 446.388 C 681.699 419.500, 681.998 379.387, 681.999 357.250 L 682 317 678.085 317 L 674.169 317 674.722 400.750 M 63.260 350.500 C 59.543 362.119, 59.014 369.012, 59.038 405.500 C 59.063 442.938, 59.722 451.775, 63.247 462 L 65.488 468.500 66.120 461.500 C 66.930 452.524, 66.932 394.053, 66.123 365.500 L 65.500 343.500 63.260 350.500 M 704.070 406.083 L 704.139 468.500 706.562 462.234 C 710.451 452.175, 711.192 441.066, 710.777 399 L 710.397 360.500 707.633 352.518 C 706.112 348.127, 704.673 344.340, 704.434 344.101 C 704.195 343.862, 704.031 371.754, 704.070 406.083 M 147.593 471.750 C 146.025 479.362, 140.822 523.531, 140.672 530.500 L 140.500 538.500 147.500 552.500 C 153.379 564.258, 154.820 566.441, 156.500 566.132 C 157.600 565.930, 162.133 565.705, 166.573 565.632 C 177.652 565.451, 175.376 563.834, 215 600.025 C 237.449 620.530, 238.119 621, 244.886 621 C 252.034 621, 297.928 617.345, 307.985 615.975 C 316.633 614.796, 318.524 613.697, 331.716 602.186 C 351.889 584.581, 350.584 585, 385.249 585 L 413.255 585 419.495 588.072 C 423.072 589.833, 430.381 595.215, 436.618 600.679 C 452.917 614.961, 452.469 614.732, 467.527 616.452 C 484.311 618.369, 517.568 621, 525.015 621 C 532.037 621, 532.548 620.633, 557.944 597.397 C 580.709 576.566, 586.740 571.287, 591.183 568.299 C 595.544 565.367, 604.526 564.223, 610.415 565.849 C 615.147 567.155, 615.014 567.293, 621.857 554 C 629.779 538.609, 630.417 535.835, 629.060 522.673 C 627.318 505.788, 622.430 470.097, 621.769 469.435 C 621.448 469.115, 619.892 469.522, 618.310 470.340 L 615.434 471.827 618.259 491.163 C 621.368 512.446, 621.435 521.369, 618.529 527.375 C 614.175 536.372, 552.951 593.709, 540.715 600.248 C 536.910 602.281, 535.187 602.491, 523 602.413 C 501.226 602.272, 455.077 597.891, 449.089 595.397 C 442.972 592.849, 438.049 587.170, 433.358 577.250 C 430.953 572.163, 428.842 568, 428.668 568 C 428.494 568, 424.874 569.800, 420.622 572 L 412.892 576 385 576 L 357.108 576 349.378 572 C 345.126 569.800, 341.506 568, 341.332 568 C 341.158 568, 339.053 572.163, 336.654 577.250 C 331.775 587.599, 326.876 593.155, 320.614 595.440 C 316.843 596.816, 297.321 599.074, 263.216 602.077 C 245.870 603.605, 234.883 602.983, 228.936 600.138 C 223.685 597.626, 219.322 593.857, 186.627 563.596 C 153.423 532.864, 148.974 527.065, 149.017 514.572 C 149.027 511.782, 150.302 501.035, 151.850 490.689 L 154.664 471.878 151.882 470.439 C 148.240 468.556, 148.251 468.552, 147.593 471.750 M 175.566 474.374 C 173.184 476.191, 172.224 479.945, 169.531 497.984 L 166.984 515.044 169.242 519.436 C 170.837 522.539, 180.426 532.151, 201.889 552.165 C 218.604 567.749, 233.678 581.400, 235.389 582.500 C 239.357 585.052, 248.171 584.964, 281.500 582.037 C 311.336 579.417, 312.937 579.161, 315.472 576.589 C 316.604 575.440, 319.735 569.021, 322.428 562.324 L 327.325 550.147 321.913 543.893 C 316.431 537.560, 277.959 500.577, 270.378 494.352 C 265.314 490.195, 260.464 488.927, 221.500 481.569 C 174.786 472.747, 177.203 473.126, 175.566 474.374 M 579 475.618 C 572.125 476.956, 558.175 479.637, 548 481.576 C 518.349 487.226, 506.776 490.005, 502.432 492.517 C 497.851 495.168, 456.328 534.454, 448.245 543.786 L 442.990 549.853 445.561 556.980 C 449.760 568.621, 453.728 576.786, 455.674 577.793 C 458.516 579.262, 462.733 579.799, 489 582.034 C 523.217 584.946, 530.686 585.022, 534.635 582.500 C 540.424 578.802, 598.359 523.973, 600.797 519.885 L 603.208 515.841 600.541 498.170 C 597.867 480.451, 595.797 473.636, 593 473.342 C 592.175 473.256, 585.875 474.280, 579 475.618 M 153.570 594.688 C 147.215 598.917, 141.798 603.079, 141.533 603.938 C 141.038 605.541, 130.763 657.625, 126.973 677.741 L 124.855 688.983 129.677 698.168 C 135.329 708.931, 139.669 714, 143.233 714 C 146.869 714, 150.194 717.044, 156.661 726.291 C 159.818 730.806, 167.377 741.250, 173.458 749.500 L 184.515 764.500 183.963 769.236 L 183.411 773.972 204.121 794.597 C 215.512 805.941, 225.264 814.955, 225.793 814.628 C 226.321 814.301, 227.292 811.889, 227.950 809.267 C 228.609 806.645, 230.904 800.745, 233.052 796.156 C 248.922 762.254, 285.564 738.094, 337.138 727.528 C 354.969 723.875, 371.419 722.665, 394 723.346 C 420.414 724.143, 438.589 727.394, 462 735.510 C 502.498 749.550, 530.806 774.974, 541.044 806.500 C 542.295 810.350, 543.685 813.916, 544.134 814.425 C 544.599 814.952, 553.906 806.459, 565.772 794.679 L 586.593 774.008 586.039 769.254 L 585.485 764.500 596.542 749.500 C 602.623 741.250, 610.182 730.806, 613.339 726.291 C 619.806 717.044, 623.131 714, 626.767 714 C 630.382 714, 634.724 708.879, 640.386 697.940 L 645.272 688.500 636.860 645.500 L 628.449 602.500 621.974 598.208 C 618.413 595.847, 612.692 592.323, 609.260 590.377 L 603.020 586.839 600.260 588.997 C 598.742 590.183, 586.414 601.132, 572.863 613.327 C 545.408 638.037, 546.019 637.288, 529.498 666.500 C 504.145 711.328, 500.750 717.062, 498.707 718.493 C 495.212 720.941, 488.653 720.420, 485.077 717.411 C 479.102 712.383, 480.119 709.655, 503.881 667.001 C 519.003 639.857, 519.295 642.730, 501.302 641.564 L 490.187 640.844 488.648 646.172 C 487.801 649.102, 484.623 660.500, 481.585 671.500 C 478.548 682.500, 475.561 693.245, 474.949 695.378 C 473.186 701.515, 470.031 704, 464 704 C 459.858 704, 458.427 703.518, 456.323 701.414 C 453.989 699.080, 453.788 698.277, 454.252 693.164 C 454.535 690.049, 457.552 676.997, 460.956 664.161 C 464.360 651.324, 466.926 640.250, 466.658 639.551 C 466.360 638.773, 463.521 638.078, 459.335 637.758 C 450.281 637.066, 442.283 633.891, 434.434 627.876 L 428 622.944 428 628.895 C 428 632.167, 428.690 645.965, 429.534 659.556 C 431.178 686.061, 430.877 689.572, 426.701 692.497 C 425.521 693.324, 422.655 694, 420.333 694 C 414.945 694, 411.222 690.941, 409.989 685.500 C 409.491 683.300, 408.164 666.875, 407.042 649 C 405.919 631.125, 404.743 614.138, 404.429 611.250 L 403.856 606 385 606 L 366.144 606 365.589 611.250 C 365.284 614.138, 364.099 631.125, 362.956 649 C 361.813 666.875, 360.479 683.300, 359.992 685.500 C 358.788 690.939, 355.069 694, 349.667 694 C 347.345 694, 344.479 693.324, 343.299 692.497 C 339.123 689.572, 338.822 686.061, 340.466 659.556 C 341.310 645.965, 342 632.167, 342 628.895 L 342 622.944 335.566 627.876 C 327.717 633.891, 319.719 637.066, 310.665 637.758 C 306.495 638.077, 303.640 638.774, 303.344 639.547 C 303.077 640.243, 305.667 651.317, 309.099 664.156 C 312.532 676.995, 315.537 690.007, 315.777 693.071 C 316.191 698.339, 316.041 698.787, 313.031 701.321 C 308.827 704.858, 302.316 705.062, 299.299 701.750 C 295.950 698.072, 295.282 696.193, 287.948 669.791 C 284.084 655.881, 280.674 643.677, 280.369 642.672 C 279.859 640.986, 278.951 640.899, 268.700 641.564 C 250.806 642.724, 251.147 640.004, 265.637 666 C 289.257 708.374, 290.547 711.732, 285.313 717.195 C 283.170 719.432, 281.739 720, 278.247 720 C 275.839 720, 273.049 719.561, 272.047 719.025 C 270.060 717.962, 262.965 706.090, 240.954 667 C 227.096 642.389, 226.263 641.168, 217.048 631.975 C 204.702 619.658, 167.863 587, 166.316 587 C 165.661 587, 159.925 590.460, 153.570 594.688 M 63.876 646.750 C 97.524 713.863, 134.566 768.393, 176.638 812.750 L 190.154 827 197.677 827 L 205.200 827 186.953 808.250 C 152.076 772.412, 126.880 739.026, 107.895 703.495 C 101.860 692.199, 101.876 693.644, 107.470 665.303 L 110.864 648.107 108.264 641.553 L 105.664 635 81.824 635 L 57.985 635 63.876 646.750 M 661.854 642.021 L 659.593 649.042 661.887 661.271 C 663.149 667.997, 664.893 677.813, 665.763 683.085 L 667.343 692.670 664.107 699.585 C 659.972 708.423, 653.040 720.003, 641.711 737 C 624.400 762.971, 608.283 782.491, 581.806 809.554 L 564.738 827 572.292 827 L 579.846 827 593.362 812.750 C 635.434 768.393, 672.476 713.863, 706.124 646.750 L 712.015 635 688.065 635 L 664.115 635 661.854 642.021 M 69 703.229 C 69 704.177, 88.120 763.306, 92.531 776 C 94.538 781.775, 97.723 789.425, 99.610 793 C 106.683 806.404, 133.872 837.018, 154.328 854.613 C 167.684 866.101, 181.359 876.432, 181.722 875.309 C 181.866 874.864, 180.525 867.460, 178.742 858.856 L 175.500 843.211 160.764 827.578 C 129.079 793.963, 102.976 759.196, 78.497 718 C 70.827 705.094, 69 702.252, 69 703.229 M 692.988 715.789 C 667.795 758.338, 640.668 794.385, 606.916 830.161 L 594.333 843.500 591.175 859.425 C 589.438 868.183, 588.227 875.560, 588.484 875.817 C 588.741 876.075, 595.600 870.952, 603.726 864.433 C 627.751 845.160, 655.851 815.749, 668.635 796.494 C 670.559 793.597, 673.933 786.115, 676.134 779.867 C 681.443 764.795, 701.093 703.759, 700.747 703.414 C 700.598 703.264, 697.106 708.833, 692.988 715.789 M 354.394 746.544 C 319.217 751.679, 288.652 764.679, 270.181 782.363 C 258.178 793.855, 251.637 805.048, 247.959 820.386 C 244.973 832.843, 245.555 833.303, 251.263 823 C 258.920 809.180, 262.379 804.497, 271.974 794.958 C 326.859 740.392, 438.306 739.290, 496.039 792.742 C 505.096 801.128, 513.735 812.699, 519.424 824.062 C 524.287 833.777, 524.896 833.390, 522.520 822.094 C 514.136 782.239, 473.912 754.568, 412.699 746.546 C 398.289 744.658, 367.323 744.657, 354.394 746.544 M 372 772.075 C 366.225 772.508, 358.173 773.575, 354.108 774.447 C 347.111 775.948, 338 779.305, 338 780.383 C 338 780.656, 339.350 786.407, 341 793.164 C 342.650 799.921, 344 806.673, 344 808.168 C 344 813.463, 335.261 816.156, 331.514 812.015 C 330.526 810.923, 328.310 805.005, 326.589 798.862 C 324.786 792.424, 322.774 787.260, 321.838 786.670 C 317.801 784.123, 298.514 795.802, 284.358 809.364 L 275.866 817.500 279.965 830.500 C 285.401 847.741, 285.859 851.141, 283.120 853.880 C 278.678 858.322, 271.969 855.357, 269.452 847.840 C 268.015 843.548, 263.889 842.674, 261.662 846.190 C 259.311 849.903, 256.801 862.849, 256.767 871.434 C 256.725 882.445, 257.481 883, 272.525 883 L 283.829 883 287.906 874.576 C 290.149 869.942, 294.619 862.836, 297.839 858.784 C 303.336 851.866, 315.538 841, 317.808 841 C 318.372 841, 318.983 840.646, 319.167 840.214 C 319.877 838.540, 336.252 830.861, 346.127 827.572 C 351.832 825.671, 360.517 823.561, 365.426 822.882 C 376.638 821.332, 378 820.174, 378 812.191 C 378 804.624, 379.509 802.545, 385 802.545 C 389.838 802.545, 391.675 804.350, 392.510 809.924 C 393.630 817.399, 394.549 820.328, 396 821.052 C 396.825 821.464, 401.100 822.330, 405.500 822.976 C 409.900 823.623, 418.168 825.699, 423.873 827.590 C 433.729 830.855, 450.119 838.531, 450.833 840.214 C 451.017 840.646, 451.613 841, 452.159 841 C 454.306 841, 465.318 850.493, 470.996 857.239 C 474.292 861.154, 479.070 868.552, 481.614 873.679 L 486.241 883 498.049 883 C 507.450 883, 510.177 882.680, 511.429 881.429 C 513.771 879.087, 513.507 864.908, 510.917 853.874 L 508.833 845 505.463 845 C 502.441 845, 501.892 845.455, 500.141 849.414 C 497.170 856.130, 492.553 857.796, 487.635 853.927 C 486.094 852.716, 485 850.857, 485 849.452 C 485 848.130, 487.070 840.400, 489.599 832.274 L 494.199 817.500 485.407 809.186 C 470.820 795.389, 452.192 784.128, 448.162 786.670 C 447.226 787.260, 445.214 792.424, 443.411 798.862 C 441.690 805.005, 439.474 810.923, 438.486 812.015 C 434.764 816.128, 426 813.466, 426 808.223 C 426 806.758, 427.409 799.734, 429.131 792.613 C 432.008 780.719, 432.128 779.567, 430.613 778.459 C 428.446 776.875, 410.380 773.168, 401.500 772.486 C 387.051 771.377, 382.223 771.309, 372 772.075 M 364.625 841.490 C 336.672 847.305, 315.489 861.652, 306.205 881.056 C 302.202 889.424, 300.695 895.143, 299.567 906.250 C 298.860 913.207, 300.305 913.816, 301.957 907.258 C 303.689 900.379, 310.255 888.312, 315.572 882.237 C 321.618 875.328, 330.612 869.004, 342.195 863.517 C 356.767 856.615, 362.253 855.600, 385 855.600 C 407.747 855.600, 413.233 856.615, 427.805 863.517 C 439.388 869.004, 448.382 875.328, 454.428 882.237 C 459.745 888.312, 466.311 900.379, 468.043 907.258 C 469.724 913.932, 470.901 913.152, 470.319 905.750 C 468.973 888.619, 463.272 876.080, 451.555 864.480 C 440.347 853.383, 426.781 846.408, 408.500 842.344 C 398.642 840.153, 373.415 839.661, 364.625 841.490 M 239.971 846.039 C 239.162 846.551, 229.613 846.976, 218.750 846.985 C 206.590 846.994, 199 847.375, 199 847.976 C 199 849.285, 207.919 892.266, 208.244 892.525 C 208.996 893.124, 212.999 895.028, 212.996 894.785 C 212.994 894.628, 211.880 888.875, 210.520 882 C 209.160 875.125, 208.036 868.240, 208.023 866.700 C 207.967 859.935, 213.669 855.152, 220.307 856.398 C 222.144 856.743, 226.879 859.301, 230.828 862.083 C 235.731 865.538, 238.142 866.723, 238.431 865.821 C 239.253 863.248, 242.131 845.798, 241.789 845.456 C 241.598 845.265, 240.780 845.527, 239.971 846.039 M 528.003 845.715 C 528.009 847.112, 531.056 864.457, 531.539 865.841 C 531.877 866.808, 533.376 866.199, 536.914 863.657 C 548.420 855.391, 553.876 854.375, 559.378 859.475 C 562.698 862.551, 562.711 864.889, 559.505 881.542 C 558.133 888.669, 557.008 894.628, 557.005 894.785 C 557.001 895.028, 561.005 893.123, 561.756 892.525 C 562.081 892.266, 571 849.285, 571 847.976 C 571 847.375, 563.485 847, 551.434 847 C 539.859 847, 531.079 846.577, 529.934 845.965 C 528.870 845.395, 528.001 845.283, 528.003 845.715 M 374.404 876.993 C 352.430 879.395, 333.612 891.057, 325.481 907.312 C 323.566 911.138, 322 914.883, 322 915.634 C 322 916.684, 324.024 917.001, 330.750 917.006 C 335.563 917.009, 341.086 917.452, 343.026 917.991 C 351.764 920.418, 352.442 933.784, 343.974 936.694 C 342.063 937.350, 336.589 937.913, 331.809 937.944 C 327.029 937.975, 322.871 938.399, 322.570 938.887 C 321.492 940.631, 329.105 953.840, 334.311 959.259 C 342.466 967.746, 352.357 973.336, 366 977.168 C 368.683 977.921, 376.356 978.431, 385 978.431 C 393.644 978.431, 401.317 977.921, 404 977.168 C 417.647 973.335, 430.104 966.172, 436.997 958.192 C 441.411 953.083, 448.312 940.314, 447.430 938.887 C 447.129 938.399, 442.374 938, 436.864 938 C 427.125 938, 426.765 937.919, 423.923 935.077 C 421.530 932.684, 421 931.310, 421 927.500 C 421 923.690, 421.530 922.316, 423.923 919.923 C 426.733 917.113, 427.207 916.999, 436.173 916.985 C 449.147 916.963, 449.360 916.727, 444.681 907.578 C 437.628 893.790, 422.122 882.228, 405.811 878.593 C 397.534 876.749, 383.277 876.023, 374.404 876.993 M 235.473 895.116 C 237.181 903.476, 238.309 906.382, 240.715 908.611 C 243.759 911.432, 245.328 911.688, 244.642 909.250 C 244.371 908.288, 243.857 905.925, 243.500 904 C 242.373 897.926, 242.003 897.240, 238.352 894.455 L 234.782 891.732 235.473 895.116 M 531.161 894.869 C 528.581 896.974, 527.520 898.922, 526.433 903.542 C 524.380 912.269, 524.541 912.558, 529.323 908.731 C 531.526 906.968, 532.462 904.962, 533.589 899.586 C 534.383 895.798, 534.910 892.576, 534.760 892.426 C 534.610 892.277, 532.990 893.376, 531.161 894.869 M 267.169 901.874 C 266.080 902.565, 266.269 904.880, 268.212 914.609 L 270.585 926.500 274.543 926.500 L 278.500 926.500 278.208 917.500 C 278.047 912.550, 277.670 906.813, 277.370 904.750 C 276.839 901.102, 276.711 901, 272.662 901.015 C 270.373 901.024, 267.901 901.410, 267.169 901.874 M 492 910.875 C 492 916.306, 491.719 922.156, 491.375 923.875 C 490.773 926.883, 490.876 926.999, 494.125 926.985 C 495.981 926.976, 498.013 926.639, 498.641 926.235 C 500.019 925.347, 504.382 904.439, 503.609 902.424 C 503.228 901.429, 501.395 901, 497.531 901 L 492 901 492 910.875" stroke="none" fill="#fbfbfb" fill-rule="evenodd"/></svg>