<svg xmlns="http://www.w3.org/2000/svg" width="780" height="1000" viewBox="0 0 780 1000" version="1.1"><path d="M 366.991 18.332 C 366.711 18.618, 361.986 19.125, 356.491 19.458 C 350.996 19.791, 342.450 20.744, 337.500 21.574 C 332.550 22.405, 325.800 23.489, 322.500 23.983 C 315.901 24.971, 299.939 28.536, 296 29.902 C 294.625 30.378, 291.475 31.335, 289 32.027 C 271.860 36.823, 247.124 46.796, 227.500 56.823 C 211.794 64.848, 186.499 81, 179.265 87.623 L 175.031 91.500 171.418 130.795 C 169.431 152.407, 168.088 171.214, 168.433 172.587 C 168.777 173.961, 169.738 175.346, 170.568 175.664 C 172.285 176.324, 180.382 173.475, 182.332 171.525 C 183.044 170.813, 186.298 169.104, 189.563 167.727 C 192.829 166.350, 201.028 162.704, 207.785 159.624 C 228.991 149.959, 253.869 141.468, 277.859 135.708 L 291.218 132.500 311.245 105.167 C 322.260 90.133, 332.223 77.440, 333.386 76.959 C 344.833 72.223, 415.272 71.762, 433.644 76.303 L 438.486 77.500 458.519 104.825 L 478.551 132.150 495.526 136.501 C 523.282 143.615, 544.646 151.300, 572.332 164.128 C 580.490 167.908, 587.385 171, 587.654 171 C 587.923 171, 588.806 171.663, 589.616 172.473 C 590.426 173.284, 592.924 174.496, 595.166 175.168 C 598.826 176.265, 599.383 176.197, 600.621 174.503 C 602.468 171.978, 602.494 172.516, 598.507 129.867 C 596.586 109.315, 595.011 92.030, 595.007 91.456 C 595.003 90.881, 591.288 87.686, 586.750 84.355 C 534.995 46.358, 477.440 24.796, 413 19.262 C 404.166 18.503, 367.549 17.764, 366.991 18.332 M 70 24.322 L 65.500 26.527 65.246 162.822 C 65.074 255.636, 65.324 299.737, 66.032 301.059 C 67.260 303.355, 69.288 303.563, 70.947 301.564 C 71.602 300.775, 73.461 299.838, 75.077 299.483 C 76.694 299.128, 78.463 298.004, 79.008 296.984 C 79.650 295.786, 80 247.285, 80 159.601 C 80 26.629, 79.963 24.051, 78.066 23.035 C 75.548 21.688, 75.297 21.727, 70 24.322 M 691.750 23.056 C 690.097 24.041, 690 31.617, 690 159.615 C 690 247.289, 690.350 295.786, 690.992 296.984 C 691.537 298.004, 693.306 299.128, 694.923 299.483 C 696.539 299.838, 698.398 300.775, 699.053 301.564 C 700.711 303.562, 702.739 303.356, 703.965 301.066 C 704.664 299.759, 705 254.776, 705 162.515 L 705 25.898 701.695 24.517 C 696.503 22.348, 693.643 21.927, 691.750 23.056 M 174.334 474.872 C 172.929 476.380, 171.807 481.470, 169.693 495.929 L 166.905 514.996 168.893 519.248 C 171.063 523.891, 174.284 528, 175.752 528 C 176.264 528, 179.492 530.925, 182.925 534.500 C 186.357 538.075, 189.505 541, 189.919 541 C 190.333 541, 193.713 544.150, 197.430 548 C 201.147 551.850, 204.522 555, 204.930 555 C 205.338 555, 208.713 558.150, 212.430 562 C 216.147 565.850, 219.524 569, 219.935 569 C 220.347 569, 223.433 571.863, 226.793 575.363 C 233.970 582.837, 238.026 585.016, 244.651 584.957 C 247.318 584.933, 263.984 583.668, 281.686 582.147 C 313.010 579.454, 313.925 579.315, 315.888 576.940 C 318.055 574.318, 327 552.449, 327 549.773 C 327 547.277, 271.878 493.982, 266.436 491.216 C 263.117 489.529, 250.715 486.821, 221.672 481.440 C 199.577 477.346, 180.305 473.746, 178.844 473.440 C 176.968 473.046, 175.643 473.466, 174.334 474.872 M 550.500 480.928 C 521.794 486.326, 507.931 489.366, 504.268 491.069 C 500.228 492.946, 492.657 499.724, 471.018 520.834 C 455.608 535.867, 443 548.775, 443 549.517 C 443 552.038, 452.110 574.487, 454.133 576.950 C 456.098 579.343, 456.911 579.465, 488.823 582.151 C 506.795 583.664, 523.457 584.924, 525.849 584.951 C 531.875 585.019, 536.207 582.683, 542.721 575.853 C 545.792 572.634, 548.644 570, 549.058 570 C 549.473 570, 552.853 566.850, 556.570 563 C 560.287 559.150, 563.662 556, 564.070 556 C 564.478 556, 567.853 552.850, 571.570 549 C 575.287 545.150, 578.662 542, 579.070 542 C 579.478 542, 582.853 538.850, 586.570 535 C 590.287 531.150, 593.745 528, 594.254 528 C 595.567 528, 598.687 524.174, 601.145 519.551 L 603.244 515.602 600.400 496.251 C 597.560 476.928, 596.187 472.796, 592.711 473.109 C 592.045 473.169, 573.050 476.688, 550.500 480.928 M 369.718 772.022 C 351.786 773.732, 337.990 777.741, 338.006 781.235 C 338.009 781.931, 339.356 787.450, 341 793.500 C 342.644 799.550, 343.991 805.893, 343.994 807.595 C 344.003 812.046, 341.197 814.197, 335.884 813.812 C 330.629 813.432, 330.235 812.761, 326.309 797.500 C 323.651 787.166, 323.318 786.481, 320.814 786.191 C 314.578 785.467, 295.734 797.521, 283.168 810.272 L 275.837 817.711 280.418 832.189 C 285.548 848.398, 285.871 851.129, 283 854 C 278.471 858.529, 271.266 855.255, 269.463 847.847 C 268.512 843.944, 268.104 843.500, 265.466 843.500 C 261.710 843.500, 260.457 846.012, 257.811 858.842 C 256.469 865.349, 256.019 870.247, 256.431 873.855 C 257.490 883.136, 257.265 883, 271.577 883 L 284.084 883 287.024 876.446 C 288.642 872.841, 291.620 867.399, 293.642 864.352 C 298.113 857.617, 306.768 848, 308.360 848 C 308.997 848, 310.081 847.100, 310.768 846 C 311.455 844.900, 312.640 844, 313.401 844 C 314.163 844, 315.045 843.325, 315.362 842.500 C 315.678 841.675, 316.626 841, 317.469 841 C 318.311 841, 319 840.550, 319 840 C 319 839.450, 319.643 839, 320.429 839 C 321.214 839, 322.452 838.438, 323.179 837.750 C 323.905 837.063, 326.300 835.653, 328.500 834.618 C 343.190 827.706, 356.568 823.701, 369.291 822.406 C 377.382 821.583, 378 820.823, 378 811.688 C 378 804.153, 379.251 802.545, 385.113 802.545 C 390.484 802.545, 392.062 804.532, 392.717 812.119 C 393.420 820.257, 394.338 822, 397.925 822 C 402.289 822, 416.023 824.788, 423.137 827.119 C 430.904 829.663, 445.014 835.982, 446.821 837.725 C 447.548 838.426, 448.786 839, 449.571 839 C 450.357 839, 451 839.450, 451 840 C 451 840.550, 451.689 841, 452.531 841 C 453.374 841, 454.322 841.675, 454.638 842.500 C 454.955 843.325, 455.855 844, 456.638 844 C 457.422 844, 458.322 844.675, 458.638 845.500 C 458.955 846.325, 459.792 847, 460.499 847 C 462.269 847, 472.575 858.297, 476.726 864.786 C 478.601 867.718, 481.436 873.015, 483.026 876.558 L 485.916 883 498.423 883 C 510.345 883, 510.990 882.895, 512.215 880.750 C 514.315 877.073, 513.574 861.835, 510.842 852.500 L 508.500 844.500 505.032 844.500 C 501.897 844.500, 501.465 844.850, 500.532 848.150 C 498.565 855.105, 494.035 857.667, 488.684 854.850 C 483.778 852.268, 483.854 850.396, 489.595 832.254 L 494.189 817.735 486.345 809.830 C 474.060 797.450, 455.605 785.606, 449.532 786.204 C 446.581 786.494, 446.462 786.725, 443.691 797.500 C 439.765 812.761, 439.371 813.432, 434.116 813.812 C 428.803 814.197, 425.997 812.046, 426.006 807.595 C 426.009 805.893, 427.356 799.550, 429 793.500 C 432.945 778.977, 432.915 778.322, 428.250 777.072 C 409.074 771.935, 388.891 770.193, 369.718 772.022" stroke="none" fill="#04ecac" fill-rule="evenodd"/><path d="M 67.012 5.567 C 58.494 8.572, 50.619 11.937, 49.512 13.043 C 47.532 15.023, 47.496 16.400, 47.233 99.758 L 46.966 184.462 30.066 201.481 C 16.110 215.534, 13.070 219.110, 12.620 222 C 12.319 223.925, 9.309 286.475, 5.929 361 C 0.968 470.370, -0.111 500.646, 0.329 518 C 1.050 546.451, 4.875 572.536, 11.844 596.533 C 13.436 602.015, 28.782 649.925, 45.947 703 C 80.902 811.083, 77.124 801.770, 95.171 824.346 C 114.229 848.186, 136.677 869.753, 162.500 889.032 C 182.768 904.163, 191.574 909.466, 207.617 916.198 C 220.938 921.787, 224.374 923.785, 240.348 935.222 L 258.196 948 272.981 948 L 287.765 948 292.133 954.714 C 304.884 974.316, 327.433 989.606, 354 996.663 C 366.898 1000.089, 392.822 1001.030, 406.901 998.582 C 423.104 995.766, 438.536 989.689, 451.930 980.851 C 460.439 975.236, 472.476 963.130, 477.881 954.750 L 482.235 948 497.019 948 L 511.804 948 529.652 935.222 C 545.626 923.785, 549.062 921.787, 562.383 916.198 C 578.025 909.634, 587.054 904.253, 606 890.202 C 631.328 871.419, 655.738 848.202, 673.501 826 C 693.129 801.467, 688.857 811.883, 724.389 701.904 C 741.731 648.226, 757.069 600.343, 758.473 595.497 C 765.102 572.622, 768.962 545.917, 769.675 518 C 770.119 500.618, 769.047 470.549, 764.079 361 C 760.699 286.475, 757.686 223.925, 757.384 222 C 756.931 219.112, 753.878 215.523, 739.934 201.481 L 723.034 184.462 722.767 99.758 C 722.502 15.722, 722.484 15.039, 720.438 12.994 C 717.613 10.169, 688.022 0, 682.627 0 C 679.187 0, 677.813 0.586, 675.437 3.065 L 672.500 6.131 672 137.315 C 671.592 244.425, 671.269 267.871, 670.240 265.071 C 669.546 263.185, 666.059 256.779, 662.490 250.835 L 656 240.027 656 212.190 C 656 181.149, 654.943 171.742, 649.798 157 C 642.617 136.426, 625.098 112, 617.522 112 C 616.135 112, 614.987 111.888, 614.970 111.750 C 614.954 111.612, 614.309 105.010, 613.537 97.078 C 612.456 85.961, 611.694 82.066, 610.213 80.078 C 607.543 76.495, 590.146 63.503, 576.118 54.616 C 527.341 23.714, 471.102 5.522, 410.500 1.043 C 342.719 -3.967, 270.908 11.467, 212.500 43.598 C 191.572 55.111, 161.691 75.971, 159.045 80.915 C 158.474 81.982, 157.546 87.500, 156.981 93.177 C 155.070 112.414, 155.170 112, 152.416 112 C 144.904 112, 127.350 136.520, 120.202 157 C 115.057 171.742, 114 181.149, 114 212.190 L 114 240.027 107.510 250.835 C 103.941 256.779, 100.454 263.185, 99.760 265.071 C 98.731 267.871, 98.408 244.425, 98 137.315 L 97.500 6.131 94.563 3.065 C 90.235 -1.452, 85.752 -1.045, 67.012 5.567 M 366.991 18.332 C 366.711 18.618, 361.986 19.125, 356.491 19.458 C 350.996 19.791, 342.450 20.744, 337.500 21.574 C 332.550 22.405, 325.800 23.489, 322.500 23.983 C 315.901 24.971, 299.939 28.536, 296 29.902 C 294.625 30.378, 291.475 31.335, 289 32.027 C 271.860 36.823, 247.124 46.796, 227.500 56.823 C 211.794 64.848, 186.499 81, 179.265 87.623 L 175.031 91.500 171.418 130.795 C 169.431 152.407, 168.088 171.214, 168.433 172.587 C 168.777 173.961, 169.738 175.346, 170.568 175.664 C 172.285 176.324, 180.382 173.475, 182.332 171.525 C 183.044 170.813, 186.298 169.104, 189.563 167.727 C 192.829 166.350, 201.028 162.704, 207.785 159.624 C 228.991 149.959, 253.869 141.468, 277.859 135.708 L 291.218 132.500 311.245 105.167 C 322.260 90.133, 332.223 77.440, 333.386 76.959 C 344.833 72.223, 415.272 71.762, 433.644 76.303 L 438.486 77.500 458.519 104.825 L 478.551 132.150 495.526 136.501 C 523.282 143.615, 544.646 151.300, 572.332 164.128 C 580.490 167.908, 587.385 171, 587.654 171 C 587.923 171, 588.806 171.663, 589.616 172.473 C 590.426 173.284, 592.924 174.496, 595.166 175.168 C 598.826 176.265, 599.383 176.197, 600.621 174.503 C 602.468 171.978, 602.494 172.516, 598.507 129.867 C 596.586 109.315, 595.011 92.030, 595.007 91.456 C 595.003 90.881, 591.288 87.686, 586.750 84.355 C 534.995 46.358, 477.440 24.796, 413 19.262 C 404.166 18.503, 367.549 17.764, 366.991 18.332 M 70 24.322 L 65.500 26.527 65.246 162.822 C 65.074 255.636, 65.324 299.737, 66.032 301.059 C 67.260 303.355, 69.288 303.563, 70.947 301.564 C 71.602 300.775, 73.461 299.838, 75.077 299.483 C 76.694 299.128, 78.463 298.004, 79.008 296.984 C 79.650 295.786, 80 247.285, 80 159.601 C 80 26.629, 79.963 24.051, 78.066 23.035 C 75.548 21.688, 75.297 21.727, 70 24.322 M 691.750 23.056 C 690.097 24.041, 690 31.617, 690 159.615 C 690 247.289, 690.350 295.786, 690.992 296.984 C 691.537 298.004, 693.306 299.128, 694.923 299.483 C 696.539 299.838, 698.398 300.775, 699.053 301.564 C 700.711 303.562, 702.739 303.356, 703.965 301.066 C 704.664 299.759, 705 254.776, 705 162.515 L 705 25.898 701.695 24.517 C 696.503 22.348, 693.643 21.927, 691.750 23.056 M 351.509 92.129 C 346.562 92.669, 342.214 93.647, 341.843 94.305 C 340.742 96.253, 304.925 145.384, 303.581 146.791 C 302.902 147.501, 295.198 149.863, 286.461 152.041 C 277.724 154.218, 269.771 156.255, 268.788 156.567 C 267.081 157.109, 267 164.243, 267 314.567 C 267 427.129, 267.309 472, 268.086 472 C 268.683 472, 272.141 473.463, 275.772 475.250 C 281.538 478.089, 287.080 483.147, 319.633 515.279 C 343.024 538.367, 358.205 552.606, 360.415 553.529 C 365.514 555.659, 404.510 555.649, 409.615 553.517 C 411.864 552.577, 426.688 538.675, 450.067 515.581 C 485.233 480.844, 487.343 478.950, 494.924 475.315 L 502.879 471.500 502.939 314.297 L 503 157.094 499.250 156.041 C 497.188 155.461, 489.875 153.623, 483 151.955 C 476.125 150.288, 469.521 148.432, 468.325 147.833 C 467.128 147.233, 457.453 134.706, 446.825 119.995 C 427.944 93.862, 427.408 93.233, 423.500 92.620 C 416.358 91.499, 360.757 91.120, 351.509 92.129 M 148.875 146 C 139.156 162.658, 135.938 173.652, 135.264 192.500 C 134.988 200.200, 134.994 206.275, 135.277 206 C 135.559 205.725, 138.559 201.756, 141.942 197.181 L 148.094 188.862 150.083 167.681 C 151.177 156.031, 151.943 145.375, 151.786 144 C 151.524 141.709, 151.280 141.877, 148.875 146 M 618.040 144 C 618.027 145.375, 618.916 156.064, 620.015 167.753 L 622.013 189.006 628.111 197.253 C 631.465 201.789, 634.441 205.725, 634.723 206 C 635.006 206.275, 635.012 200.200, 634.736 192.500 C 634.336 181.315, 633.708 176.734, 631.613 169.718 C 629.100 161.303, 622.880 147.712, 619.614 143.500 C 618.093 141.538, 618.063 141.548, 618.040 144 M 241.500 165.204 C 223.677 171.422, 196.136 183.882, 179.175 193.402 L 169 199.113 169 326.037 L 169 452.962 171.250 453.461 C 176.792 454.690, 195.243 458, 196.551 458 C 197.715 458, 198 456.124, 198 448.450 C 198 437.508, 199.292 433.950, 203.969 432.013 C 208.259 430.236, 214.006 431.364, 216.750 434.522 C 218.830 436.916, 219 438.074, 219 449.831 L 219 462.550 231.750 464.808 C 238.762 466.049, 244.838 467.050, 245.250 467.032 C 245.662 467.015, 246 398.825, 246 315.500 C 246 232.175, 245.662 164.036, 245.250 164.079 C 244.838 164.122, 243.150 164.629, 241.500 165.204 M 524 315.500 C 524 427.621, 524.294 467, 525.132 467 C 525.755 467, 531.796 466.025, 538.558 464.833 L 550.851 462.666 551.176 449.244 C 551.497 435.949, 551.527 435.799, 554.306 433.411 C 558.187 430.076, 564.813 430.076, 568.694 433.411 C 571.419 435.753, 571.510 436.152, 571.832 447.233 L 572.163 458.644 586.332 455.844 C 594.124 454.304, 600.612 453.034, 600.750 453.022 C 600.888 453.010, 601 395.859, 601 326.020 L 601 199.040 595.750 196.004 C 586.244 190.505, 565.692 180.284, 554.500 175.490 C 544.692 171.288, 525.631 164, 524.450 164 C 524.203 164, 524 232.175, 524 315.500 M 39.820 221.723 L 33.140 228.500 26.969 363 C 20.171 511.177, 19.966 524.258, 24.010 551.500 L 26.237 566.500 36.918 590 L 47.598 613.500 72.799 613.767 C 89.145 613.940, 98 613.682, 98 613.032 C 98 612.481, 96.850 608.086, 95.444 603.265 C 89.162 581.728, 83.167 551.534, 80.851 529.774 C 80.191 523.573, 79.224 517.938, 78.703 517.250 C 78.182 516.563, 76.666 516, 75.335 516 C 67.904 516, 49.486 489.770, 43.078 470.061 C 37.805 453.845, 37.500 450.339, 37.500 406 C 37.500 360.386, 37.854 356.834, 44.121 339.489 L 47.016 331.478 46.758 273.212 L 46.500 214.946 39.820 221.723 M 723 273.067 L 723 331.617 725.918 339.613 C 731.816 355.775, 732.219 359.311, 732.724 399.348 C 733.330 447.484, 732.015 458.952, 723.593 478.920 C 716.595 495.513, 700.533 516, 694.521 516 C 691.158 516, 690.426 518.003, 689.035 531 C 686.837 551.541, 681.009 580.863, 674.968 601.771 C 673.335 607.420, 672 612.490, 672 613.038 C 672 613.681, 680.959 613.939, 697.229 613.767 L 722.458 613.500 733.075 590.162 C 744.563 564.908, 744.861 563.809, 748.014 535.150 C 749.819 518.741, 749.198 497.309, 742.982 361.500 L 736.895 228.500 729.947 221.509 L 723 214.517 723 273.067 M 139.637 238.661 C 135.312 245.614, 128.450 257.687, 124.387 265.490 L 117 279.676 117 380.944 C 117 492.927, 117.303 487.302, 110.500 501.500 C 108.656 505.350, 105.615 510.300, 103.744 512.500 L 100.341 516.500 102.178 531 C 105.179 554.697, 111.016 582.390, 117.354 603 L 118.738 607.500 119.935 601.500 C 122.149 590.400, 122.824 589.137, 128.595 585.306 C 131.568 583.332, 134 581.336, 134 580.870 C 134 580.405, 130.867 572.182, 127.038 562.596 C 119.898 544.720, 117.766 535.456, 118.731 526.500 C 120.655 508.637, 129.242 446.416, 129.971 445.055 C 132.371 440.570, 138.990 439.392, 144.826 442.410 L 148 444.051 148 335.026 C 148 275.062, 147.887 226.004, 147.750 226.009 C 147.613 226.014, 143.962 231.707, 139.637 238.661 M 622 334.794 L 622 444.051 625.052 442.473 C 626.902 441.517, 629.916 441.014, 632.702 441.197 C 640.480 441.709, 640.288 441.054, 646.487 488.321 C 653.132 538.984, 653.266 536.301, 642.784 562.902 C 635.991 580.143, 635.650 581.373, 637.377 582.402 C 646.639 587.919, 647.628 589.405, 650.090 601.500 L 651.312 607.500 653.158 601.500 C 659.110 582.162, 665.951 549.013, 668.327 528 L 669.627 516.500 666.385 512.653 C 664.602 510.538, 661.555 505.588, 659.614 501.653 C 652.779 487.800, 653.031 492.436, 653.015 380.310 L 653 279.119 647.352 268.310 C 641.914 257.900, 629.232 236.234, 624.354 229.018 L 622 225.536 622 334.794 M 88 406.500 C 88 456.063, 88.385 496, 88.863 496 C 89.338 496, 91.026 493.188, 92.613 489.750 L 95.500 483.500 95.772 400.250 L 96.045 317 92.022 317 L 88 317 88 406.500 M 674.228 400.250 L 674.500 483.500 677.387 489.750 C 678.974 493.188, 680.662 496, 681.137 496 C 681.615 496, 682 456.063, 682 406.500 L 682 317 677.978 317 L 673.955 317 674.228 400.250 M 64.735 344.750 C 58.726 359.955, 57.725 370.364, 58.245 412.266 C 58.713 449.940, 59.137 453.487, 64.852 467.500 L 66.891 472.500 66.945 406.750 C 66.975 370.587, 66.824 341, 66.609 341 C 66.393 341, 65.550 342.688, 64.735 344.750 M 703.155 406.500 L 703.141 472.500 705.511 466.500 C 711.188 452.129, 711.504 448.855, 711.452 405 C 711.407 366.656, 711.289 364.088, 709.247 356.767 C 708.061 352.514, 706.208 347.114, 705.130 344.767 L 703.169 340.500 703.155 406.500 M 143.603 497.554 C 139.880 526.101, 139.294 533.796, 140.498 538.354 C 140.809 539.534, 144.079 546.696, 147.763 554.268 C 152.944 564.918, 154.805 567.886, 155.981 567.370 C 160.708 565.295, 167.068 564.697, 172.197 565.845 C 178.697 567.300, 179.673 568.086, 212.345 598.202 C 231.069 615.461, 237.764 621.053, 240.271 621.523 C 242.084 621.863, 259.302 620.830, 278.534 619.228 C 308.615 616.722, 314.059 616.020, 317.500 614.209 C 319.700 613.050, 326.450 607.531, 332.500 601.943 C 339.989 595.026, 345.574 590.781, 350 588.642 L 356.500 585.500 385 585.500 L 413.500 585.500 420 588.619 C 424.471 590.764, 429.934 594.912, 437.500 601.907 C 443.550 607.500, 450.286 613.018, 452.468 614.170 C 455.869 615.964, 461.437 616.684, 491.423 619.205 C 510.666 620.822, 527.929 621.861, 529.785 621.512 C 532.390 621.024, 538.654 615.813, 557.222 598.690 C 590.786 567.737, 591.335 567.292, 597.755 565.855 C 602.929 564.698, 609.277 565.288, 614.010 567.366 C 616.027 568.253, 628.828 542.792, 630.002 535.559 C 630.629 531.694, 629.863 523.182, 626.757 499.500 C 624.521 482.450, 622.605 468.382, 622.499 468.237 C 622.080 467.663, 615 471.081, 615 471.857 C 615 472.313, 616.385 481.645, 618.077 492.593 C 620.049 505.353, 620.968 514.427, 620.637 517.867 C 619.568 528.966, 617.829 531.067, 581.940 564.611 C 545.634 598.545, 541.292 601.752, 530.439 602.644 C 527.173 602.912, 508.445 601.770, 488.822 600.105 C 458.593 597.541, 452.453 596.753, 448.618 594.950 C 441.760 591.727, 436.845 585.703, 432.919 575.709 C 429.524 567.068, 428.291 565.740, 426.108 568.370 C 425.483 569.123, 422.165 571.036, 418.735 572.620 L 412.500 575.500 385 575.500 L 357.500 575.500 351.265 572.620 C 347.835 571.036, 344.517 569.123, 343.892 568.370 C 341.839 565.896, 340.422 566.924, 338.545 572.250 C 334.126 584.792, 328.238 592.331, 320.256 595.666 C 317.075 596.996, 253.957 602.928, 242.432 602.981 C 236.856 603.007, 229.138 600.572, 224.297 597.261 C 222.078 595.742, 205.571 580.803, 187.614 564.061 C 145.138 524.459, 146.679 527.516, 151.909 493.244 C 153.609 482.103, 155 472.546, 155 472.007 C 155 471.291, 148.929 468, 147.606 468 C 147.524 468, 145.722 481.299, 143.603 497.554 M 174.334 474.872 C 172.929 476.380, 171.807 481.470, 169.693 495.929 L 166.905 514.996 168.893 519.248 C 171.063 523.891, 174.284 528, 175.752 528 C 176.264 528, 179.492 530.925, 182.925 534.500 C 186.357 538.075, 189.505 541, 189.919 541 C 190.333 541, 193.713 544.150, 197.430 548 C 201.147 551.850, 204.522 555, 204.930 555 C 205.338 555, 208.713 558.150, 212.430 562 C 216.147 565.850, 219.524 569, 219.935 569 C 220.347 569, 223.433 571.863, 226.793 575.363 C 233.970 582.837, 238.026 585.016, 244.651 584.957 C 247.318 584.933, 263.984 583.668, 281.686 582.147 C 313.010 579.454, 313.925 579.315, 315.888 576.940 C 318.055 574.318, 327 552.449, 327 549.773 C 327 547.277, 271.878 493.982, 266.436 491.216 C 263.117 489.529, 250.715 486.821, 221.672 481.440 C 199.577 477.346, 180.305 473.746, 178.844 473.440 C 176.968 473.046, 175.643 473.466, 174.334 474.872 M 550.500 480.928 C 521.794 486.326, 507.931 489.366, 504.268 491.069 C 500.228 492.946, 492.657 499.724, 471.018 520.834 C 455.608 535.867, 443 548.775, 443 549.517 C 443 552.038, 452.110 574.487, 454.133 576.950 C 456.098 579.343, 456.911 579.465, 488.823 582.151 C 506.795 583.664, 523.457 584.924, 525.849 584.951 C 531.875 585.019, 536.207 582.683, 542.721 575.853 C 545.792 572.634, 548.644 570, 549.058 570 C 549.473 570, 552.853 566.850, 556.570 563 C 560.287 559.150, 563.662 556, 564.070 556 C 564.478 556, 567.853 552.850, 571.570 549 C 575.287 545.150, 578.662 542, 579.070 542 C 579.478 542, 582.853 538.850, 586.570 535 C 590.287 531.150, 593.745 528, 594.254 528 C 595.567 528, 598.687 524.174, 601.145 519.551 L 603.244 515.602 600.400 496.251 C 597.560 476.928, 596.187 472.796, 592.711 473.109 C 592.045 473.169, 573.050 476.688, 550.500 480.928 M 153.500 594.123 C 146.900 598.499, 141.404 602.399, 141.286 602.790 C 140.568 605.172, 124.857 685.819, 124.696 687.945 C 124.570 689.628, 126.969 694.701, 131.475 702.275 C 138.291 713.732, 138.532 714, 142.003 714 C 146.992 714, 149.210 715.902, 156.004 726.007 C 159.281 730.880, 166.963 741.534, 173.074 749.683 L 184.186 764.500 183.543 769.366 L 182.900 774.231 203.927 795.116 C 215.492 806.602, 225.321 816, 225.770 816 C 226.218 816, 227.140 813.862, 227.818 811.250 C 239.564 766.010, 285.886 734.399, 354.500 724.800 C 366.313 723.148, 403.836 723.184, 416 724.860 C 448.544 729.343, 477.030 739.253, 498.914 753.703 C 510.125 761.106, 526.153 777.275, 531.796 786.873 C 536.523 794.913, 541.465 806.630, 542.535 812.333 C 542.913 814.350, 543.626 816, 544.119 816 C 544.611 816, 554.486 806.617, 566.062 795.150 L 587.109 774.299 586.455 769.372 L 585.801 764.444 596.725 749.972 C 602.733 742.012, 610.417 731.370, 613.801 726.323 C 620.787 715.903, 622.979 714, 627.997 714 C 631.468 714, 631.709 713.731, 638.525 702.278 C 642.361 695.830, 645.481 689.643, 645.459 688.528 C 645.436 687.412, 641.648 667.505, 637.041 644.289 L 628.663 602.077 616.181 593.989 C 609.316 589.541, 603.204 586.110, 602.599 586.365 C 601.995 586.620, 590.438 596.880, 576.918 609.165 C 563.398 621.449, 550.631 632.996, 548.549 634.824 C 545.789 637.247, 539.210 648.096, 524.294 674.824 C 513.037 694.996, 502.748 713.166, 501.431 715.201 C 497.655 721.036, 489.565 721.656, 484.414 716.505 C 479.674 711.765, 480.437 709.720, 500.010 674.712 L 518.020 642.500 504.260 641.338 C 496.692 640.698, 490.236 640.473, 489.914 640.838 C 489.592 641.202, 486.489 652.075, 483.018 665 C 473.949 698.771, 473.360 700.534, 470.529 702.389 C 469.177 703.275, 466.091 704, 463.672 704 C 457.786 704, 454 700.436, 454 694.897 C 454 692.791, 457.150 679.562, 461 665.500 C 464.850 651.438, 468 639.498, 468 638.966 C 468 638.435, 466.283 638, 464.184 638 C 452.708 638, 441.213 633.695, 433.019 626.327 C 430.216 623.807, 427.646 622.020, 427.309 622.357 C 426.972 622.694, 427.639 637.026, 428.791 654.205 C 430.664 682.145, 430.728 685.771, 429.394 688.581 C 426.550 694.575, 417.843 695.996, 413.089 691.243 C 409.730 687.884, 409.842 688.774, 406.874 641.750 L 404.617 606 385.019 606 L 365.422 606 363.143 641.750 C 360.139 688.878, 360.263 687.891, 356.911 691.243 C 352.157 695.996, 343.450 694.575, 340.606 688.581 C 339.272 685.771, 339.336 682.145, 341.209 654.205 C 342.361 637.026, 343.028 622.694, 342.691 622.357 C 342.354 622.020, 339.784 623.807, 336.981 626.327 C 328.787 633.695, 317.292 638, 305.816 638 C 303.717 638, 302 638.456, 302 639.013 C 302 639.570, 305.150 651.426, 309 665.360 C 312.850 679.294, 316 692.313, 316 694.292 C 316 699.561, 312.601 703.065, 306.860 703.712 C 302.840 704.165, 301.913 703.881, 299.198 701.364 C 296.396 698.766, 295.392 695.851, 288.396 670 C 284.154 654.325, 280.417 641.202, 280.092 640.838 C 279.766 640.473, 273.314 640.698, 265.753 641.338 L 252.006 642.500 270.003 674.680 C 289.972 710.387, 290.443 711.711, 285.077 717.077 C 282.719 719.435, 281.291 720, 277.688 720 C 274.903 720, 272.429 719.341, 271.116 718.250 C 269.958 717.288, 259.385 699.175, 247.622 678 C 231.490 648.963, 225.186 638.517, 221.973 635.500 C 204.719 619.298, 167.383 586.016, 166.538 586.084 C 165.967 586.129, 160.100 589.747, 153.500 594.123 M 63.615 646.250 C 98.030 714.997, 135.854 770.704, 177.152 813.468 L 190.219 827 197.903 827 L 205.586 827 185.513 806.750 C 157.399 778.388, 135.653 750.671, 117.128 719.588 C 104.541 698.467, 103 695.371, 103 691.194 C 103 689.085, 104.776 678.543, 106.946 667.768 L 110.892 648.177 108.278 641.589 L 105.664 635 81.824 635 L 57.983 635 63.615 646.250 M 661.925 641.202 C 659.139 648.650, 659.120 648.302, 663.505 670.024 C 665.427 679.547, 667 689.121, 667 691.299 C 667 696.286, 657.706 713.116, 641.488 737.500 C 624.891 762.454, 607.584 783.499, 584.539 806.750 L 564.469 827 572.125 827 L 579.781 827 592.848 813.468 C 633.959 770.898, 671.669 715.513, 705.468 648.064 L 712.014 635 688.129 635 L 664.244 635 661.925 641.202 M 67 698.374 C 67 698.782, 73.561 719.452, 81.580 744.308 C 97.785 794.540, 96.809 792.430, 113.434 813.166 C 123.354 825.539, 141.643 844.389, 154.373 855.358 C 165.180 864.671, 181.869 877.464, 182.451 876.882 C 182.685 876.648, 181.284 868.817, 179.338 859.479 L 175.800 842.500 162.110 828.500 C 130.986 796.670, 102.447 758.298, 75.142 711.566 C 70.664 703.902, 67 697.966, 67 698.374 M 698.452 705.698 C 696.373 709.439, 690.637 719.025, 685.705 727 C 660.504 767.744, 636.576 798.994, 608.382 827.984 L 594.264 842.500 590.646 859.930 C 588.656 869.517, 587.133 877.464, 587.264 877.591 C 587.792 878.108, 610.642 859.729, 621.382 850.148 C 638.034 835.293, 656.219 815.024, 668.492 797.638 C 673.001 791.250, 674.355 787.630, 688.117 745.171 C 696.248 720.088, 702.749 699.416, 702.565 699.231 C 702.381 699.047, 700.530 701.957, 698.452 705.698 M 368 744.689 C 336.379 747.076, 305.917 756.433, 284.758 770.259 C 260.868 785.871, 248.650 804.778, 245.507 831 L 244.847 836.500 250.333 825.500 C 253.351 819.450, 258.210 811.350, 261.132 807.500 C 289.202 770.516, 341.987 749.997, 398.645 754.046 C 457.154 758.227, 504.232 787.309, 521.985 830.238 C 523.290 833.393, 524.533 835.801, 524.746 835.587 C 525.638 834.695, 522.806 819.244, 520.575 812.827 C 513.338 792.018, 495.430 773.915, 470.206 761.910 C 442.357 748.655, 403.095 742.040, 368 744.689 M 369.718 772.022 C 351.786 773.732, 337.990 777.741, 338.006 781.235 C 338.009 781.931, 339.356 787.450, 341 793.500 C 342.644 799.550, 343.991 805.893, 343.994 807.595 C 344.003 812.046, 341.197 814.197, 335.884 813.812 C 330.629 813.432, 330.235 812.761, 326.309 797.500 C 323.651 787.166, 323.318 786.481, 320.814 786.191 C 314.578 785.467, 295.734 797.521, 283.168 810.272 L 275.837 817.711 280.418 832.189 C 285.548 848.398, 285.871 851.129, 283 854 C 278.471 858.529, 271.266 855.255, 269.463 847.847 C 268.512 843.944, 268.104 843.500, 265.466 843.500 C 261.710 843.500, 260.457 846.012, 257.811 858.842 C 256.469 865.349, 256.019 870.247, 256.431 873.855 C 257.490 883.136, 257.265 883, 271.577 883 L 284.084 883 287.024 876.446 C 288.642 872.841, 291.620 867.399, 293.642 864.352 C 298.113 857.617, 306.768 848, 308.360 848 C 308.997 848, 310.081 847.100, 310.768 846 C 311.455 844.900, 312.640 844, 313.401 844 C 314.163 844, 315.045 843.325, 315.362 842.500 C 315.678 841.675, 316.626 841, 317.469 841 C 318.311 841, 319 840.550, 319 840 C 319 839.450, 319.643 839, 320.429 839 C 321.214 839, 322.452 838.438, 323.179 837.750 C 323.905 837.063, 326.300 835.653, 328.500 834.618 C 343.190 827.706, 356.568 823.701, 369.291 822.406 C 377.382 821.583, 378 820.823, 378 811.688 C 378 804.153, 379.251 802.545, 385.113 802.545 C 390.484 802.545, 392.062 804.532, 392.717 812.119 C 393.420 820.257, 394.338 822, 397.925 822 C 402.289 822, 416.023 824.788, 423.137 827.119 C 430.904 829.663, 445.014 835.982, 446.821 837.725 C 447.548 838.426, 448.786 839, 449.571 839 C 450.357 839, 451 839.450, 451 840 C 451 840.550, 451.689 841, 452.531 841 C 453.374 841, 454.322 841.675, 454.638 842.500 C 454.955 843.325, 455.855 844, 456.638 844 C 457.422 844, 458.322 844.675, 458.638 845.500 C 458.955 846.325, 459.792 847, 460.499 847 C 462.269 847, 472.575 858.297, 476.726 864.786 C 478.601 867.718, 481.436 873.015, 483.026 876.558 L 485.916 883 498.423 883 C 510.345 883, 510.990 882.895, 512.215 880.750 C 514.315 877.073, 513.574 861.835, 510.842 852.500 L 508.500 844.500 505.032 844.500 C 501.897 844.500, 501.465 844.850, 500.532 848.150 C 498.565 855.105, 494.035 857.667, 488.684 854.850 C 483.778 852.268, 483.854 850.396, 489.595 832.254 L 494.189 817.735 486.345 809.830 C 474.060 797.450, 455.605 785.606, 449.532 786.204 C 446.581 786.494, 446.462 786.725, 443.691 797.500 C 439.765 812.761, 439.371 813.432, 434.116 813.812 C 428.803 814.197, 425.997 812.046, 426.006 807.595 C 426.009 805.893, 427.356 799.550, 429 793.500 C 432.945 778.977, 432.915 778.322, 428.250 777.072 C 409.074 771.935, 388.891 770.193, 369.718 772.022 M 372 839.970 C 327.067 845.794, 298.758 872.944, 299.073 909.910 L 299.147 918.500 301.538 909.786 C 307.279 888.871, 319.049 874.970, 339.500 864.953 C 354.979 857.371, 363.891 855.524, 385 855.524 C 406.109 855.524, 415.021 857.371, 430.500 864.953 C 450.951 874.970, 462.721 888.871, 468.462 909.786 L 470.853 918.500 470.927 909.910 C 471.264 870.332, 438.026 841.658, 389.417 839.592 C 383.413 839.337, 375.575 839.507, 372 839.970 M 240.557 845.582 C 239.035 846.695, 234.278 847, 218.421 847 L 198.225 847 202.582 868.250 C 204.979 879.938, 207.161 890.407, 207.430 891.516 C 207.700 892.624, 209.213 894.020, 210.794 894.616 L 213.667 895.700 210.792 881.600 C 209.196 873.766, 208.165 866.127, 208.474 864.410 C 209.319 859.717, 213.329 856.500, 218.331 856.502 C 221.819 856.503, 223.806 857.447, 230.500 862.287 L 238.500 868.071 239.200 864.286 C 241.783 850.324, 242.796 844.478, 242.657 844.332 C 242.569 844.239, 241.624 844.802, 240.557 845.582 M 527.232 845.163 C 527.554 846.001, 528.370 850.244, 529.047 854.593 C 529.723 858.942, 530.554 863.747, 530.892 865.270 L 531.508 868.040 539.344 862.390 C 548.037 856.121, 552.480 855.119, 557.372 858.324 C 562.534 861.707, 562.709 863.620, 559.392 880.430 L 556.382 895.682 559.194 894.621 C 560.740 894.037, 562.224 892.868, 562.493 892.023 C 562.761 891.178, 564.946 880.702, 567.349 868.743 L 571.718 847 551.581 847 C 534.342 847, 531.100 846.758, 529.046 845.320 C 527.028 843.906, 526.741 843.881, 527.232 845.163 M 366.747 877.918 C 354.131 880.676, 342.350 886.685, 334.632 894.298 C 328.652 900.197, 323.953 907.886, 322.438 914.250 L 321.783 917 331.845 917 C 337.515 917, 343.050 917.521, 344.528 918.195 C 349.165 920.307, 351.202 926.710, 349.043 932.387 C 347.431 936.626, 343.255 938, 331.982 938 C 321.965 938, 321.872 938.022, 322.513 940.250 C 325.911 952.059, 337.603 965.283, 350 971.338 C 361.296 976.855, 371.352 979.080, 385 979.080 C 398.648 979.080, 408.704 976.855, 420 971.338 C 432.671 965.149, 443.861 952.486, 447.471 940.250 C 448.130 938.017, 448.056 938, 437.583 938 C 427.401 938, 426.920 937.900, 423.849 935.156 C 421.107 932.707, 420.667 931.647, 420.667 927.500 C 420.667 923.353, 421.107 922.293, 423.849 919.844 C 426.917 917.102, 427.408 917, 437.516 917 C 449.782 917, 449.626 917.209, 444.843 907.143 C 438.698 894.212, 424.001 883.240, 406.500 878.517 C 396.871 875.919, 377.247 875.623, 366.747 877.918 M 235.903 899.013 C 237.421 906.537, 237.721 907.093, 241.945 910.195 C 245.097 912.510, 246.194 912.947, 245.714 911.697 C 245.342 910.728, 244.506 907.048, 243.856 903.519 C 242.780 897.682, 242.297 896.834, 238.490 894.100 L 234.306 891.095 235.903 899.013 M 531.361 894.138 C 527.672 896.864, 527.094 897.866, 526.054 903.349 C 525.411 906.732, 524.639 910.342, 524.337 911.371 C 523.884 912.915, 524.556 912.713, 528.185 910.217 C 532.430 907.296, 532.635 906.913, 534.125 899.096 C 534.973 894.643, 535.630 891.018, 535.584 891.040 C 535.538 891.061, 533.637 892.456, 531.361 894.138 M 265.375 902.750 C 265.655 903.712, 266.873 909.563, 268.082 915.750 L 270.280 927 275.247 927 C 279.583 927, 280.123 926.778, 279.501 925.250 C 279.108 924.288, 278.547 918.438, 278.254 912.250 L 277.721 901 271.293 901 C 265.644 901, 264.927 901.212, 265.375 902.750 M 491.956 909.750 C 491.932 914.563, 491.543 920.413, 491.091 922.750 L 490.269 927 495.134 927 C 497.810 927, 500 926.837, 500 926.638 C 500 926.438, 501.125 920.751, 502.500 914 C 503.875 907.249, 505 901.562, 505 901.362 C 505 901.163, 502.075 901, 498.500 901 L 492 901 491.956 909.750" stroke="none" fill="#fcfcfc" fill-rule="evenodd"/></svg>