<svg width="78" height="100" viewBox="0 0 78 100" fill="none" xmlns="http://www.w3.org/2000/svg">
<path d="M76.9845 50.0443L75.7145 22.3323C75.7025 22.0853 75.6015 21.8523 75.4275 21.6763L72.2465 18.4523V2.00127C72.2465 1.57227 71.9735 1.19127 71.5665 1.05427L68.6095 0.0552692C67.8935 -0.186731 67.2895 0.409269 67.2895 1.00227V27.4063C67.0635 26.3573 65.8675 24.5993 65.5765 24.0933V19.4853C65.5765 16.4873 64.4235 13.6683 62.3305 11.5473C62.1425 11.3573 61.8865 11.2493 61.6185 11.2493H61.4395L61.1875 8.52627C61.1625 8.25827 61.0315 8.01227 60.8235 7.84327C48.0985 -2.53473 28.9055 -2.53473 16.1785 7.84327C15.9705 8.01227 15.8395 8.25927 15.8145 8.52627L15.5645 11.2493H15.3835C15.1155 11.2493 14.8595 11.3563 14.6715 11.5473C12.5785 13.6693 11.4255 16.4883 11.4255 19.4853V24.0933C11.1345 24.5993 9.93549 26.3583 9.71249 27.4083V1.00227C9.71249 0.407269 9.10849 -0.185731 8.39249 0.0552692L5.43549 1.05427C5.02949 1.19127 4.75549 1.57327 4.75549 2.00127V18.4513L1.57449 21.6753C1.40049 21.8513 1.29949 22.0853 1.28749 22.3313L0.0174863 50.0433C-0.112514 52.8973 0.496486 57.4243 1.37349 60.1343L7.76049 79.8653C7.78849 79.9523 7.82749 80.0353 7.87849 80.1113C10.6635 84.3023 14.6215 88.0483 19.3245 90.9423C19.3685 90.9693 19.4145 90.9933 19.4625 91.0123L22.3125 92.2083L25.5825 94.5583C25.7525 94.6803 25.9565 94.7463 26.1655 94.7463H28.8275C32.6475 101.729 44.3315 101.769 48.1735 94.7463H50.8355C51.0445 94.7463 51.2485 94.6813 51.4195 94.5583L54.6875 92.2083L57.5395 91.0123C57.5875 90.9923 57.6335 90.9693 57.6775 90.9423C62.3795 88.0483 66.3375 84.3023 69.1225 80.1113C69.1735 80.0353 69.2125 79.9523 69.2405 79.8653L75.6275 60.1343C76.5065 57.4223 77.1145 52.8963 76.9845 50.0443ZM70.2755 33.7453C70.8955 35.0073 71.2325 36.4053 71.2325 37.8573V43.3683C71.2325 44.8213 70.8955 46.2183 70.2755 47.4803V33.7453ZM69.2905 2.39627L70.2475 2.71927V30.2083C69.8885 29.8173 69.7375 29.6273 69.2905 29.6243V2.39627ZM67.3155 31.6213H68.2765V49.6033H67.9855C67.6045 48.9683 67.3155 48.0903 67.3155 47.4613V31.6213ZM66.9535 51.5323L67.0185 51.5973C66.7235 54.8043 66.0855 57.9533 65.1155 60.9983L64.7955 59.3723C64.7425 59.1073 64.5865 58.8753 64.3605 58.7273L63.4765 58.1513L64.7745 54.9203C65.0415 54.2563 65.1715 53.2163 65.0785 52.5013L64.0895 44.9983C63.8445 43.3593 62.1785 44.4873 62.1785 44.4873L62.1765 22.3963C63.3475 24.1363 64.4045 25.9543 65.3155 27.8413V47.4613C65.3155 48.8343 66.0185 50.5833 66.9535 51.5323ZM58.8365 77.3003C57.4375 78.8913 55.9285 80.3823 54.3235 81.7523C51.8525 69.2303 25.1515 69.2123 22.6795 81.7523C21.0755 80.3823 19.5675 78.8913 18.1665 77.3003C18.4045 76.9443 18.4075 76.4683 18.1215 76.1183C17.0185 74.7723 15.9905 73.3543 15.0645 71.9023C14.8025 71.4923 14.2965 71.3563 13.8605 71.5293C13.3325 70.6863 12.8235 69.8343 12.3555 68.9593L14.0885 60.1743L16.5285 58.5813C16.5995 58.5323 16.7995 58.5533 16.8625 58.6103C16.8625 58.6103 22.3945 63.6653 22.5865 63.7743C22.5945 63.7913 22.5935 63.8103 22.6035 63.8273L26.8745 71.4703C27.4895 72.5673 29.3085 71.7243 28.6205 70.4933L25.1065 64.2063L28.0645 63.9613L29.6145 69.6333C29.9515 70.8593 31.9015 70.4143 31.5445 69.1063L30.0925 63.7933L31.2725 63.6953C32.0395 63.6323 33.0095 63.2083 33.5815 62.6853L34.4035 61.9323L33.9825 68.2863C33.8935 69.6403 35.8895 69.7483 35.9785 68.4193L36.5025 60.5383C36.5115 60.5383 36.5235 60.5343 36.5305 60.5343H40.4735C40.4815 60.5343 40.4935 60.5383 40.5005 60.5383L41.0235 68.4183C41.1125 69.7473 43.1085 69.6383 43.0195 68.2853L42.5975 61.9313L43.4215 62.6853C43.9935 63.2083 44.9645 63.6323 45.7285 63.6943L46.9085 63.7923L45.4575 69.1063C45.0845 70.4723 47.0365 70.9103 47.3875 69.6333L48.9375 63.9603L51.8955 64.2063L48.3815 70.4943C47.7035 71.7053 49.5345 72.5283 50.1275 71.4693L54.3985 63.8263C54.4075 63.8093 54.4075 63.7923 54.4155 63.7753C54.6065 63.6653 60.1415 58.6103 60.1415 58.6103C60.2045 58.5523 60.4065 58.5363 60.4745 58.5823L62.9145 60.1743L64.6475 68.9593C64.1795 69.8343 63.6705 70.6873 63.1425 71.5293C62.7045 71.3563 62.2005 71.4923 61.9385 71.9023C61.0105 73.3553 59.9825 74.7743 58.8805 76.1183C58.5965 76.4673 58.5985 76.9433 58.8365 77.3003ZM63.5775 19.4863V20.8923C63.1185 20.2253 62.6415 19.5713 62.1495 18.9303L61.6795 13.8463C62.9085 15.4553 63.5775 17.4173 63.5775 19.4863ZM28.5735 48.2773C28.1155 47.8273 27.3525 47.4123 26.6845 47.2183V15.6503C27.6895 15.3623 28.7045 15.1063 29.7285 14.8943C30.0115 14.8663 30.2685 14.7183 30.4365 14.4893C32.6375 11.4763 33.7015 10.0203 34.2145 9.27227C36.9625 8.92127 40.0445 8.92227 42.7885 9.27227C43.3025 10.0203 44.3655 11.4763 46.5665 14.4893C46.7175 14.6963 46.9975 14.8413 47.2565 14.8893C48.2885 15.1033 49.3085 15.3623 50.3185 15.6513V47.2193C49.6495 47.4133 48.8865 47.8283 48.4305 48.2783L41.4655 55.1293C41.2635 55.3273 40.7525 55.5383 40.4725 55.5383H36.5295C36.2495 55.5383 35.7395 55.3283 35.5375 55.1293L28.5735 48.2773ZM32.5245 54.9703L31.6055 57.3263C31.5445 57.4823 31.2715 57.6913 31.1095 57.7053L24.3795 58.2643C24.1245 58.2833 23.6265 58.1143 23.4355 57.9353L17.2335 52.1523C17.0755 52.0053 16.9305 51.5873 16.9635 51.3693L17.5415 47.5293L26.0135 49.0993C26.3505 49.1623 26.9245 49.4613 27.1715 49.7043L32.5245 54.9703ZM49.8355 49.7033C50.0815 49.4603 50.6545 49.1613 50.9925 49.0993L59.4635 47.5293L60.0405 51.3703C60.0735 51.5883 59.9305 52.0053 59.7705 52.1533L53.5705 57.9353C53.3795 58.1133 52.8995 58.2823 52.6265 58.2643L45.8965 57.7043C45.7345 57.6913 45.4595 57.4823 45.3995 57.3273L44.4805 54.9703L49.8355 49.7033ZM57.1455 45.9233V44.1283C57.1455 42.7973 55.1455 42.7973 55.1455 44.1283V46.2943L52.3205 46.8183V16.2713C55.0475 17.1993 57.6735 18.4093 60.1785 19.8783V45.3473C60.0895 45.3703 57.1455 45.9233 57.1455 45.9233ZM17.7695 9.13227C29.6665 -0.309731 47.3405 -0.310731 59.2365 9.13227L60.0095 17.4753C56.2165 15.4023 52.1705 13.8963 47.9505 12.9913C47.0955 11.8213 44.1735 7.82127 44.1185 7.74627C43.9595 7.52727 43.7175 7.38127 43.4485 7.34327C40.2635 6.89327 36.7505 6.89327 33.5555 7.34327C33.2865 7.38127 33.0445 7.52727 32.8855 7.74627C32.8305 7.82127 29.9085 11.8203 29.0535 12.9913C24.8355 13.8963 20.7895 15.4013 16.9965 17.4743L17.7695 9.13227ZM24.6855 16.2713V46.8173L21.8605 46.2943V44.1283C21.8605 42.8193 19.8605 42.8193 19.8605 44.1283V45.9233C19.8605 45.9233 16.9155 45.3703 16.8265 45.3473L16.8205 19.8823C19.3315 18.4093 21.9625 17.1973 24.6855 16.2713ZM15.5895 47.0553L14.9855 51.0733C14.8545 51.9483 15.2275 53.0183 15.8715 53.6163L22.0715 59.3973C22.6295 59.9183 23.5515 60.2653 24.3405 60.2653C24.4095 60.2653 31.2775 59.6983 31.2775 59.6983C32.1915 59.6233 33.1335 58.9163 33.4705 58.0543L34.0775 56.4963L34.1365 56.5543C34.7155 57.1233 35.7235 57.5373 36.5325 57.5373H40.4755C41.2845 57.5373 42.2905 57.1243 42.8715 56.5543L42.9305 56.4963L43.5375 58.0553C43.8745 58.9153 44.8175 59.6223 45.7315 59.6983C45.7315 59.6983 52.5975 60.2653 52.6685 60.2653C53.4545 60.2653 54.3785 59.9183 54.9365 59.3983L61.1365 53.6163C61.7815 53.0153 62.1535 51.9453 62.0215 51.0723L61.4175 47.0573C61.7315 46.9453 62.0415 46.8203 62.2975 46.6923L63.0985 52.7633C63.1475 53.1403 63.0615 53.8273 62.9215 54.1763L61.5705 56.9073C60.7235 56.3533 59.5285 56.4533 58.7885 57.1393L53.5805 61.9313C53.3865 62.1093 52.8825 62.2793 52.6285 62.2603L45.8945 61.7003C45.5775 61.6753 45.0105 61.4263 44.7725 61.2083L42.8675 59.4673C42.2775 58.9263 41.2705 58.5343 40.4745 58.5343H36.5315C35.7365 58.5343 34.7295 58.9263 34.1375 59.4663L32.2335 61.2093C31.9955 61.4273 31.4295 61.6753 31.1105 61.7013L24.3805 62.2613C24.1245 62.2803 23.6215 62.1103 23.4285 61.9333L18.2195 57.1383C17.4765 56.4573 16.2815 56.3583 15.4385 56.9073L14.0875 54.1783C13.9465 53.8263 13.8595 53.1403 13.9095 52.7653L14.7095 46.6923C14.9615 46.8173 15.2735 46.9423 15.5895 47.0553ZM13.4275 19.4863C13.4275 17.4163 14.0975 15.4523 15.3275 13.8433L14.8605 18.9213C14.3665 19.5653 13.8875 20.2223 13.4265 20.8913V19.4863H13.4275ZM10.0535 51.5293C10.9875 50.5823 11.6915 48.8333 11.6915 47.4613V27.8413C12.6015 25.9543 13.6575 24.1383 14.8265 22.3993V44.4873C14.8265 44.4873 13.1885 43.3283 12.9155 44.9993L11.9275 52.5003C11.8325 53.2123 11.9635 54.2523 12.2325 54.9203L13.5295 58.1503L12.6455 58.7273C12.4195 58.8743 12.2635 59.1073 12.2105 59.3723L11.8895 60.9983C10.9185 57.9513 10.2805 54.8033 9.98749 51.5973L10.0535 51.5293ZM8.72949 31.6213H9.69149V47.4613C9.69149 48.0903 9.40149 48.9693 9.02049 49.6033H8.72949V31.6213ZM6.75749 2.71927L7.71449 2.39627V29.6243C7.24549 29.6313 7.09049 29.8463 6.75749 30.2083V2.71927ZM5.77149 37.8573C5.77149 36.4043 6.10849 35.0063 6.72949 33.7433V47.4813C6.10849 46.2183 5.77149 44.8203 5.77149 43.3673V37.8573ZM2.60749 56.7433C2.18649 54.4983 1.93549 51.9243 2.01749 50.1363L3.26949 22.8073L4.75649 21.3003V33.2433C4.11649 34.6763 3.77049 36.2393 3.77049 37.8583V43.3693C3.77049 46.3663 4.92349 49.1853 7.01649 51.3073C7.01749 51.3083 7.01849 51.3083 7.01849 51.3093C7.37849 51.6703 7.97949 51.6043 7.98249 51.6053C8.27549 54.9493 8.92749 58.2343 9.92549 61.4163H4.73549C4.02349 59.9033 3.31649 58.3513 2.60749 56.7433ZM9.62249 79.1183L6.34349 68.9843C9.54249 74.8093 13.0855 79.8613 17.6325 84.2083L18.3905 87.9233C14.8455 85.4293 11.8405 82.4233 9.62249 79.1183ZM18.9645 82.7003C13.4665 77.4283 9.44349 71.0583 5.69749 63.4143H10.6055C10.7705 63.8683 10.9405 64.3203 11.1205 64.7693C11.1255 64.7823 11.1345 64.7863 11.1395 64.7963L10.3415 68.8413C10.2755 69.0833 10.3005 69.3453 10.4195 69.5723C13.0095 74.5133 16.5455 79.0023 20.7235 82.6993H18.9645V82.7003ZM23.7075 90.7483L23.3485 88.9793L24.2995 89.6643L24.6675 91.4373L23.7075 90.7483ZM26.9835 92.7473L26.4425 90.0933H27.8825C27.8115 90.8993 27.8175 91.7743 28.0475 92.7473H26.9835ZM43.0565 93.7553H44.8925C43.5305 99.4153 33.4755 99.4153 32.1135 93.7553H33.9495C35.2965 93.7553 35.2965 91.7553 33.9495 91.7553H32.0945C33.1925 86.1383 43.8155 86.1383 44.9125 91.7553H43.0575C41.7685 91.7553 41.7685 93.7553 43.0565 93.7553ZM47.0025 92.3343C46.5065 83.2323 30.4985 83.2323 30.0025 92.3343C29.8945 91.8913 29.8375 91.4343 29.8375 90.9653C29.8375 81.5173 47.1675 81.5173 47.1675 90.9653C47.1675 91.4343 47.1105 91.8913 47.0025 92.3343ZM50.0235 92.7473H48.9565C49.2165 91.6533 49.1895 90.8583 49.1215 90.0933H50.5735L50.0235 92.7473ZM50.9875 88.0933H48.7025C47.3975 84.3123 43.5305 82.2103 39.5025 81.9113V80.9323C39.5025 79.6073 37.5025 79.6073 37.5025 80.9323V81.9113C33.4745 82.2103 29.6065 84.3113 28.3025 88.0933H26.0235C26.0245 88.0943 25.4755 87.0573 26.5155 84.2533L26.7975 85.1313C27.1935 86.3603 29.1295 85.8503 28.7015 84.5203L27.8495 81.8703C28.9415 80.4743 30.4145 79.4163 32.0855 78.6803L32.7035 80.9433C33.0475 82.1933 34.9985 81.7563 34.6335 80.4163L33.9735 77.9993C36.8885 77.1773 40.1165 77.1763 43.0295 77.9993L42.3705 80.4163C42.0065 81.7513 43.9605 82.1893 44.3005 80.9433L44.9175 78.6803C46.5895 79.4163 48.0635 80.4753 49.1545 81.8713L48.3025 84.5203C47.8785 85.8373 49.8125 86.3573 50.2065 85.1313L50.4875 84.2543C51.5285 87.0613 50.9875 88.0933 50.9875 88.0933ZM53.2965 90.7473L52.3265 91.4443L52.6865 89.6763L53.6565 88.9793L53.2965 90.7473ZM56.2795 89.3743L55.5535 89.6793L56.1245 86.8773C56.3285 85.8873 55.2145 85.3983 54.5615 85.8653L53.0485 86.9533C52.1935 71.5333 24.8105 71.5343 23.9545 86.9543L22.4415 85.8663C21.6795 85.3113 20.7045 86.0203 20.8785 86.8773L21.4485 89.6783L20.7245 89.3743L19.7735 84.7003H23.4785C24.0315 84.7003 24.4785 84.2533 24.4785 83.7003C24.4785 71.2183 52.5265 71.2933 52.5265 83.7003C52.5265 84.2533 52.9735 84.7003 53.5265 84.7003H57.2325L56.2795 89.3743ZM67.3825 79.1183C65.1645 82.4233 62.1595 85.4293 58.6155 87.9233L59.3725 84.2083C63.9155 79.8653 67.4585 74.8283 70.6525 69.0143L67.3825 79.1183ZM58.0405 82.7003H56.2805C60.4595 79.0043 63.9955 74.5153 66.5855 69.5733C66.7025 69.3503 66.7285 69.0953 66.6665 68.8583L65.8645 64.7963C65.8705 64.7843 65.8785 64.7823 65.8845 64.7693C66.0645 64.3203 66.2345 63.8683 66.3995 63.4143H71.3085C67.5635 71.0583 63.5405 77.4263 58.0405 82.7003ZM74.3975 56.7443C73.6885 58.3513 72.9825 59.9033 72.2695 61.4143H67.0795C68.0765 58.2343 68.7275 54.9483 69.0225 51.6033C69.0225 51.6033 69.6395 51.6553 69.9865 51.3073C69.9865 51.3063 69.9875 51.3063 69.9885 51.3053C72.0815 49.1843 73.2335 46.3653 73.2335 43.3673V37.8563C73.2335 36.2373 72.8865 34.6743 72.2485 33.2423V21.2993L73.7355 22.8063L74.9875 50.1353C75.0685 51.9233 74.8175 54.4973 74.3975 56.7443Z" fill="url(#paint0_linear)"/>
<defs>
<linearGradient id="paint0_linear" x1="38.501" y1="0" x2="38.501" y2="99.9985" gradientUnits="userSpaceOnUse">
<stop stop-color="#5200FF"/>
<stop offset="1" stop-color="#A211FA"/>
</linearGradient>
</defs>
</svg>
