<svg xmlns="http://www.w3.org/2000/svg" width="780" height="1000" viewBox="0 0 780 1000" version="1.1"><path d="M 355 22.108 C 309.500 27.254, 270.286 38.354, 234.500 56.217 C 215.678 65.613, 206.825 70.978, 187.373 84.778 L 178.246 91.254 177.652 96.377 C 177.326 99.195, 175.934 114.550, 174.559 130.500 C 173.185 146.450, 171.786 162.313, 171.451 165.750 C 170.959 170.789, 171.118 172, 172.272 172 C 173.058 172, 180.650 168.653, 189.142 164.562 C 217.314 150.990, 245.357 140.790, 274.776 133.415 L 290.052 129.585 307.276 106.094 C 316.749 93.174, 326.525 80.484, 329 77.894 C 333.032 73.673, 334.124 73.096, 339.500 72.342 C 349.894 70.884, 426.696 71.293, 432.705 72.839 C 439.399 74.561, 441.060 76.394, 462.743 106 L 479.955 129.500 495.227 133.395 C 525.453 141.104, 558.406 153.232, 584.357 166.197 C 591.978 170.005, 598.432 172.901, 598.700 172.634 C 599.188 172.145, 594.913 121.217, 592.812 102.500 C 591.749 93.028, 591.507 92.327, 588.238 89.216 C 583.560 84.766, 558.824 68.458, 546.383 61.621 C 515.380 44.585, 478.007 31.945, 439.622 25.514 C 416.734 21.678, 374.003 19.959, 355 22.108 M 70.750 26.162 L 68 27.167 68 163.500 L 68 299.834 71.894 297.701 C 75.284 295.844, 75.866 294.996, 76.394 291.145 C 77.200 285.259, 77.161 36.983, 76.352 30.250 C 75.696 24.790, 75.300 24.500, 70.750 26.162 M 693.678 25.656 C 692.838 26.496, 692.768 285.031, 693.606 291.145 C 694.134 294.996, 694.716 295.844, 698.106 297.701 L 702 299.834 702 163.484 L 702 27.135 699.750 26.488 C 698.513 26.132, 696.792 25.647, 695.928 25.410 C 695.063 25.172, 694.050 25.283, 693.678 25.656 M 175.513 478.250 C 173.894 485.192, 169.990 514.825, 170.452 516.666 C 171.392 520.409, 232.302 577.642, 238.632 580.730 C 241.449 582.104, 243.964 582.091, 263.632 580.595 C 292.315 578.415, 305.664 577.069, 310.219 575.897 C 313.568 575.035, 314.277 574.222, 317.351 567.720 C 319.228 563.749, 321.597 558.140, 322.615 555.255 L 324.466 550.010 315.983 541.401 C 304.270 529.514, 269.061 496.086, 266.456 494.380 C 265.283 493.611, 260.088 492.048, 254.912 490.906 C 245.819 488.901, 178.253 476.017, 176.769 476.006 C 176.367 476.003, 175.802 477.012, 175.513 478.250 M 560.500 481.933 C 521.045 489.464, 506.033 492.747, 503.544 494.386 C 501.151 495.962, 462.702 532.519, 452.518 542.900 L 445.537 550.017 447.378 555.201 C 448.391 558.052, 450.776 563.664, 452.678 567.672 C 455.771 574.188, 456.527 575.065, 459.819 575.951 C 463.221 576.867, 497.736 580.044, 520 581.491 C 531.422 582.233, 530.697 582.598, 547 567.886 C 559.400 556.696, 592.912 524.964, 597 520.542 C 600.035 517.259, 600.030 513.712, 596.962 493.254 C 594.457 476.551, 594.296 475.974, 592.183 476.103 C 591.257 476.160, 577 478.783, 560.500 481.933 M 64.532 648.064 C 98.015 714.883, 136.698 771.473, 178.599 814.933 L 190.233 827 197.693 827 L 205.154 827 186.162 807.250 C 164.730 784.963, 155.481 774.387, 143.527 758.500 C 129.482 739.833, 110.953 710.691, 105.355 698.465 C 102.334 691.865, 102.340 691.776, 107.482 665.380 L 110.852 648.077 108.258 641.539 L 105.664 635 81.825 635 L 57.986 635 64.532 648.064 M 662.139 640.589 C 660.962 643.663, 660 647.499, 660 649.114 C 660 650.729, 661.619 660.623, 663.597 671.102 C 665.757 682.542, 666.954 691.434, 666.593 693.358 C 665.702 698.104, 655.359 716.236, 642.503 735.590 C 623.810 763.730, 609.863 780.708, 581.633 809.686 L 564.766 827 572.266 827 L 579.767 827 591.401 814.933 C 633.388 771.383, 671.916 715.021, 705.468 648.064 L 712.014 635 688.146 635 L 664.278 635 662.139 640.589 M 371.500 774.630 C 366.318 775.195, 351.911 777.611, 345.423 779.003 L 340.346 780.092 343.635 792.796 C 345.444 799.783, 346.941 806.558, 346.962 807.850 C 347.018 811.329, 340.946 817, 337.165 817 C 329.685 817, 328.096 814.806, 323.406 798 C 321.948 792.775, 320.614 788.341, 320.441 788.146 C 319.787 787.412, 303.918 796.487, 297.839 801.072 C 294.353 803.702, 288.701 808.699, 285.279 812.177 L 279.059 818.500 283.566 833.446 C 289.210 852.163, 288.718 855.500, 279.939 858.018 C 274.457 859.590, 270 856.760, 267.318 850.005 C 265.196 844.660, 265.110 844.581, 264.140 847.131 C 261.009 855.366, 258.638 869.969, 259.494 875.750 L 260.123 880 271.438 880 L 282.754 880 285.009 874.750 C 290.109 862.882, 302.634 847.905, 314.496 839.492 C 328.409 829.624, 350.572 821.383, 368.305 819.484 L 375 818.767 375 811.838 C 375 805.846, 375.327 804.583, 377.414 802.495 C 381.867 798.043, 388.104 798.013, 392.514 802.423 C 394.324 804.233, 395.011 806.338, 395.538 811.690 L 396.220 818.614 406.613 820.263 C 424.013 823.023, 442.580 830.326, 455.504 839.492 C 467.414 847.939, 481.273 864.571, 485.395 875.365 L 487.165 880 498.466 880 C 509.340 880, 509.790 879.915, 510.370 877.750 C 511.821 872.334, 509.679 856.960, 506.370 849.036 L 504.923 845.572 502.588 850.612 C 499.630 856.998, 494.803 859.750, 489.583 858.027 C 487.745 857.421, 485.547 856.154, 484.699 855.212 C 481.574 851.744, 481.808 848.787, 486.422 833.487 L 490.941 818.500 484.721 812.177 C 476.546 803.867, 467.315 796.950, 457.674 791.910 C 453.369 789.660, 449.712 787.972, 449.546 788.160 C 449.380 788.347, 448.052 792.775, 446.594 798 C 441.904 814.806, 440.315 817, 432.835 817 C 429.054 817, 422.982 811.329, 423.038 807.850 C 423.059 806.558, 424.556 799.783, 426.365 792.796 L 429.654 780.092 424.691 779.027 C 407.034 775.240, 383.634 773.306, 371.500 774.630 M 372.434 877.085 C 355.096 879.110, 337.717 888.688, 329.105 900.965 C 325.522 906.074, 322 913.534, 322 916.015 C 322 916.435, 326.920 916.947, 332.934 917.153 C 342.819 917.491, 344.113 917.757, 346.419 919.924 C 351.126 924.346, 350.673 933.494, 345.613 936.211 C 344.451 936.835, 338.877 937.552, 333.227 937.805 C 327.577 938.057, 322.764 938.573, 322.531 938.950 C 322.297 939.328, 323.239 942.081, 324.623 945.068 C 332.614 962.320, 350.084 974.670, 371.271 978.044 C 380.725 979.549, 398.065 978.803, 406.500 976.528 C 423.131 972.042, 437.382 960.955, 444.305 947.117 C 446.325 943.079, 447.732 939.375, 447.430 938.887 C 447.129 938.399, 442.836 938, 437.891 938 C 424.986 938, 421 935.522, 421 927.500 C 421 919.460, 424.979 917, 437.982 917 C 444.990 917, 447.190 916.669, 447.619 915.551 C 448.608 912.974, 441.999 901.349, 436.253 895.556 C 420.892 880.072, 399.605 873.911, 372.434 877.085" stroke="none" fill="#fbfbfb" fill-rule="evenodd"/><path d="M 68.049 4.949 C 52.630 10.235, 48.942 12.271, 47.873 16.090 C 47.503 17.416, 47.136 55.625, 47.058 101 L 46.916 183.500 30.932 200 C 22.141 209.075, 14.309 217.670, 13.527 219.099 C 12.143 221.629, 10.581 250.171, 4.502 384 C -1.148 508.408, -1.246 526.842, 3.571 560 C 6.835 582.471, 8.104 586.818, 43.136 695.500 C 79.427 808.084, 77.386 803.047, 96.001 826 C 121.227 857.104, 168.391 897.608, 194.013 910.171 C 198.131 912.190, 207.125 916.534, 214 919.824 C 222.501 923.892, 231.459 929.357, 241.998 936.903 L 257.495 948 272.498 948.009 L 287.500 948.017 291.500 954.234 C 306.008 976.780, 334.104 994.196, 363 998.555 C 375.655 1000.464, 398.580 1000.417, 408.892 998.461 C 424.394 995.520, 439.706 989.285, 452.500 980.704 C 460.394 975.410, 473.501 962.081, 478.506 954.259 L 482.500 948.017 497.500 948.003 L 512.500 947.988 528 936.919 C 542.560 926.522, 547.265 923.897, 574.619 910.909 C 594.018 901.698, 630.565 872.831, 654.728 847.634 C 670.245 831.454, 685.846 811.708, 690.256 802.668 C 695.927 791.044, 705.335 762.927, 744.515 640.500 C 762.252 585.078, 764.161 577.724, 767.587 551.662 C 771.440 522.355, 770.731 492.837, 761.479 297 C 757.853 220.270, 757.935 221.449, 756.072 218.609 C 755.173 217.239, 747.384 208.728, 738.762 199.696 L 723.086 183.273 722.793 99.164 C 722.505 16.580, 722.464 15.019, 720.500 13.077 C 718.285 10.888, 703.339 4.936, 692.520 1.936 C 682.494 -0.845, 678.788 -0.634, 675.236 2.918 L 672.317 5.836 671.598 132.994 C 671.203 202.931, 670.634 260.790, 670.334 261.571 C 670.009 262.420, 667.057 258.222, 662.999 251.138 L 656.208 239.285 655.754 206.893 C 655.252 171.030, 654.914 168.679, 647.705 150.800 C 641.227 134.735, 625.582 113.983, 618.584 112.174 C 615.617 111.407, 615.471 111.112, 614.738 104.438 C 612.276 82.043, 612.151 81.561, 607.664 77.206 C 605.374 74.983, 598.441 69.558, 592.258 65.150 C 545.871 32.087, 493.525 11.636, 433 2.932 C 415.457 0.409, 379.580 -0.589, 358.500 0.859 C 294.001 5.289, 229.252 28.285, 178.014 64.958 C 163.945 75.028, 159.199 79.522, 158.094 83.817 C 157.573 85.843, 156.634 92.440, 156.007 98.478 C 154.863 109.487, 153.992 112, 151.318 112 C 149 112, 139.548 121.567, 134.198 129.328 C 124.078 144.008, 116.919 161.950, 115.093 177.210 C 114.548 181.769, 113.828 198.100, 113.493 213.500 L 112.886 241.500 107.565 250.500 C 104.638 255.450, 101.588 260.786, 100.787 262.358 C 99.495 264.894, 99.256 256.505, 98.666 187.858 C 98.301 145.311, 98.001 86.943, 98.001 58.151 L 98 5.802 94.894 2.901 C 90.294 -1.396, 85.486 -1.029, 68.049 4.949 M 355 22.108 C 309.500 27.254, 270.286 38.354, 234.500 56.217 C 215.678 65.613, 206.825 70.978, 187.373 84.778 L 178.246 91.254 177.652 96.377 C 177.326 99.195, 175.934 114.550, 174.559 130.500 C 173.185 146.450, 171.786 162.313, 171.451 165.750 C 170.959 170.789, 171.118 172, 172.272 172 C 173.058 172, 180.650 168.653, 189.142 164.562 C 217.314 150.990, 245.357 140.790, 274.776 133.415 L 290.052 129.585 307.276 106.094 C 316.749 93.174, 326.525 80.484, 329 77.894 C 333.032 73.673, 334.124 73.096, 339.500 72.342 C 349.894 70.884, 426.696 71.293, 432.705 72.839 C 439.399 74.561, 441.060 76.394, 462.743 106 L 479.955 129.500 495.227 133.395 C 525.453 141.104, 558.406 153.232, 584.357 166.197 C 591.978 170.005, 598.432 172.901, 598.700 172.634 C 599.188 172.145, 594.913 121.217, 592.812 102.500 C 591.749 93.028, 591.507 92.327, 588.238 89.216 C 583.560 84.766, 558.824 68.458, 546.383 61.621 C 515.380 44.585, 478.007 31.945, 439.622 25.514 C 416.734 21.678, 374.003 19.959, 355 22.108 M 70.750 26.162 L 68 27.167 68 163.500 L 68 299.834 71.894 297.701 C 75.284 295.844, 75.866 294.996, 76.394 291.145 C 77.200 285.259, 77.161 36.983, 76.352 30.250 C 75.696 24.790, 75.300 24.500, 70.750 26.162 M 693.678 25.656 C 692.838 26.496, 692.768 285.031, 693.606 291.145 C 694.134 294.996, 694.716 295.844, 698.106 297.701 L 702 299.834 702 163.484 L 702 27.135 699.750 26.488 C 698.513 26.132, 696.792 25.647, 695.928 25.410 C 695.063 25.172, 694.050 25.283, 693.678 25.656 M 347.613 93.004 C 344.926 93.482, 342.396 94.239, 341.993 94.687 C 341.589 95.134, 335.438 103.600, 328.325 113.500 C 306.065 144.479, 303.976 147.116, 300.638 148.449 C 298.912 149.138, 290.633 151.422, 282.239 153.525 L 266.978 157.348 267.222 282.424 C 267.356 351.216, 267.598 421.900, 267.759 439.501 L 268.053 471.502 275.776 475.476 C 282.383 478.876, 286.393 482.277, 303.500 498.996 C 343.423 538.012, 357.242 551.075, 360.341 552.726 C 364.942 555.179, 404.956 555.234, 409.527 552.795 C 412.605 551.152, 427.664 536.961, 465.623 499.932 C 483.507 482.487, 487.891 478.737, 494.212 475.484 L 501.677 471.641 502.338 418.570 C 502.701 389.382, 502.998 318.671, 502.999 261.435 L 503 157.370 490.250 154.138 C 464.670 147.653, 469.334 150.912, 451.767 127.246 C 443.298 115.836, 434.598 103.960, 432.434 100.856 C 430.270 97.751, 427.600 94.612, 426.500 93.880 C 424.943 92.843, 416.532 92.502, 388.500 92.341 C 368.700 92.227, 350.301 92.525, 347.613 93.004 M 618.490 145.750 C 618.732 147.262, 619.686 157.500, 620.610 168.500 L 622.290 188.500 627.895 196.276 L 633.500 204.051 633.790 193.276 C 634.218 177.431, 630.125 162.126, 621.544 147.485 C 618.500 142.290, 617.880 141.938, 618.490 145.750 M 146.708 150.789 C 139.633 164.460, 136.839 174.798, 135.973 190.500 C 135.548 198.200, 135.296 204.602, 135.411 204.728 C 135.527 204.853, 138.356 201.253, 141.699 196.728 L 147.776 188.500 149.481 169.500 C 150.418 159.050, 151.026 148.925, 150.832 147 C 150.480 143.504, 150.475 143.508, 146.708 150.789 M 228 170.870 C 209.630 178.282, 196.730 184.318, 181.250 192.746 L 169 199.416 169 326.020 L 169 452.624 182.740 455.239 C 190.296 456.677, 196.660 457.674, 196.881 457.453 C 197.101 457.232, 197.589 452.248, 197.964 446.377 C 198.601 436.387, 198.820 435.551, 201.378 433.351 C 205.507 429.800, 212.215 430.061, 216.077 433.923 C 218.997 436.843, 219 436.858, 219 449.404 C 219 461.608, 219.063 461.976, 221.250 462.476 C 222.488 462.758, 228.265 463.822, 234.088 464.839 L 244.676 466.689 245.307 391.345 C 246.107 295.851, 245.112 164.996, 243.587 165.009 C 242.989 165.015, 235.975 167.652, 228 170.870 M 524.996 202.250 C 524.994 222.738, 524.705 258.850, 524.353 282.500 C 524.002 306.150, 524.057 357.257, 524.476 396.071 L 525.237 466.642 536.869 464.728 C 544.526 463.467, 548.927 462.267, 549.750 461.215 C 550.583 460.150, 551 455.822, 551 448.232 C 551 436.981, 551.035 436.812, 553.923 433.923 C 556.359 431.487, 557.663 431, 561.749 431 C 565.724 431, 567.110 431.488, 569.076 433.578 C 571.282 435.923, 571.530 437.139, 571.838 447.078 C 572.025 453.085, 572.413 458, 572.703 458 C 572.992 458, 579.477 456.818, 587.114 455.373 L 601 452.747 601 326.016 L 601 199.285 589.750 193.185 C 570.671 182.840, 530.429 165, 526.170 165 C 525.298 165, 524.999 174.476, 524.996 202.250 M 723 272.822 L 723 330.127 726.973 341.814 C 732.501 358.071, 733.349 368.899, 732.740 415.500 C 732.292 449.853, 732.096 453.106, 730.001 460.974 C 723.727 484.537, 708.021 510.006, 696.365 515.521 C 693.414 516.917, 691 518.423, 691 518.869 C 691 519.314, 689.902 527.547, 688.561 537.163 C 685.574 558.576, 682.171 575.745, 676.964 595.675 C 674.784 604.021, 673 611.341, 673 611.942 C 673 612.710, 680.343 612.955, 697.713 612.767 L 722.426 612.500 730.688 594.500 C 741.377 571.211, 744.436 561.672, 746.411 545.460 C 748.420 528.973, 748.463 493.133, 746.528 449.500 C 745.747 431.900, 743.220 375.200, 740.913 323.500 L 736.718 229.500 729.859 222.509 L 723 215.517 723 272.822 M 39.402 223.219 L 33.304 229.500 31.135 279 C 29.942 306.225, 27.571 358.425, 25.867 395 C 21.962 478.815, 21.481 531.260, 24.426 552.191 L 26.353 565.882 36.960 589.191 L 47.567 612.500 72.400 612.768 L 97.232 613.035 96.725 610.268 C 96.446 608.745, 94.145 599.439, 91.613 589.586 C 87.571 573.859, 84.196 555.744, 79.766 526 C 78.515 517.601, 78.460 517.488, 75.149 516.515 C 67.528 514.274, 51.997 493.298, 45.075 475.898 C 37.606 457.119, 36.621 447.344, 37.276 398.520 C 37.827 357.431, 38.095 355.113, 44.337 337.500 L 46.817 330.500 46.159 273.719 L 45.500 216.938 39.402 223.219 M 622 335.107 C 622 437.703, 622.089 443.173, 623.750 442.417 C 624.712 441.979, 627.986 441.446, 631.025 441.233 C 638.038 440.741, 639.531 442.222, 641.478 451.605 C 644.408 465.714, 651 520.287, 651 530.426 C 651 542.061, 650.295 544.918, 642.460 565.014 C 639.457 572.716, 637 579.602, 637 580.317 C 637 581.031, 638.999 583.024, 641.443 584.747 C 646.636 588.407, 648.316 591.298, 650.015 599.500 C 651.540 606.861, 651.583 606.771, 657.005 585 C 661.718 566.076, 665.240 547.797, 667.540 530.321 L 669.275 517.142 665.654 512.209 C 659.714 504.118, 655.119 493.353, 654.034 484.989 C 653.463 480.596, 653.049 436.608, 653.031 378.584 L 653 279.669 647.360 269.084 C 641.291 257.694, 623.097 227, 622.415 227 C 622.187 227, 622 275.648, 622 335.107 M 142.394 235 C 136.708 244.001, 126.071 262.871, 121.127 272.728 L 117 280.956 116.980 379.728 C 116.968 440.185, 116.572 481.215, 115.960 485.500 C 114.861 493.182, 110.420 503.531, 104.573 512.030 C 101.120 517.050, 100.938 517.698, 101.513 522.933 C 103.217 538.444, 108.685 567.729, 113.282 585.967 L 118.442 606.434 120.036 599.467 C 122.094 590.475, 123.073 588.790, 128.503 584.890 C 130.976 583.114, 133 581.083, 133 580.377 C 133 579.672, 130.343 572.210, 127.095 563.797 C 123.847 555.384, 120.675 546.568, 120.045 544.207 C 117.690 535.379, 119.169 515.599, 125.556 470.500 C 129.663 441.502, 130.122 440.516, 139.185 441.220 C 142.108 441.447, 145.287 441.988, 146.250 442.423 C 147.910 443.173, 147.993 438.526, 147.865 351.857 C 147.790 301.611, 147.453 253.300, 147.115 244.500 L 146.500 228.500 142.394 235 M 88 357.836 C 88 380.295, 88.299 420.407, 88.665 446.974 L 89.330 495.276 92.028 489.888 L 94.726 484.500 95.278 400.750 L 95.831 317 91.915 317 L 88 317 88 357.836 M 674.722 400.750 L 675.274 484.500 677.972 489.888 L 680.670 495.276 681.334 446.388 C 681.699 419.500, 681.998 379.387, 681.999 357.250 L 682 317 678.085 317 L 674.169 317 674.722 400.750 M 63.256 350.052 C 59.661 360.383, 59.041 368.436, 59.020 405.026 C 58.998 442.246, 59.797 452.710, 63.390 462.319 L 65.701 468.497 66.300 435.498 C 66.630 417.349, 66.584 389.248, 66.200 373.052 L 65.500 343.603 63.256 350.052 M 703.794 349.500 C 703.076 358.383, 703.114 419.001, 703.855 446 L 704.500 469.500 707.500 459 L 710.500 448.500 710.500 405.500 C 710.500 360.414, 710.289 357.838, 705.690 346.867 L 704.279 343.500 703.794 349.500 M 147.579 471.750 C 146.007 479.210, 140.786 523.494, 140.653 530.503 L 140.500 538.507 147.500 552.503 C 153.379 564.258, 154.820 566.441, 156.500 566.132 C 157.600 565.930, 162.133 565.705, 166.573 565.632 C 177.652 565.451, 175.376 563.834, 215 600.025 C 237.449 620.530, 238.119 621, 244.886 621 C 252.034 621, 297.928 617.345, 307.985 615.975 C 316.633 614.796, 318.524 613.697, 331.716 602.186 C 351.889 584.581, 350.584 585, 385.249 585 L 413.255 585 419.495 588.072 C 423.072 589.833, 430.381 595.215, 436.618 600.679 C 452.917 614.961, 452.469 614.732, 467.527 616.452 C 484.311 618.369, 517.568 621, 525.015 621 C 532.037 621, 532.548 620.633, 557.944 597.397 C 580.709 576.566, 586.740 571.287, 591.183 568.299 C 595.544 565.367, 604.526 564.223, 610.415 565.849 C 615.147 567.155, 615.014 567.293, 621.857 554 C 628.791 540.530, 630.374 535.144, 629.603 527.640 C 627.941 511.467, 622.569 470.921, 621.957 469.930 C 621.463 469.131, 620.432 469.242, 618.350 470.319 L 615.434 471.827 618.268 491.163 C 621.490 513.150, 621.455 521.238, 618.108 527.793 C 613.289 537.230, 552.975 593.696, 540.715 600.248 C 536.910 602.281, 535.187 602.491, 523 602.413 C 501.226 602.272, 455.077 597.891, 449.089 595.397 C 442.972 592.849, 438.049 587.170, 433.358 577.250 C 430.953 572.163, 428.842 568, 428.668 568 C 428.494 568, 424.874 569.800, 420.622 572 L 412.892 576 385.087 576 L 357.282 576 351.891 573.237 C 348.926 571.717, 345.269 569.645, 343.765 568.632 L 341.030 566.790 339.987 569.645 C 334.658 584.227, 328.385 592.606, 320.712 595.394 C 316.593 596.890, 303.514 598.455, 269.734 601.492 C 239.282 604.231, 232.281 603.418, 222.500 596.011 C 217.011 591.854, 194.264 571.048, 170.364 548.322 C 147.875 526.940, 147.038 524.569, 151.398 494.638 C 154.670 472.179, 154.671 471.627, 151.453 470.161 C 148.112 468.638, 148.247 468.583, 147.579 471.750 M 175.513 478.250 C 173.894 485.192, 169.990 514.825, 170.452 516.666 C 171.392 520.409, 232.302 577.642, 238.632 580.730 C 241.449 582.104, 243.964 582.091, 263.632 580.595 C 292.315 578.415, 305.664 577.069, 310.219 575.897 C 313.568 575.035, 314.277 574.222, 317.351 567.720 C 319.228 563.749, 321.597 558.140, 322.615 555.255 L 324.466 550.010 315.983 541.401 C 304.270 529.514, 269.061 496.086, 266.456 494.380 C 265.283 493.611, 260.088 492.048, 254.912 490.906 C 245.819 488.901, 178.253 476.017, 176.769 476.006 C 176.367 476.003, 175.802 477.012, 175.513 478.250 M 560.500 481.933 C 521.045 489.464, 506.033 492.747, 503.544 494.386 C 501.151 495.962, 462.702 532.519, 452.518 542.900 L 445.537 550.017 447.378 555.201 C 448.391 558.052, 450.776 563.664, 452.678 567.672 C 455.771 574.188, 456.527 575.065, 459.819 575.951 C 463.221 576.867, 497.736 580.044, 520 581.491 C 531.422 582.233, 530.697 582.598, 547 567.886 C 559.400 556.696, 592.912 524.964, 597 520.542 C 600.035 517.259, 600.030 513.712, 596.962 493.254 C 594.457 476.551, 594.296 475.974, 592.183 476.103 C 591.257 476.160, 577 478.783, 560.500 481.933 M 153.570 594.688 C 147.215 598.917, 141.798 603.079, 141.533 603.938 C 141.038 605.541, 130.763 657.625, 126.973 677.741 L 124.855 688.983 129.677 698.168 C 135.329 708.931, 139.669 714, 143.233 714 C 146.869 714, 150.194 717.044, 156.661 726.291 C 159.818 730.806, 167.377 741.250, 173.458 749.500 L 184.515 764.500 183.963 769.236 L 183.411 773.972 204.121 794.597 C 215.512 805.941, 225.264 814.955, 225.793 814.628 C 226.321 814.301, 227.292 811.889, 227.950 809.267 C 229.698 802.304, 236.291 788.748, 241.436 781.537 C 263.625 750.443, 309.314 728.591, 362 723.877 C 377.339 722.504, 410.060 723.355, 422.500 725.450 C 484.652 735.918, 526.353 764.318, 540.994 806.149 C 542.527 810.530, 544.052 814.385, 544.383 814.716 C 544.713 815.046, 554.346 806.023, 565.788 794.663 L 586.593 774.008 586.039 769.254 L 585.485 764.500 596.542 749.500 C 602.623 741.250, 610.182 730.806, 613.339 726.291 C 619.806 717.044, 623.131 714, 626.767 714 C 630.382 714, 634.724 708.879, 640.386 697.940 L 645.272 688.500 636.860 645.500 L 628.449 602.500 621.974 598.208 C 618.413 595.847, 612.692 592.323, 609.260 590.377 L 603.020 586.839 600.260 588.997 C 598.742 590.183, 586.414 601.132, 572.863 613.327 C 545.408 638.037, 546.019 637.288, 529.498 666.500 C 504.145 711.328, 500.750 717.062, 498.707 718.493 C 495.212 720.941, 488.653 720.420, 485.077 717.411 C 479.102 712.383, 480.119 709.655, 503.881 667.001 C 519.003 639.857, 519.295 642.730, 501.302 641.564 L 490.187 640.844 488.648 646.172 C 487.801 649.102, 484.623 660.500, 481.585 671.500 C 478.548 682.500, 475.561 693.245, 474.949 695.378 C 473.186 701.515, 470.031 704, 464 704 C 459.858 704, 458.427 703.518, 456.323 701.414 C 453.989 699.080, 453.788 698.277, 454.252 693.164 C 454.535 690.049, 457.552 676.997, 460.956 664.161 C 464.360 651.324, 466.926 640.250, 466.658 639.551 C 466.360 638.773, 463.521 638.078, 459.335 637.758 C 450.281 637.066, 442.283 633.891, 434.434 627.876 L 428 622.944 428 628.895 C 428 632.167, 428.690 645.965, 429.534 659.556 C 431.178 686.061, 430.877 689.572, 426.701 692.497 C 425.521 693.324, 422.655 694, 420.333 694 C 414.945 694, 411.222 690.941, 409.989 685.500 C 409.491 683.300, 408.164 666.875, 407.042 649 C 405.919 631.125, 404.743 614.138, 404.429 611.250 L 403.856 606 385 606 L 366.144 606 365.589 611.250 C 365.284 614.138, 364.099 631.125, 362.956 649 C 361.813 666.875, 360.479 683.300, 359.992 685.500 C 358.788 690.939, 355.069 694, 349.667 694 C 347.345 694, 344.479 693.324, 343.299 692.497 C 339.123 689.572, 338.822 686.061, 340.466 659.556 C 341.310 645.965, 342 632.167, 342 628.895 L 342 622.944 335.566 627.876 C 327.717 633.891, 319.719 637.066, 310.665 637.758 C 306.495 638.077, 303.640 638.774, 303.344 639.547 C 303.077 640.243, 305.667 651.317, 309.099 664.156 C 312.532 676.995, 315.537 690.007, 315.777 693.071 C 316.191 698.339, 316.041 698.787, 313.031 701.321 C 308.827 704.858, 302.316 705.062, 299.299 701.750 C 295.950 698.072, 295.282 696.193, 287.948 669.791 C 284.084 655.881, 280.674 643.677, 280.369 642.672 C 279.859 640.986, 278.951 640.899, 268.700 641.564 C 250.806 642.724, 251.147 640.004, 265.637 666 C 289.257 708.374, 290.547 711.732, 285.313 717.195 C 283.170 719.432, 281.739 720, 278.247 720 C 275.839 720, 273.049 719.561, 272.047 719.025 C 270.060 717.962, 262.965 706.090, 240.954 667 C 227.096 642.389, 226.263 641.168, 217.048 631.975 C 204.702 619.658, 167.863 587, 166.316 587 C 165.661 587, 159.925 590.460, 153.570 594.688 M 64.532 648.064 C 98.015 714.883, 136.698 771.473, 178.599 814.933 L 190.233 827 197.693 827 L 205.154 827 186.162 807.250 C 164.730 784.963, 155.481 774.387, 143.527 758.500 C 129.482 739.833, 110.953 710.691, 105.355 698.465 C 102.334 691.865, 102.340 691.776, 107.482 665.380 L 110.852 648.077 108.258 641.539 L 105.664 635 81.825 635 L 57.986 635 64.532 648.064 M 662.139 640.589 C 660.962 643.663, 660 647.499, 660 649.114 C 660 650.729, 661.619 660.623, 663.597 671.102 C 665.757 682.542, 666.954 691.434, 666.593 693.358 C 665.702 698.104, 655.359 716.236, 642.503 735.590 C 623.810 763.730, 609.863 780.708, 581.633 809.686 L 564.766 827 572.266 827 L 579.767 827 591.401 814.933 C 633.388 771.383, 671.916 715.021, 705.468 648.064 L 712.014 635 688.146 635 L 664.278 635 662.139 640.589 M 69 703.229 C 69 704.177, 88.120 763.306, 92.531 776 C 94.538 781.775, 97.723 789.425, 99.610 793 C 106.683 806.404, 133.872 837.018, 154.328 854.613 C 167.684 866.101, 181.359 876.432, 181.722 875.309 C 181.866 874.864, 180.525 867.460, 178.742 858.856 L 175.500 843.211 160.764 827.578 C 129.079 793.963, 102.976 759.196, 78.497 718 C 70.827 705.094, 69 702.252, 69 703.229 M 692.988 715.789 C 667.795 758.338, 640.668 794.385, 606.916 830.161 L 594.333 843.500 591.175 859.425 C 589.438 868.183, 588.227 875.560, 588.484 875.817 C 588.741 876.075, 595.600 870.952, 603.726 864.433 C 627.751 845.160, 655.851 815.749, 668.635 796.494 C 670.559 793.597, 673.933 786.115, 676.134 779.867 C 681.443 764.795, 701.093 703.759, 700.747 703.414 C 700.598 703.264, 697.106 708.833, 692.988 715.789 M 354.394 746.544 C 319.217 751.679, 288.652 764.679, 270.181 782.363 C 258.178 793.855, 251.637 805.048, 247.959 820.386 C 244.973 832.843, 245.555 833.303, 251.263 823 C 258.920 809.180, 262.379 804.497, 271.974 794.958 C 306.462 760.670, 367.149 745.500, 423.356 757.117 C 468.188 766.382, 502.529 790.314, 519.424 824.062 C 524.287 833.777, 524.896 833.390, 522.520 822.094 C 514.136 782.239, 473.912 754.568, 412.699 746.546 C 398.289 744.658, 367.323 744.657, 354.394 746.544 M 371.500 774.630 C 366.318 775.195, 351.911 777.611, 345.423 779.003 L 340.346 780.092 343.635 792.796 C 345.444 799.783, 346.941 806.558, 346.962 807.850 C 347.018 811.329, 340.946 817, 337.165 817 C 329.685 817, 328.096 814.806, 323.406 798 C 321.948 792.775, 320.614 788.341, 320.441 788.146 C 319.787 787.412, 303.918 796.487, 297.839 801.072 C 294.353 803.702, 288.701 808.699, 285.279 812.177 L 279.059 818.500 283.566 833.446 C 289.210 852.163, 288.718 855.500, 279.939 858.018 C 274.457 859.590, 270 856.760, 267.318 850.005 C 265.196 844.660, 265.110 844.581, 264.140 847.131 C 261.009 855.366, 258.638 869.969, 259.494 875.750 L 260.123 880 271.438 880 L 282.754 880 285.009 874.750 C 290.109 862.882, 302.634 847.905, 314.496 839.492 C 328.409 829.624, 350.572 821.383, 368.305 819.484 L 375 818.767 375 811.838 C 375 805.846, 375.327 804.583, 377.414 802.495 C 381.867 798.043, 388.104 798.013, 392.514 802.423 C 394.324 804.233, 395.011 806.338, 395.538 811.690 L 396.220 818.614 406.613 820.263 C 424.013 823.023, 442.580 830.326, 455.504 839.492 C 467.414 847.939, 481.273 864.571, 485.395 875.365 L 487.165 880 498.466 880 C 509.340 880, 509.790 879.915, 510.370 877.750 C 511.821 872.334, 509.679 856.960, 506.370 849.036 L 504.923 845.572 502.588 850.612 C 499.630 856.998, 494.803 859.750, 489.583 858.027 C 487.745 857.421, 485.547 856.154, 484.699 855.212 C 481.574 851.744, 481.808 848.787, 486.422 833.487 L 490.941 818.500 484.721 812.177 C 476.546 803.867, 467.315 796.950, 457.674 791.910 C 453.369 789.660, 449.712 787.972, 449.546 788.160 C 449.380 788.347, 448.052 792.775, 446.594 798 C 441.904 814.806, 440.315 817, 432.835 817 C 429.054 817, 422.982 811.329, 423.038 807.850 C 423.059 806.558, 424.556 799.783, 426.365 792.796 L 429.654 780.092 424.691 779.027 C 407.034 775.240, 383.634 773.306, 371.500 774.630 M 364.625 841.490 C 336.672 847.305, 315.489 861.652, 306.205 881.056 C 302.202 889.424, 300.695 895.143, 299.567 906.250 C 298.860 913.207, 300.305 913.816, 301.957 907.258 C 303.689 900.379, 310.255 888.312, 315.572 882.237 C 321.618 875.328, 330.612 869.004, 342.195 863.517 C 356.767 856.615, 362.253 855.600, 385 855.600 C 407.747 855.600, 413.233 856.615, 427.805 863.517 C 439.388 869.004, 448.382 875.328, 454.428 882.237 C 459.745 888.312, 466.311 900.379, 468.043 907.258 C 469.724 913.932, 470.901 913.152, 470.319 905.750 C 468.973 888.619, 463.272 876.080, 451.555 864.480 C 440.347 853.383, 426.781 846.408, 408.500 842.344 C 398.642 840.153, 373.415 839.661, 364.625 841.490 M 239.971 846.039 C 239.162 846.551, 229.613 846.976, 218.750 846.985 C 206.590 846.994, 199 847.375, 199 847.976 C 199 849.285, 207.919 892.266, 208.244 892.525 C 208.996 893.124, 212.999 895.028, 212.996 894.785 C 212.994 894.628, 211.880 888.875, 210.520 882 C 209.160 875.125, 208.036 868.240, 208.023 866.700 C 207.967 859.935, 213.669 855.152, 220.307 856.398 C 222.144 856.743, 226.879 859.301, 230.828 862.083 C 235.731 865.538, 238.142 866.723, 238.431 865.821 C 239.253 863.248, 242.131 845.798, 241.789 845.456 C 241.598 845.265, 240.780 845.527, 239.971 846.039 M 528.003 845.715 C 528.009 847.112, 531.056 864.457, 531.539 865.841 C 531.877 866.808, 533.376 866.199, 536.914 863.657 C 548.420 855.391, 553.876 854.375, 559.378 859.475 C 562.698 862.551, 562.711 864.889, 559.505 881.542 C 558.133 888.669, 557.008 894.628, 557.005 894.785 C 557.001 895.028, 561.005 893.123, 561.756 892.525 C 562.081 892.266, 571 849.285, 571 847.976 C 571 847.375, 563.485 847, 551.434 847 C 539.859 847, 531.079 846.577, 529.934 845.965 C 528.870 845.395, 528.001 845.283, 528.003 845.715 M 372.434 877.085 C 355.096 879.110, 337.717 888.688, 329.105 900.965 C 325.522 906.074, 322 913.534, 322 916.015 C 322 916.435, 326.920 916.947, 332.934 917.153 C 342.819 917.491, 344.113 917.757, 346.419 919.924 C 351.126 924.346, 350.673 933.494, 345.613 936.211 C 344.451 936.835, 338.877 937.552, 333.227 937.805 C 327.577 938.057, 322.764 938.573, 322.531 938.950 C 322.297 939.328, 323.239 942.081, 324.623 945.068 C 332.614 962.320, 350.084 974.670, 371.271 978.044 C 380.725 979.549, 398.065 978.803, 406.500 976.528 C 423.131 972.042, 437.382 960.955, 444.305 947.117 C 446.325 943.079, 447.732 939.375, 447.430 938.887 C 447.129 938.399, 442.836 938, 437.891 938 C 424.986 938, 421 935.522, 421 927.500 C 421 919.460, 424.979 917, 437.982 917 C 444.990 917, 447.190 916.669, 447.619 915.551 C 448.608 912.974, 441.999 901.349, 436.253 895.556 C 420.892 880.072, 399.605 873.911, 372.434 877.085 M 235.473 895.116 C 237.181 903.476, 238.309 906.382, 240.715 908.611 C 243.759 911.432, 245.328 911.688, 244.642 909.250 C 244.371 908.288, 243.857 905.925, 243.500 904 C 242.373 897.926, 242.003 897.240, 238.352 894.455 L 234.782 891.732 235.473 895.116 M 531.161 894.869 C 528.581 896.974, 527.520 898.922, 526.433 903.542 C 524.380 912.269, 524.541 912.558, 529.323 908.731 C 531.526 906.968, 532.462 904.962, 533.589 899.586 C 534.383 895.798, 534.910 892.576, 534.760 892.426 C 534.610 892.277, 532.990 893.376, 531.161 894.869 M 267.169 901.874 C 266.080 902.565, 266.269 904.880, 268.212 914.609 L 270.585 926.500 274.543 926.500 L 278.500 926.500 278.208 917.500 C 278.047 912.550, 277.670 906.813, 277.370 904.750 C 276.839 901.102, 276.711 901, 272.662 901.015 C 270.373 901.024, 267.901 901.410, 267.169 901.874 M 492 910.875 C 492 916.306, 491.719 922.156, 491.375 923.875 C 490.773 926.883, 490.876 926.999, 494.125 926.985 C 495.981 926.976, 498.013 926.639, 498.641 926.235 C 500.019 925.347, 504.382 904.439, 503.609 902.424 C 503.228 901.429, 501.395 901, 497.531 901 L 492 901 492 910.875" stroke="none" fill="#040404" fill-rule="evenodd"/></svg>